<?xml version="1.0" encoding="utf-8"?>
<!-- Generator: Adobe Illustrator 19.2.0, SVG Export Plug-In . SVG Version: 6.00 Build 0)  -->
<svg version="1.1" id="Layer_1" xmlns="http://www.w3.org/2000/svg" xmlns:xlink="http://www.w3.org/1999/xlink" x="0px" y="0px"
	 viewBox="0 0 1321.2 344.2" style="enable-background:new 0 0 1321.2 344.2;" xml:space="preserve">
<style type="text/css">
	.st0{fill:#D6E03F;}
	.st1{fill:#231F20;}
</style>
<symbol  id="New_Symbol" viewBox="-448.2 -46.6 896.4 93.2">
	<path class="st0" d="M-366.4-12.7h15.9l6.7-17.6h-15.9l3.5-8.7l2.7-7.2h-17.6l-6.2,15.9h-17.4l6-15.9h-17.6l-5.9,15.9h-15.9
		l-6.7,17.6h15.9l-6.7,17.4h-15.9l-6.7,17.6h15.9l-3,7.2c-1,3-2.1,5.9-3.2,8.7h17.6l3-7.7l3.2-8.2h17.4l-3,7.2l-3,8.7h17.6l2.8-7.7
		l3.2-8.2h15.9l6.7-17.6H-373l3.2-8.7L-366.4-12.7z M-390.7,4.6H-408l3.2-8.7l3.5-8.7h17.3L-390.7,4.6z"/>
	<path class="st1" d="M-322.1,46.6v-74.4h12.2v5.8c0.9-2.2,2.4-4.2,4.4-5.5c2.1-1.3,4.5-1.9,6.9-1.8c5.4,0,9.2,2.1,11.4,6.4
		c2.2,4.3,3.3,11.8,3.3,22.7c0,11.2-1.1,19-3.2,23.2c-2.1,4.2-5.9,6.4-11.2,6.4c-2.3,0.1-4.6-0.5-6.6-1.5c-1.9-1.1-3.3-2.7-4.3-4.7
		v23.4H-322.1z M-309.6-2.3c0,9,0.5,14.7,1.4,17.1c0.7,2.3,2.9,3.8,5.3,3.6c2.1,0.1,4-1.1,4.7-3.1c0.8-2.1,1.3-7.2,1.3-15.5
		c0-8-0.4-13.1-1.3-15.3c-0.6-2-2.6-3.4-4.7-3.3c-2.6,0-4.3,1-5.3,3C-309.1-13.6-309.6-9.2-309.6-2.3z"/>
	<path class="st1" d="M-272.8,27.9v-55.7h12.3v9c1.8-3.7,3.7-6.4,5.7-8c2.1-1.6,4.7-2.5,7.3-2.5v15.6c-0.5-0.1-1-0.1-1.4-0.2
		s-1.1,0-1.8,0c-2.4-0.1-4.8,0.8-6.6,2.5c-1.7,1.8-2.5,4.2-2.4,6.6v32.6H-272.8z"/>
	<path class="st1" d="M-213.8,8.8h12.1c0,0.3,0,0.6,0.1,1.1s0.1,0.8,0.1,1.1c0,6.4-1.5,11-4.6,14c-3,3-7.8,4.5-14.4,4.5
		c-3,0.1-5.9-0.4-8.7-1.3c-2.2-0.8-4.2-2.2-5.8-4c-1.9-2.4-3.2-5.2-3.8-8.1c-0.7-3.3-1.1-9.2-1.1-17.6c0-6.8,0.3-11.6,1-14.5
		c0.5-2.6,1.6-5.1,3.3-7.2c1.7-2,3.8-3.5,6.3-4.4c3-1,6.1-1.5,9.2-1.5c3-0.1,6.1,0.5,8.9,1.6c2.4,1,4.5,2.6,6.1,4.7
		c1.5,2.1,2.5,4.5,3,7c0.7,4.5,1,9,0.9,13.6v4.2h-25.3c-0.1,0.4-0.1,0.9-0.1,1.3c0,0.5,0,1.2,0,2.2c0,5.3,0.5,9,1.5,11.1
		c0.8,2,2.8,3.3,5,3.2c2,0.2,4-0.8,5-2.6C-214.3,15.4-213.8,12.6-213.8,8.8z M-226.8-7h12.5v-2.3c0-3.8-0.5-6.4-1.4-7.9
		s-2.6-2.2-4.9-2.2c-2.3,0-3.9,0.7-4.9,2.2c-1,1.5-1.4,4.1-1.4,7.8C-226.8-8.3-226.8-7.5-226.8-7z"/>
	<path class="st1" d="M-190.2,46.6v-74.4h12.2v5.8c0.9-2.2,2.4-4.2,4.4-5.5c2.1-1.3,4.5-1.9,6.9-1.8c5.4,0,9.2,2.1,11.4,6.4
		s3.3,11.8,3.3,22.7c0,11.2-1.1,19-3.2,23.2s-5.9,6.4-11.2,6.4c-2.3,0.1-4.6-0.5-6.6-1.5c-1.9-1.1-3.3-2.7-4.3-4.7v23.4H-190.2z
		 M-177.7-2.3c0,9,0.5,14.7,1.4,17.1c0.7,2.3,2.9,3.8,5.3,3.6c2.1,0.1,4-1.1,4.7-3.1c0.8-2.1,1.3-7.2,1.3-15.5
		c0-8-0.4-13.1-1.3-15.3c-0.6-2-2.6-3.4-4.7-3.3c-2.6,0-4.3,1-5.3,3S-177.7-9.2-177.7-2.3z"/>
	<path class="st1" d="M-114.7,27.9c-0.4-0.6-0.6-1.2-0.7-1.9c-0.2-0.8-0.4-2-0.6-3.5c-1.2,2.1-3.1,3.9-5.2,5.1
		c-2.3,1.2-4.9,1.8-7.5,1.8c-4.2,0-7.5-1.4-9.9-4.3s-3.5-6.8-3.5-11.9c0-4.6,1-8.2,3.1-10.9c2.1-2.7,6.2-5.4,12.3-8.2
		c0.6-0.3,1.5-0.7,2.6-1.2c5-2.2,7.6-4.7,7.5-7.5c0.1-1.5-0.4-3-1.5-4.1c-1.2-1-2.7-1.5-4.3-1.4c-2.3,0-4.1,0.6-5.2,1.9
		c-1.1,1.3-1.7,3.2-1.7,5.9v1.1h-12.5c0-6.2,1.5-10.8,4.6-13.7s8-4.3,14.8-4.3c6.8,0,11.5,1.3,14.2,3.9s4.1,7.2,4.1,13.7v31.4
		c0,1.4,0.1,2.8,0.4,4.2c0.3,1.3,0.8,2.6,1.5,3.8H-114.7z M-116.5-1.3c-4.8,2.4-8.1,4.6-9.8,6.5c-1.7,1.9-2.6,4.3-2.6,6.8
		c0,2.5,0.5,4.3,1.4,5.5c1.1,1.2,2.7,1.9,4.3,1.8c2.1,0.1,4.1-1,5.1-2.9c1.1-2,1.7-4.9,1.7-8.8L-116.5-1.3L-116.5-1.3z"/>
	<path class="st1" d="M-91.9,27.9v-55.7h12.3v9c1.8-3.7,3.7-6.4,5.7-8c2.1-1.6,4.7-2.5,7.3-2.5v15.6c-0.5-0.1-1-0.1-1.5-0.2
		s-1.1,0-1.8,0c-2.4-0.1-4.8,0.8-6.6,2.5c-1.7,1.8-2.5,4.2-2.4,6.6v32.6H-91.9z"/>
	<path class="st1" d="M-57.5-34.7v-11.6h12.8v11.6H-57.5z M-57.5,27.9v-55.7h12.8v55.7H-57.5z"/>
	<path class="st1" d="M-32.3,27.9v-55.7h12.6v5.6c1.2-2.2,2.9-4,5-5.3c2-1.2,4.3-1.8,6.7-1.8c4,0,7.1,1.2,9.3,3.5s3.2,5.6,3.2,10
		v43.7H-7.9V-9.5c0-3.3-0.4-5.6-1.3-6.9c-0.9-1.4-2.5-2.1-4.2-2c-1.9-0.1-3.7,0.8-4.6,2.5c-0.9,1.6-1.4,4.4-1.4,8.3v35.5H-32.3z"/>
	<path class="st1" d="M53.4,23.4c0.1,3.6-0.1,7.2-0.7,10.8c-0.4,2.1-1.2,4.1-2.4,5.8c-1.6,2.3-3.9,4-6.5,4.9
		c-3.3,1.2-6.8,1.8-10.4,1.7c-5.5,0-9.7-1.1-12.6-3.2c-2.9-2.2-4.4-5.3-4.5-9.4h12.8c0.1,1,0.6,1.9,1.4,2.6c1,0.7,2.2,1,3.4,0.9
		c2.4,0,4.1-0.7,5.1-2.2c1-1.5,1.5-4.2,1.5-8.2v-3.8c-0.9,1.9-2.4,3.5-4.3,4.7c-1.9,1.1-4.1,1.6-6.3,1.6c-5.5,0-9.3-2.1-11.5-6.2
		s-3.3-11.9-3.3-23.4c0-10.8,1.1-18.4,3.3-22.7c2.2-4.3,6-6.4,11.3-6.4c2.5-0.1,4.9,0.5,7,1.8c2,1.3,3.5,3.3,4.4,5.5v-5.8h12.2
		L53.4,23.4L53.4,23.4z M34.2-18.6c-2.1-0.1-4.1,1.3-4.7,3.3C28.7-13,28.3-7.6,28.3,1c0,7.5,0.4,12.3,1.3,14.4
		c0.7,2,2.6,3.2,4.6,3.1c2.4,0.1,4.5-1.4,5.3-3.6c0.9-2.4,1.4-8.6,1.4-18.4c0-6.2-0.5-10.2-1.4-12.2C38.5-17.6,36.8-18.6,34.2-18.6z
		"/>
	<path class="st1" d="M102.8,16.4c0,2.3,0.4,3.8,1.3,4.6c0.8,0.7,2.8,1.1,6,1.1c0.4,0,0.8,0,1,0s0.5,0,0.7-0.1v6.8l-1.9,0.1
		c-2,0.1-3.3,0.1-3.8,0.1c-3.7,0-6.4-0.7-8.2-2.2s-2.7-3.7-2.7-6.6v-41.3h-7.7v-6.4h7.7v-14.8h7.5v14.8h9v6.4h-9L102.8,16.4
		L102.8,16.4z"/>
	<path class="st1" d="M119.4,27.9v-74.1h7.8v24.7c1.3-2.3,3.2-4.2,5.5-5.4c2.4-1.2,5.2-1.9,7.9-1.8c4.3,0,7.6,1.1,10,3.3
		c2.4,2.2,3.6,5.3,3.6,9.3v44h-7.8v-40.3c0-3.3-0.6-5.6-1.8-7.1c-1.2-1.5-3.2-2.2-5.9-2.2c-3.1-0.1-6.1,1.1-8.2,3.3
		c-2.1,2.2-3.1,5.1-3.1,8.9v37.5H119.4L119.4,27.9z"/>
	<path class="st1" d="M192.4,9.2h7.6c-0.1,6.5-1.6,11.5-4.5,15c-2.9,3.5-7.1,5.2-12.5,5.2c-6,0-10.4-2.3-13.2-7
		c-2.8-4.7-4.3-11.9-4.3-21.6c0-10.3,1.4-17.9,4.3-22.7c2.8-4.8,7.3-7.2,13.4-7.2c5.7,0,10,2,12.8,6.1s4.2,10.3,4.2,18.6
		c0,1.3,0,2.3,0,3s0,1.3-0.1,1.8h-26.6v2.5c0,6.9,0.8,12,2.4,15.2c1.3,3,4.4,4.9,7.7,4.8c2.6,0,5.1-1.3,6.5-3.6
		c1.6-2.4,2.4-5.6,2.4-9.7L192.4,9.2L192.4,9.2z M173.5-5.8h18.8v-1.4c0-5.1-0.7-9-2.2-11.5c-1.3-2.5-3.9-4-6.7-3.9
		c-3.1-0.2-6,1.5-7.4,4.2C174.3-15.8,173.5-11.5,173.5-5.8L173.5-5.8z"/>
	<path class="st1" d="M239.6,27.9v-49.1h-7.8v-6.3h7.8V-35c0-4,1.1-6.9,3.2-8.8c2.1-1.9,5.4-2.8,9.9-2.8c0.5,0,1,0,1.4,0.1
		s1.1,0.1,1.8,0.3v6.9c-0.6-0.1-1.1-0.2-1.6-0.3c-0.5-0.1-1-0.1-1.5-0.1c-1.9,0-3.2,0.4-4,1.1c-0.9,1.1-1.3,2.4-1.2,3.8v7.2h8.4v6.3
		h-8.4v49.1H239.6z"/>
	<path class="st1" d="M291.3,27.9v-7.2c-1,2.7-2.8,4.9-5.2,6.4c-2.6,1.6-5.6,2.4-8.6,2.3c-4.6,0-8-1.1-10.1-3.4s-3.2-5.9-3.2-10.9
		v-42.6h8.1v42.8c-0.1,1.9,0.5,3.8,1.7,5.3c1.3,1.3,3,2,4.8,1.8c3.7,0,6.6-1.2,8.7-3.5c2.1-2.3,3.1-5.5,3.1-9.7v-36.7h7.8v55.4
		H291.3L291.3,27.9z"/>
	<path class="st1" d="M320.8,16.4c0,2.3,0.4,3.8,1.3,4.6s2.8,1.1,6,1.1c0.4,0,0.8,0,1,0s0.5,0,0.7-0.1v6.8l-1.9,0.1
		c-2,0.1-3.3,0.1-3.8,0.1c-3.7,0-6.4-0.7-8.2-2.2s-2.7-3.7-2.7-6.6v-41.3h-7.7v-6.4h7.7v-14.8h7.6v14.8h9v6.4h-9V16.4z"/>
	<path class="st1" d="M364.4,27.9v-7.2c-1,2.7-2.8,4.9-5.2,6.4c-2.6,1.6-5.6,2.4-8.6,2.3c-4.6,0-8-1.1-10.1-3.4s-3.2-5.9-3.2-10.9
		v-42.6h8.1v42.8c-0.1,1.9,0.5,3.8,1.7,5.3c1.2,1.3,3,2,4.8,1.8c3.7,0,6.6-1.2,8.7-3.5c2.1-2.3,3.1-5.5,3.1-9.7v-36.7h7.8v55.4
		H364.4L364.4,27.9z"/>
	<path class="st1" d="M385.1,27.9v-55.4h7.2v9c0.9-3,2.7-5.6,5.1-7.6c2.2-1.8,4.9-2.8,7.8-2.7c0.9,0,1.5,0,2,0s0.9,0.1,1.3,0.1v8.3
		c-0.4-0.2-0.9-0.4-1.4-0.5c-0.5-0.1-1.1-0.2-1.7-0.2c-4,0-7.1,1.3-9.3,3.9s-3.3,6.3-3.3,11v34H385.1L385.1,27.9z"/>
	<path class="st1" d="M440.4,9.2h7.6c-0.1,6.5-1.6,11.5-4.5,15c-2.9,3.5-7.1,5.2-12.5,5.2c-6,0-10.4-2.3-13.2-7
		c-2.8-4.7-4.3-11.9-4.3-21.6c0-10.3,1.4-17.9,4.3-22.7c2.8-4.8,7.3-7.2,13.4-7.2c5.7,0,10,2,12.8,6.1s4.2,10.3,4.2,18.6
		c0,1.3,0,2.3,0,3s0,1.3-0.1,1.8h-26.6v2.5c0,6.9,0.8,12,2.4,15.2c1.3,3,4.4,4.9,7.7,4.8c2.6,0,5.1-1.3,6.5-3.6
		c1.6-2.4,2.4-5.6,2.4-9.7L440.4,9.2L440.4,9.2z M421.5-5.8h18.8v-1.4c0-5.1-0.7-9-2.2-11.5c-1.3-2.5-3.9-4-6.7-3.9
		c-3.1-0.2-6,1.5-7.4,4.2C422.3-15.8,421.5-11.5,421.5-5.8L421.5-5.8z"/>
</symbol>
<symbol  id="New_Symbol_1" viewBox="-659.6 -159.2 1319.2 318.4">
	<path class="st0" d="M491.7,29v3.5c0,2.2-0.4,4.3-1,6.4c-0.8,2.3-2.1,4.4-3.9,6.1c-2.4,2.2-5.3,4-8.3,5.1
		c-3.6,1.3-8.6,1.9-14.8,1.9c-6,0-10.8-0.6-14.4-1.9c-3-1.2-5.7-2.9-8-5.1c-1.6-2-2.8-4.3-3.5-6.7c-0.5-3.1-0.9-6.2-1-9.3V-94h-27
		V37.3c0.1,3.5,0.6,6.9,1.3,10.3c0.9,4.3,3.1,8.6,6.7,12.8c3.6,4.3,9.1,8,16.4,11.2c7.3,3,17.3,4.5,30.2,4.5
		c12.8,0,22.9-1.5,30.2-4.5c7.3-3.2,12.7-7,16.4-11.2c3.6-4.3,5.9-8.6,6.7-12.8c0.7-3.4,1.2-6.8,1.3-10.3V-94h-27
		C491.9-94,491.7-94,491.7,29z"/>
	<path class="st0" d="M376.1-80.5c-3.6-4.3-9.1-7.9-16.4-10.9c-7.3-3.2-17.3-4.8-30.2-4.8c-12.8,0-22.9,1.6-30.1,4.8
		c-7.3,3-12.8,6.6-16.4,10.9c-3.6,4.3-5.9,8.6-6.7,12.8c-0.7,3.4-1.2,6.8-1.3,10.3v95c-0.4,6.9,1.6,13.6,5.4,19.3
		c1.9,2.6,4.1,4.9,6.4,7.1c2.9,2.6,6.1,4.7,9.6,6.4c4.6,1.9,9.3,3.3,14.1,4.2c6.2,1.4,12.6,2,18.9,1.9c9.8,0,18-1,24.4-2.9
		s11.5-4.2,15.1-6.7c4.8-3.2,8.7-7.7,11.2-12.9c2.6-5,3.9-10.5,3.8-16.1v-7.7h-27.3c0,3.3-0.5,6.5-1.6,9.6c-1.1,3.1-3.1,5.8-5.8,7.7
		c-2.1,1.3-4.4,2.3-6.7,3.2c-3.2,1.1-7.6,1.6-13.2,1.6c-3.6,0.1-7.1-0.3-10.6-1c-2.2-0.5-4.4-1.3-6.4-2.3c-1.8-0.6-3.4-1.6-4.8-2.9
		c-1.1-1.1-2.1-2.4-2.9-3.9c-1.9-3-2.9-7.1-2.9-12.2V15.8c-0.1-5.7,2.3-11.2,6.5-15.1c3.9-3.9,9.2-6.1,14.8-6.1h24.4
		c2.9,0,5.9-0.4,8.7-1.3c2.7-0.8,5.4-1.7,8-2.9c3.1-1.3,5.8-3.3,8-5.8c5.1-5.1,8.4-9.9,9.6-14.4c1.4-3.9,2.1-8,2.2-12.2v-15.4
		c-0.1-3.3-0.5-6.7-1.3-9.9C381.8-72.3,379.5-76.8,376.1-80.5z M356.9-46.5c0,4.8-1.9,9.5-5.5,12.8c-3.4,3.3-8,5.2-12.8,5.1h-18.3
		l-4.5,0.3c-2,0.2-3.9,0.7-5.8,1.3c-1.9,0.6-3.6,1.6-5.1,2.9c-1.5,1.1-2.5,2.7-2.9,4.5v-33.4c0.1-2,0.4-3.9,1-5.8
		c0.7-2.4,2-4.7,3.8-6.4c2.5-2.1,5.5-3.8,8.6-4.8c3.9-1.5,8.8-2.3,14.8-2.3c5.8,0,10.4,0.7,13.8,2.2c3.2,1,6,2.8,8.3,5.1
		c1.8,1.7,3.1,4,3.5,6.4c0.6,2.1,1,4.2,1,9.3L356.9-46.5L356.9-46.5z"/>
	<path class="st0" d="M219.1-78.9l-13.5-4.5l-14.1-4.8l-11.9-4.5l-6.4-2.2l-3.5-1.6c-1.4-1-2.7-2.2-3.8-3.5
		c-1.3-1.6-2.5-3.3-3.5-5.1c-0.9-2.1-1.3-4.4-1.3-6.7v-47.2h-27V73.9h27V-76.7c0.3,2.1,1.4,4,3.2,5.1c1.5,1,3.1,1.7,4.8,2.2
		l10.6,3.5l10.3,3.6l10.9,3.9c2.8,1.1,5.5,2.7,7.7,4.8c2.1,1.9,3.8,4.2,5.1,6.7c1.6,3.1,2.4,6.5,2.3,10V73.9h27.3V-42.6
		c0.1-7.9-2.2-15.6-6.4-22.2C232.7-71.4,226.5-76.4,219.1-78.9z"/>
	<path class="st0" d="M84-138.9H56.7v42.7H36.1v22.8h20.5V35.1c0.1,3.5,0.6,6.9,1.3,10.3c0.9,4.3,3.1,8.6,6.7,12.8
		c3.9,4.3,9.4,8,16.7,11.2c7.3,3,17.3,4.5,30.2,4.5V49.8h-1c-4.8,0.1-9.6-0.5-14.1-1.9c-3-1.2-5.8-3.1-8-5.5c-1.7-1.8-3.1-4-3.8-6.4
		c-0.5-3.1-0.7-6.2-0.6-9.3V-73.5h27.6v-22.8H84V-138.9z"/>
	<path class="st0" d="M2.4-80.5c-3.6-4.3-9.1-7.9-16.4-10.9c-7.3-3.2-17.3-4.8-30.2-4.8c-12.8,0-22.9,1.6-30.2,4.8
		c-7.3,3-12.7,6.6-16.4,10.9s-5.9,8.6-6.7,12.8c-0.8,3.4-1.2,6.8-1.3,10.3v95c-0.3,6.8,1.6,13.6,5.5,19.3c1.9,2.6,4.1,4.9,6.4,7.1
		c2.9,2.6,6.1,4.7,9.6,6.4c4.6,1.9,9.3,3.3,14.1,4.2c6.2,1.4,12.6,2,18.9,1.9c9.8,0,18-1,24.4-2.9c6.4-1.9,11.5-4.2,15.1-6.7
		C0.2,63.6,4,59.2,6.6,54c2.6-5,3.9-10.5,3.8-16v-7.7h-27.3c0,3.3-0.5,6.5-1.6,9.6c-1.1,3.1-3.1,5.8-5.8,7.7
		c-2.1,1.3-4.4,2.3-6.7,3.2c-3.2,1.1-7.6,1.6-13.2,1.6c-3.6,0.1-7.1-0.3-10.6-1c-2.2-0.5-4.4-1.3-6.4-2.3c-1.8-0.6-3.4-1.6-4.8-2.9
		c-1.1-1.1-2.1-2.4-2.9-3.9c-1.9-3-2.9-7.1-2.9-12.2V15.8c-0.1-5.7,2.2-11.2,6.4-15.1c3.9-3.9,9.2-6.1,14.8-6.1h24.4
		c2.9,0,5.9-0.4,8.7-1.3c2.7-0.8,5.4-1.7,8-2.9c3.1-1.3,5.8-3.3,8-5.8c5.1-5.1,8.4-9.9,9.6-14.4c1.4-3.9,2.1-8,2.2-12.2v-15.4
		c-0.1-3.3-0.5-6.7-1.3-9.9C8.1-72.3,5.8-76.8,2.4-80.5z M-16.8-46.5c0,4.8-1.9,9.5-5.5,12.8c-3.4,3.3-8,5.2-12.8,5.1h-18.3
		l-4.5,0.3c-2,0.2-3.9,0.7-5.8,1.3c-1.9,0.6-3.6,1.6-5.1,2.9c-1.5,1.1-2.5,2.7-2.9,4.5v-33.4c0.1-2,0.4-3.9,1-5.8
		c0.7-2.4,2-4.7,3.8-6.4c2.5-2.2,5.5-3.8,8.7-4.8c3.8-1.5,8.7-2.3,14.7-2.3c5.8,0,10.4,0.7,13.8,2.2c3.2,1,6,2.8,8.3,5.1
		c1.8,1.7,3,4,3.5,6.4c0.6,2.1,1,4.2,1,9.3L-16.8-46.5L-16.8-46.5z"/>
	<path class="st0" d="M-138.5-80.5c-3.6-4.3-9.1-7.9-16.4-10.9c-7.3-3.2-17.3-4.8-30.2-4.8c-10.3,0-18.7,1.1-25.4,3.2
		c-5.6,1.5-10.9,4-15.7,7.4c-4.9-3.4-10.3-5.9-16.1-7.4c-6.4-2.1-14.8-3.2-25-3.2c-12.8,0-22.9,1.6-30.2,4.8
		c-7.3,3-12.7,6.6-16.4,10.9c-3.6,4.3-5.9,8.6-6.8,12.8c-0.7,3.4-1.2,6.8-1.3,10.3V73.9h27V-52.9c0.1-2,0.4-3.9,1-5.8
		c0.7-2.4,2-4.7,3.9-6.4c2.5-2.2,5.5-3.8,8.7-4.8c3.8-1.5,8.8-2.3,14.8-2.3s10.7,0.7,14.1,2.2c3.6,1.3,6.3,3,8,5.1
		c1.8,1.7,3,4,3.5,6.4c0.6,2.1,1,4.2,1,9V73.9h27.3V-52.9c0.1-2,0.4-3.9,1-5.8c0.7-2.4,2-4.7,3.9-6.4c2.5-2.2,5.5-3.8,8.7-4.8
		c3.8-1.5,8.7-2.3,14.7-2.3c6,0,10.7,0.7,14.1,2.2c3.6,1.3,6.3,3,8,5.1c1.8,1.7,3,4,3.5,6.4c0.6,2.1,1,4.2,1,9V73.9h27.3V-57.4
		c-0.1-3.3-0.5-6.7-1.3-9.9C-132.8-72.3-135.1-76.8-138.5-80.5z"/>
	<rect x="-380.3" y="-158.5" class="st0" width="27" height="32.4"/>
	<rect x="-380.3" y="-93.7" class="st0" width="27" height="167.6"/>
	<path class="st0" d="M-428.4-84.7c-5-3.9-10.8-6.8-17-8.3c-6.8-2.1-15.1-3.2-24.7-3.2c-18.8,0-32.6,3.7-41.4,11.2
		c-8.6,7.3-12.9,16.4-13.2,27.3v216.9h27.3v-67c-0.1-2.3,0.4-4.6,1.3-6.7c1-1.8,2.2-3.5,3.6-5.1c1.3-1.5,2.6-2.7,7.1-5.1l6.4-2.2
		l11.9-4.2l14.5-5.1l13.2-4.5c7.5-2.4,13.9-7.4,18-14.1c4.1-6.7,6.2-14.4,6-22.2v-80.2c0-5.2-1.1-10.4-3.2-15.1
		C-420.8-77.4-424.2-81.6-428.4-84.7z M-442.6,17.1c0.1,3.6-0.7,7.1-2.3,10.3c-1.4,2.4-3.1,4.6-5.1,6.4c-2.3,1.9-4.9,3.4-7.7,4.5
		l-10.9,3.9c-3.2,1.1-6.6,2.4-10.3,3.9l-10.6,3.5c-1.8,0.5-3.6,1.2-5.1,2.3c-1.6,1.3-2.7,3.1-2.9,5.1V-52.6c0-2.3,0.4-4.6,1.3-6.7
		c0.9-2.4,2.3-4.6,4.2-6.4c2.4-2.1,5.3-3.6,8.4-4.5c4.4-1.4,8.9-2.1,13.5-1.9c4.3-0.1,8.7,0.4,12.8,1.6c3.1,0.8,6,2.3,8.4,4.5
		c2.1,1.8,3.6,4.1,4.5,6.7c1.1,2.5,1.7,5.2,1.9,8L-442.6,17.1L-442.6,17.1z"/>
	<path class="st0" d="M-558.4-80.5c-3.6-4.3-9.1-7.9-16.4-10.9c-7.3-3.2-17.3-4.8-30.2-4.8c-12.8,0-22.9,1.6-30.2,4.8
		c-7.3,3-12.8,6.6-16.4,10.9c-3.7,4.3-5.9,8.6-6.7,12.8c-0.8,3.4-1.2,6.8-1.3,10.3v95c-0.3,6.8,1.6,13.6,5.5,19.3
		c1.9,2.6,4.1,4.9,6.4,7.1c2.9,2.6,6.1,4.7,9.6,6.4c4.6,1.9,9.3,3.3,14.1,4.2c6.2,1.4,12.6,2,18.9,1.9c9.8,0,18-1,24.4-2.9
		s11.5-4.2,15.1-6.7c4.8-3.2,8.7-7.7,11.2-12.9c2.6-5,3.9-10.5,3.9-16.1v-7.7h-27.3c0,3.3-0.5,6.5-1.6,9.6c-1.1,3.1-3.1,5.8-5.8,7.7
		c-2.1,1.3-4.4,2.4-6.7,3.3c-3.2,1.1-7.6,1.6-13.2,1.6c-3.6,0.1-7.1-0.3-10.6-1c-2.2-0.5-4.4-1.3-6.4-2.3c-1.8-0.6-3.4-1.6-4.8-2.9
		c-1.1-1.1-2.1-2.4-2.9-3.9c-1.9-3-2.9-7.1-2.9-12.2V15.8c-0.1-5.7,2.2-11.2,6.4-15.1c3.9-3.9,9.2-6.1,14.8-6.1h24.4
		c2.9,0,5.9-0.4,8.7-1.3c2.7-0.8,5.4-1.7,8-2.9c3.1-1.3,5.8-3.3,8-5.8c5.1-5.1,8.4-9.9,9.6-14.4c1.4-3.9,2.1-8,2.2-12.2v-15.4
		c-0.1-3.3-0.5-6.7-1.3-9.9C-552.8-72.3-555.1-76.8-558.4-80.5z M-577.7-46.5c0,4.8-1.9,9.5-5.5,12.8c-3.4,3.3-8.1,5.2-12.9,5.1
		h-18.3l-4.5,0.3c-2,0.2-3.9,0.7-5.8,1.3c-1.9,0.6-3.6,1.6-5.1,2.9c-1.5,1.1-2.5,2.7-2.9,4.5v-33.4c0.1-2,0.4-3.9,1-5.8
		c0.7-2.4,2-4.7,3.8-6.4c2.5-2.2,5.5-3.8,8.7-4.8c3.8-1.5,8.7-2.3,14.7-2.3c5.8,0,10.4,0.8,13.8,2.3c3.2,1,6,2.8,8.4,5.1
		c1.8,1.7,3.1,4,3.5,6.4c0.6,2.1,1,4.2,1,9.3L-577.7-46.5L-577.7-46.5z"/>
	<path class="st0" d="M578.7-59.3c0.9-2.5,2.5-4.7,4.5-6.4c2.4-2.1,5.3-3.6,8.3-4.5c4.4-1.4,8.9-2.1,13.5-1.9
		c10.7,0,17.8,2.2,21.5,6.7c3.9,4.3,5.9,9.9,5.8,15.7h27.3v-7.7c0-5.2-1-10.3-3.2-15.1c-2-4.9-5.4-9.1-9.6-12.2
		c-5-3.9-10.8-6.8-17-8.3c-6.8-2.1-15.1-3.2-24.7-3.2c-18.8,0-32.6,3.7-41.4,11.2c-8.8,7.3-13.2,16.5-13.2,27.6V-42
		c-0.1,4.7,0.8,9.4,2.6,13.8c1.6,3.7,3.7,7,6.4,10c2.3,2.6,5,4.9,8,6.7c2.3,1.5,4.8,2.8,7.4,3.9l10,3.5l14.4,4.8l18,6.4
		c2.8,1.1,5.4,2.6,7.7,4.5c2.1,1.9,3.8,4.2,5.1,6.7c1.6,3.1,2.4,6.5,2.3,10c0,8.1-1.9,14.2-5.8,18.3c-3.9,3.9-11,5.8-21.5,5.8
		c-10.7,0-18-2-21.8-6.1c-3.9-4.3-5.8-10.3-5.8-18h-27v9.3c0.1,4.3,0.7,8.7,1.9,12.8c1.7,4.8,4.6,9.1,8.3,12.5
		c4.1,3.9,9.6,7.1,16.7,9.6c7.1,2.6,16.3,3.9,27.6,3.9c11.3,0,20.5-1.3,27.6-3.9c7.1-2.6,12.6-5.8,16.7-9.6c3.8-3.4,6.5-7.7,8-12.5
		c1.4-4.1,2.2-8.5,2.3-12.8V22.5c0.1-7.9-2.2-15.6-6.4-22.1c-4.1-6.6-10.3-11.6-17.7-14.1l-13.2-4.5l-14.4-4.8L596-27.6l-6.4-2.3
		l-3.5-1.6c-1.4-1-2.7-2.2-3.8-3.5c-1.3-1.6-2.5-3.3-3.5-5.1c-0.9-2.1-1.3-4.4-1.3-6.7v-6.1C577.4-55.1,577.9-57.3,578.7-59.3z"/>
</symbol>
<use xlink:href="#New_Symbol_1"  width="1319.2" height="318.4" x="-659.6" y="-159.2" transform="matrix(1 0 0 1 660.5309 159.107)" style="overflow:visible;"/>
<use xlink:href="#New_Symbol"  width="896.4" height="93.2" x="-448.2" y="-46.6" transform="matrix(1 0 0 1 871.9409 297.062)" style="overflow:visible;"/>
</svg>
