<svg version="1.1" width="227.14" height="95.76" viewBox="0 0 227.14 95.76" xmlns="http://www.w3.org/2000/svg" xmlns:xlink="http://www.w3.org/1999/xlink" overflow="hidden"><defs></defs><g><path d=" M 133.2 43.47 C 127.09 43.47 122.12 48.44 122.12 54.55 C 122.12 60.66 127.09 65.63 133.2 65.63 C 139.31 65.63 144.28 60.66 144.28 54.55 C 144.28 48.44 139.31 43.47 133.2 43.47 Z M 133.2 61.82 C 129.19 61.82 125.93 58.56 125.93 54.55 C 125.93 50.54 129.19 47.28 133.2 47.28 C 137.21 47.28 140.47 50.54 140.47 54.55 C 140.47 58.56 137.21 61.82 133.2 61.82 Z" fill="#003E52"/><path d=" M 42.08 44.59 L 42.08 48.39 L 42.08 52.64 L 42.08 56.45 L 42.08 60.7 L 42.08 64.51 L 45.89 64.51 L 62 64.51 L 62 60.7 L 45.89 60.7 L 45.89 56.45 L 59.77 56.45 L 59.77 52.64 L 45.89 52.64 L 45.89 48.39 L 62 48.39 L 62 44.59 L 45.89 44.59 Z" fill="#003E52"/><path d=" M 18.36 59.13 L 3.83 44.6 L 3.81 44.63 L 3.81 44.59 L 0 44.59 L 0 64.51 L 3.81 64.51 L 3.81 49.96 L 18.36 64.51 L 18.36 64.5 L 18.36 64.51 L 22.16 64.51 L 22.16 44.59 L 18.36 44.59 Z" fill="#003E52"/><path d=" M 178.75 59.13 L 164.23 44.6 L 164.2 44.63 L 164.2 44.59 L 160.39 44.59 L 160.39 64.51 L 164.2 64.51 L 164.2 49.96 L 178.75 64.51 L 178.75 64.5 L 178.75 64.51 L 182.56 64.51 L 182.56 44.59 L 178.75 44.59 Z" fill="#003E52"/><path d=" M 217.18 64.51 C 222.67 64.51 227.14 60.04 227.14 54.55 C 227.14 49.06 222.67 44.59 217.18 44.59 L 202.47 44.59 L 202.47 64.51 L 217.18 64.51 Z M 217.18 60.7 L 206.28 60.7 L 206.28 48.39 L 217.18 48.39 C 220.57 48.39 223.33 51.15 223.33 54.54 C 223.34 57.94 220.58 60.7 217.18 60.7 Z" fill="#003E52"/><path d=" M 81.92 41.9 L 79.23 44.59 L 89.21 54.55 L 79.25 64.51 L 81.94 67.2 L 92.69 56.46 L 106.02 56.46 L 106.02 52.65 L 92.69 52.65 Z" fill="#003E52"/><g><path d=" M 113.5 8.06 L 124.56 8.06 C 123.67 3.48 119.63 0 114.79 0 L 105.44 0 L 113.5 8.06 Z" fill="#00AEEF"/><path d=" M 113.5 11.87 L 105.45 19.92 L 114.79 19.92 C 119.63 19.92 123.67 16.45 124.56 11.87 L 113.5 11.87 Z" fill="#00AEEF"/><path d=" M 100.08 0.02 L 100.08 19.91 L 110.02 9.97 Z" fill="#00AEEF"/></g><g><path d=" M 26.63 89.25 L 27.53 89.25 L 27.53 95.69 L 26.8 95.69 L 23.03 90.82 L 23.03 95.69 L 22.13 95.69 L 22.13 89.25 L 22.85 89.25 L 26.63 94.12 L 26.63 89.25 Z" fill="#003E52"/><path d=" M 31.92 95.68 L 31.92 89.24 L 36.19 89.24 L 36.19 90 L 32.86 90 L 32.86 92.03 L 36 92.03 L 36 92.79 L 32.86 92.79 L 32.86 94.92 L 36.19 94.92 L 36.19 95.68 L 31.92 95.68 Z" fill="#003E52"/><path d=" M 48.57 89.25 L 49.5 89.25 L 47.18 95.69 L 46.38 95.69 L 44.61 90.72 L 42.83 95.69 L 42.04 95.69 L 39.73 89.25 L 40.7 89.25 L 42.47 94.37 L 44.29 89.25 L 44.99 89.26 L 46.78 94.4 L 48.57 89.25 Z" fill="#003E52"/><path d=" M 67.09 89.25 L 68.02 89.25 L 65.7 95.69 L 64.9 95.69 L 63.13 90.72 L 61.35 95.69 L 60.56 95.69 L 58.25 89.25 L 59.22 89.25 L 60.99 94.37 L 62.81 89.25 L 63.51 89.26 L 65.3 94.4 L 67.09 89.25 Z" fill="#003E52"/><path d=" M 76.35 95.68 L 75.65 94.09 L 72.32 94.09 L 71.62 95.68 L 70.65 95.68 L 73.58 89.24 L 74.38 89.24 L 77.32 95.68 L 76.35 95.68 Z M 72.65 93.35 L 75.33 93.35 L 73.99 90.28 L 72.65 93.35 Z" fill="#003E52"/><path d=" M 85.49 89.25 L 82.86 93.1 L 82.86 95.69 L 81.9 95.69 L 81.9 93.09 L 79.28 89.26 L 80.37 89.26 L 82.39 92.3 L 84.4 89.26 L 85.49 89.26 Z" fill="#003E52"/><path d=" M 89.41 95.56 C 88.99 95.43 88.62 95.23 88.31 94.96 L 88.65 94.27 C 88.97 94.52 89.3 94.71 89.65 94.82 C 90 94.94 90.39 95 90.82 95 C 91.31 95 91.7 94.91 91.97 94.73 C 92.24 94.55 92.38 94.29 92.38 93.96 C 92.38 93.68 92.25 93.47 92 93.33 C 91.75 93.19 91.35 93.06 90.8 92.94 C 90.28 92.83 89.85 92.71 89.51 92.57 C 89.17 92.43 88.92 92.24 88.72 92 C 88.53 91.76 88.43 91.46 88.43 91.08 C 88.43 90.7 88.53 90.38 88.74 90.09 C 88.94 89.8 89.23 89.58 89.6 89.42 C 89.97 89.26 90.4 89.18 90.89 89.18 C 91.35 89.18 91.79 89.25 92.19 89.39 C 92.59 89.53 92.93 89.72 93.2 89.98 L 92.86 90.67 C 92.56 90.42 92.25 90.24 91.93 90.12 C 91.61 90 91.27 89.94 90.9 89.94 C 90.43 89.94 90.05 90.04 89.78 90.23 C 89.51 90.43 89.37 90.69 89.37 91.03 C 89.37 91.32 89.49 91.54 89.73 91.69 C 89.97 91.84 90.35 91.98 90.87 92.1 C 91.42 92.22 91.86 92.35 92.2 92.48 C 92.54 92.61 92.81 92.79 93.01 93.02 C 93.21 93.25 93.32 93.54 93.32 93.91 C 93.32 94.28 93.22 94.61 93.01 94.89 C 92.81 95.17 92.52 95.38 92.14 95.54 C 91.76 95.69 91.32 95.77 90.8 95.77 C 90.28 95.77 89.83 95.69 89.41 95.56 Z" fill="#003E52"/><path d=" M 104.28 95.68 L 104.28 90.02 L 102.05 90.02 L 102.05 89.24 L 107.47 89.24 L 107.47 90.02 L 105.24 90.02 L 105.24 95.68 L 104.28 95.68 Z" fill="#003E52"/><path d=" M 112.02 95.35 C 111.56 95.08 111.21 94.7 110.96 94.21 C 110.71 93.72 110.59 93.13 110.59 92.46 C 110.59 91.78 110.71 91.2 110.96 90.71 C 111.21 90.22 111.56 89.84 112.02 89.57 C 112.48 89.3 113.02 89.17 113.65 89.17 C 114.28 89.17 114.82 89.3 115.28 89.57 C 115.74 89.84 116.09 90.22 116.34 90.71 C 116.59 91.2 116.71 91.79 116.71 92.46 C 116.71 93.14 116.59 93.72 116.34 94.21 C 116.09 94.7 115.74 95.09 115.28 95.35 C 114.82 95.62 114.28 95.75 113.65 95.75 C 113.02 95.76 112.48 95.62 112.02 95.35 Z M 115.19 94.34 C 115.56 93.9 115.74 93.27 115.74 92.46 C 115.74 91.65 115.56 91.03 115.19 90.59 C 114.82 90.15 114.31 89.93 113.65 89.93 C 112.99 89.93 112.48 90.15 112.12 90.59 C 111.76 91.03 111.57 91.65 111.57 92.46 C 111.57 93.27 111.75 93.9 112.12 94.34 C 112.49 94.78 113 95 113.65 95 C 114.31 95 114.82 94.78 115.19 94.34 Z" fill="#003E52"/><path d=" M 131.55 92.27 L 131.55 95.31 C 131.27 95.45 130.92 95.56 130.5 95.64 C 130.08 95.72 129.65 95.76 129.21 95.76 C 128.54 95.76 127.97 95.63 127.48 95.37 C 126.99 95.11 126.62 94.73 126.37 94.24 C 126.11 93.75 125.99 93.15 125.99 92.47 C 125.99 91.79 126.12 91.21 126.37 90.72 C 126.63 90.23 126.99 89.85 127.47 89.59 C 127.95 89.33 128.51 89.2 129.16 89.2 C 129.62 89.2 130.05 89.27 130.44 89.4 C 130.83 89.54 131.17 89.73 131.44 89.98 L 131.1 90.68 C 130.79 90.43 130.48 90.25 130.18 90.14 C 129.88 90.03 129.54 89.98 129.17 89.98 C 128.45 89.98 127.91 90.19 127.54 90.62 C 127.17 91.05 126.98 91.67 126.98 92.48 C 126.98 93.32 127.17 93.95 127.55 94.38 C 127.93 94.81 128.5 95.03 129.24 95.03 C 129.74 95.03 130.22 94.96 130.68 94.81 L 130.68 93 L 129.15 93 L 129.15 92.29 L 131.55 92.29 Z" fill="#003E52"/><path d=" M 137.09 95.35 C 136.63 95.08 136.28 94.7 136.03 94.21 C 135.78 93.72 135.66 93.13 135.66 92.46 C 135.66 91.78 135.78 91.2 136.03 90.71 C 136.28 90.22 136.63 89.84 137.09 89.57 C 137.55 89.3 138.09 89.17 138.72 89.17 C 139.35 89.17 139.89 89.3 140.35 89.57 C 140.81 89.84 141.16 90.22 141.41 90.71 C 141.66 91.2 141.78 91.79 141.78 92.46 C 141.78 93.14 141.66 93.72 141.41 94.21 C 141.16 94.7 140.81 95.09 140.35 95.35 C 139.89 95.62 139.35 95.75 138.72 95.75 C 138.09 95.76 137.54 95.62 137.09 95.35 Z M 140.25 94.34 C 140.62 93.9 140.8 93.27 140.8 92.46 C 140.8 91.65 140.62 91.03 140.25 90.59 C 139.88 90.15 139.37 89.93 138.71 89.93 C 138.05 89.93 137.54 90.15 137.18 90.59 C 136.82 91.03 136.63 91.65 136.63 92.46 C 136.63 93.27 136.81 93.9 137.18 94.34 C 137.55 94.78 138.06 95 138.71 95 C 139.37 95 139.88 94.78 140.25 94.34 Z" fill="#003E52"/><path d=" M 156.04 92.93 C 156.25 93.2 156.35 93.54 156.35 93.93 C 156.35 94.48 156.15 94.92 155.76 95.22 C 155.37 95.53 154.82 95.68 154.12 95.68 L 151.27 95.68 L 151.27 89.24 L 154.02 89.24 C 154.7 89.24 155.23 89.39 155.61 89.68 C 155.99 89.98 156.18 90.39 156.18 90.92 C 156.18 91.26 156.09 91.56 155.91 91.81 C 155.73 92.06 155.47 92.24 155.15 92.36 C 155.54 92.47 155.83 92.66 156.04 92.93 Z M 152.22 92.04 L 153.88 92.04 C 154.8 92.04 155.26 91.69 155.26 91 C 155.26 90.33 154.8 90 153.88 90 L 152.22 90 L 152.22 92.04 Z M 155.09 94.68 C 155.31 94.51 155.42 94.24 155.42 93.88 C 155.42 93.51 155.31 93.24 155.08 93.06 C 154.85 92.88 154.51 92.79 154.03 92.79 L 152.22 92.79 L 152.22 94.93 L 154.03 94.93 C 154.52 94.93 154.87 94.85 155.09 94.68 Z" fill="#003E52"/><path d=" M 160.48 95.68 L 160.48 89.24 L 164.75 89.24 L 164.75 90 L 161.42 90 L 161.42 92.03 L 164.56 92.03 L 164.56 92.79 L 161.42 92.79 L 161.42 94.92 L 164.75 94.92 L 164.75 95.68 L 160.48 95.68 Z" fill="#003E52"/><path d=" M 173.95 89.25 L 171.32 93.1 L 171.32 95.69 L 170.36 95.69 L 170.36 93.09 L 167.74 89.26 L 168.83 89.26 L 170.85 92.3 L 172.86 89.26 L 173.95 89.26 Z" fill="#003E52"/><path d=" M 178.14 95.35 C 177.68 95.08 177.33 94.7 177.08 94.21 C 176.83 93.72 176.71 93.13 176.71 92.46 C 176.71 91.78 176.83 91.2 177.08 90.71 C 177.33 90.22 177.68 89.84 178.14 89.57 C 178.6 89.3 179.14 89.17 179.77 89.17 C 180.4 89.17 180.94 89.3 181.4 89.57 C 181.86 89.84 182.21 90.22 182.46 90.71 C 182.71 91.2 182.83 91.79 182.83 92.46 C 182.83 93.14 182.71 93.72 182.46 94.21 C 182.21 94.7 181.86 95.09 181.4 95.35 C 180.94 95.62 180.4 95.75 179.77 95.75 C 179.14 95.76 178.6 95.62 178.14 95.35 Z M 181.3 94.34 C 181.67 93.9 181.85 93.27 181.85 92.46 C 181.85 91.65 181.67 91.03 181.3 90.59 C 180.93 90.15 180.42 89.93 179.76 89.93 C 179.1 89.93 178.59 90.15 178.23 90.59 C 177.87 91.03 177.68 91.65 177.68 92.46 C 177.68 93.27 177.86 93.9 178.23 94.34 C 178.6 94.78 179.11 95 179.76 95 C 180.42 95 180.94 94.78 181.3 94.34 Z" fill="#003E52"/><path d=" M 191.5 89.25 L 192.4 89.25 L 192.4 95.69 L 191.67 95.69 L 187.9 90.82 L 187.9 95.69 L 187 95.69 L 187 89.25 L 187.72 89.25 L 191.5 94.12 L 191.5 89.25 Z" fill="#003E52"/><path d=" M 196.8 89.25 L 199.1 89.25 C 200.17 89.25 200.99 89.53 201.58 90.09 C 202.17 90.65 202.46 91.44 202.46 92.46 C 202.46 93.48 202.17 94.28 201.58 94.84 C 200.99 95.4 200.17 95.69 199.1 95.69 L 196.8 95.69 L 196.8 89.25 Z M 199.05 94.91 C 200.67 94.91 201.48 94.09 201.48 92.46 C 201.48 90.84 200.67 90.03 199.05 90.03 L 197.76 90.03 L 197.76 94.91 L 199.05 94.91 Z" fill="#003E52"/></g></g></svg>