<svg id="Layer_1" data-name="Layer 1" xmlns="http://www.w3.org/2000/svg" viewBox="0 0 746.74 746.74"><defs><style>.cls-1{fill:#eee045;}.cls-2{fill:#d3ba2b;}.cls-3{fill:#ede49c;}.cls-4{fill:#25316a;}.cls-5{fill:#e95a47;}.cls-6{fill:#e9393c;}.cls-7{fill:#ee7f72;}</style></defs><title>abertura</title><path class="cls-1" d="M345.64,826a9.45,9.45,0,0,0-5.49,1.91,32.51,32.51,0,0,1,7.32-1.7,8.63,8.63,0,0,0-1.83-.21Z" transform="translate(-61.22 -200.01)"/><path class="cls-2" d="M384.08,789.52V211a132.45,132.45,0,0,0-22,1.85V789.52c13,12.35,22,38.73,22,69.37,0,41.16-16.17,74.76-36.51,76.78a76.82,76.82,0,0,0,36.51-146.15Z" transform="translate(-61.22 -200.01)"/><path class="cls-3" d="M307.21,860.09c-.24-31.16,8.82-58.07,22-70.57V600.83c0-18.2-7.37-33-16.47-33s-16.47-14.74-16.47-32.94V342.77c0-57.38,18.34-106.16,43.93-124.25A131.8,131.8,0,0,0,252.3,342.77V534.94a32.94,32.94,0,0,0,32.95,32.94,33,33,0,0,1,32.94,33V789.51a76.81,76.81,0,0,0-43.92,70.58c.57,37.66,29.17,69.54,65.88,74.86C321.8,929.63,307.5,897.75,307.21,860.09Z" transform="translate(-61.22 -200.01)"/><path class="cls-1" d="M384.08,858.89c0-30.64-9-57-22-69.37V212.84a131.87,131.87,0,0,0-22,5.67c-25.59,18.1-43.92,66.88-43.92,124.26V534.94c0,18.2,7.37,32.94,16.47,32.94s16.47,14.75,16.47,33V789.51C316,802,307,828.93,307.21,860.09c.28,37.66,14.58,69.54,32.94,74.86,2.2.31,4.41.57,6.66.69.26,0,.51,0,.76,0C367.91,933.65,384.08,900.05,384.08,858.89Zm-38.44,33a9.46,9.46,0,0,1-5.49-1.92,32.9,32.9,0,0,1,0-62.06,9.45,9.45,0,0,1,5.49-1.91,8.63,8.63,0,0,1,1.83.21,34.09,34.09,0,0,1,3.66-.21,32.95,32.95,0,1,1,0,65.89,31.82,31.82,0,0,1-3.66-.22A8,8,0,0,1,345.64,891.84Z" transform="translate(-61.22 -200.01)"/><path class="cls-4" d="M351.2,946.75c-1.66,0-3.32,0-5-.14a87.79,87.79,0,0,1-39-163.71V600.83a22,22,0,0,0-22-22,44,44,0,0,1-43.93-43.93V342.77c0-78.72,64-142.76,142.76-142.76a11,11,0,0,1,11,11V782.9a88.3,88.3,0,0,1,43.92,76,87.85,87.85,0,0,1-87.78,87.86Zm21.9-724.29A121,121,0,0,0,263.29,342.77V534.94a22,22,0,0,0,22,22,44,44,0,0,1,43.92,43.93V789.52a11,11,0,0,1-6.26,9.91,65.86,65.86,0,1,0,73.51,107.32A65.35,65.35,0,0,0,417,858.89a66.19,66.19,0,0,0-37.66-59.45,11,11,0,0,1-6.26-9.92Zm-22,680.36a43.93,43.93,0,1,1,43.93-43.93A44,44,0,0,1,351.13,902.82Zm0-65.89a22,22,0,1,0,22,22A22,22,0,0,0,351.13,836.93Z" transform="translate(-61.22 -200.01)"/><path class="cls-1" d="M185,733.2a9.47,9.47,0,0,1,1.08,5.71,32.68,32.68,0,0,0-2.19-7.19A8.8,8.8,0,0,1,185,733.2Z" transform="translate(-61.22 -200.01)"/><path class="cls-1" d="M128,766.15a8.38,8.38,0,0,1-.73-1.69,32.69,32.69,0,0,0,5.13,5.49A9.52,9.52,0,0,1,128,766.15Z" transform="translate(-61.22 -200.01)"/><path class="cls-2" d="M197.33,681.7,389.28,570.89l38-22,271-156.48a132.2,132.2,0,0,1,9.37,19.95L438.3,567.94l-38,22L208.32,700.72c-17.18-5.06-44.52.35-71.06,15.67C101.61,737,80.6,767.78,89,786.39A76.82,76.82,0,0,1,197.33,681.7Z" transform="translate(-61.22 -200.01)"/><path class="cls-3" d="M174.66,783.56c27.1-15.37,45.87-36.67,50.13-54.31L388.2,634.91c15.76-9.1,32.22-10.09,36.76-2.21s21,6.89,36.77-2.21l166.43-96.08c49.68-28.69,82.76-69,85.63-100.17a131.81,131.81,0,0,1-63.67,138.2L483.69,668.53a32.93,32.93,0,0,1-45-12.06,32.94,32.94,0,0,0-45-12.06L230.28,738.76a76.78,76.78,0,0,1-39.16,73.32c-32.9,18.34-74.81,9.51-97.77-19.62,13.78,13.24,48.55,9.68,81.31-8.9Z" transform="translate(-61.22 -200.01)"/><path class="cls-1" d="M93.36,792.46a19.45,19.45,0,0,1-2.27-2.54A20,20,0,0,1,89,786.39c.14.21.26.43.4.65C90.65,788.93,92,790.72,93.36,792.46Z" transform="translate(-61.22 -200.01)"/><path class="cls-1" d="M89,786.39c.14.21.26.43.4.65,1.23,1.89,2.56,3.68,3.94,5.42,13.77,13.24,48.54,9.68,81.3-8.9,27.1-15.37,45.87-36.67,50.13-54.3L388.2,634.91c15.76-9.09,32.22-10.08,36.76-2.21s21,6.9,36.77-2.2l166.43-96.09c49.68-28.69,82.76-69,85.63-100.17a130,130,0,0,0-6.07-21.86L438.29,567.94l-38,22L208.32,700.72c-17.18-5.06-44.52.35-71.06,15.67C101.61,737,80.6,767.78,89,786.39Zm38.19-21.93a35.87,35.87,0,0,1-2-3.06,32.95,32.95,0,1,1,57.06-32.95,33.44,33.44,0,0,1,1.64,3.28,8,8,0,0,1,1.1,1.48,9.46,9.46,0,0,1,1.09,5.71,32.91,32.91,0,0,1-53.75,31,9.57,9.57,0,0,1-4.4-3.8,9.69,9.69,0,0,1-.73-1.69Z" transform="translate(-61.22 -200.01)"/><path class="cls-4" d="M153.92,832.72a87.81,87.81,0,1,1,43.65-163.84l495.3-285.95a11,11,0,0,1,15,4,142.77,142.77,0,0,1-52.26,195L489.19,678a44,44,0,0,1-60-16.07,22,22,0,0,0-30-8L241.51,745a87.62,87.62,0,0,1-87.59,87.76Zm-.34-153.59a65.85,65.85,0,1,0,65.76,60.5,11,11,0,0,1,5.46-10.38l163.4-94.34a43.93,43.93,0,0,1,60,16.08,22,22,0,0,0,30,8l166.43-96.09a120.83,120.83,0,0,0,49.28-155.26L202.83,691.21a11,11,0,0,1-11.72-.47,66.26,66.26,0,0,0-37.53-11.61Zm-38.28-.78h0Zm38.5,110.52A44,44,0,1,1,175.69,783a43.85,43.85,0,0,1-21.89,5.91Zm-11.05-63a22,22,0,1,0,30,8A22,22,0,0,0,142.75,725.9Z" transform="translate(-61.22 -200.01)"/><circle class="cls-5" cx="282.9" cy="439.06" r="21.83"/><path class="cls-4" d="M344.07,671.9a32.9,32.9,0,1,1,8.55-1.13A33.37,33.37,0,0,1,344.07,671.9Zm.07-43.69a10.86,10.86,0,1,0,2.79,21.34,10.86,10.86,0,0,0-2.79-21.34Z" transform="translate(-61.22 -200.01)"/><path class="cls-6" d="M252.3,534.94V444.79H193.89v90.15A84.42,84.42,0,0,0,196,554.6h62.8A32.57,32.57,0,0,1,252.3,534.94Z" transform="translate(-61.22 -200.01)"/><path class="cls-7" d="M72.2,444.79l31.4,54.9L72.2,554.6H135V444.79Z" transform="translate(-61.22 -200.01)"/><path class="cls-5" d="M193.89,444.79H135V554.6h61a84.42,84.42,0,0,1-2.13-19.66V444.79Z" transform="translate(-61.22 -200.01)"/><path class="cls-6" d="M665.2,444.79V554.6H797l-31.4-54.91,31.4-54.9Z" transform="translate(-61.22 -200.01)"/><path class="cls-7" d="M384.08,444.79H515.86V554.6H384.08Z" transform="translate(-61.22 -200.01)"/><path class="cls-5" d="M515.86,444.79H665.2V554.6H515.86Z" transform="translate(-61.22 -200.01)"/><path class="cls-4" d="M258.82,565.58H72.2a11,11,0,0,1-9.53-16.43L91,499.69,62.67,450.24a11,11,0,0,1,9.54-16.44H252.3a11,11,0,0,1,11,11v90.15A21.53,21.53,0,0,0,267.6,548a11,11,0,0,1-8.78,17.58Zm-167.69-22h151a44.59,44.59,0,0,1-.85-8.68V455.77H91.13l22,38.47a11,11,0,0,1,0,10.91Z" transform="translate(-61.22 -200.01)"/><path class="cls-4" d="M797,565.58H384.08a11,11,0,0,1-11-11V444.79a11,11,0,0,1,11-11H797a11,11,0,0,1,9.53,16.44l-28.28,49.45,28.28,49.46A11,11,0,0,1,797,565.58Zm-401.92-22h383l-22-38.48a11,11,0,0,1,0-10.9l22-38.48h-383Z" transform="translate(-61.22 -200.01)"/></svg>