<?xml version="1.0" encoding="utf-8"?>
<!-- Generator: Adobe Illustrator 23.1.0, SVG Export Plug-In . SVG Version: 6.00 Build 0)  -->
<svg version="1.1" id="Capa_1" xmlns="http://www.w3.org/2000/svg" xmlns:xlink="http://www.w3.org/1999/xlink" x="0px" y="0px"
	 viewBox="0 0 477.9 477.9" style="enable-background:new 0 0 477.9 477.9;" xml:space="preserve">
<style type="text/css">
	.st0{fill:#FFFFFF;}
</style>
<g>
	<g>
		<path class="st0" d="M187.7,102.9V17.1c0-9.4-7.6-17.1-17.1-17.1c-4.8,0-9.4,2.1-12.7,5.6L4.4,176.3c-5.6,6.3-5.8,15.7-0.5,22.2
			l153.6,187.7c6,7.3,16.7,8.4,24,2.4c4-3.2,6.2-8.1,6.3-13.2v-85c134.8,4.4,219,62,256.9,175.8c2.3,7,8.8,11.7,16.2,11.7
			c0.9,0,1.8-0.1,2.7-0.2c8.3-1.3,14.3-8.5,14.3-16.8C477.9,259.8,356.9,112.2,187.7,102.9z"/>
	</g>
</g>
</svg>
