<svg id="Layer_1" enable-background="new 0 0 512.028 512.028" height="512" viewBox="0 0 512.028 512.028" width="512" xmlns="http://www.w3.org/2000/svg"><g><g><path d="m512.028 142.949h-30v-45.004h-45.033v-30h75.033z" fill="#a5e887"/></g><g><path d="m30 142.949h-30v-75.004h75.034v30h-45.034z" fill="#a5e887"/></g><g><path d="m512.028 444.083h-75.033v-30h45.033v-45.003h30z" fill="#a5e887"/></g><g><path d="m75.034 444.083h-75.034v-75.003h30v45.003h45.034z" fill="#a5e887"/></g><g><path d="m64.264 125.792h30v260.443h-30z" fill="#607882"/></g><g><path d="m123.179 125.792h30v200.439h-30z" fill="#607882"/></g><g><path d="m182.095 125.792h30v200.439h-30z" fill="#607882"/></g><g><path d="m241.01 125.792h30v260.443h-30z" fill="#607882"/></g><g><path d="m299.926 125.792h30v260.443h-30z" fill="#607882"/></g><g><path d="m417.757 125.792h30v260.443h-30z" fill="#607882"/></g><g><path d="m358.841 125.792h30v200.439h-30z" fill="#607882"/></g><g><path d="m123.179 356.234h30v30.002h-30z" fill="#607882"/></g><g><path d="m182.095 356.234h30v30.002h-30z" fill="#607882"/></g><g><path d="m358.841 356.234h30v30.002h-30z" fill="#607882"/></g><g><path d="m512.028 142.949h-30v-45.004h-45.033v-30h75.033z" fill="#00cc76"/></g><g><path d="m512.028 444.083h-75.033v-30h45.033v-45.003h30z" fill="#00cc76"/></g><g><path d="m299.926 125.792h30v260.443h-30z" fill="#495959"/></g><g><path d="m417.757 125.792h30v260.443h-30z" fill="#495959"/></g><g><path d="m358.841 125.792h30v200.439h-30z" fill="#495959"/></g><g><path d="m358.841 356.234h30v30.002h-30z" fill="#495959"/></g><path d="m256.01 125.792h15v260.443h-15z" fill="#495959"/></g></svg>