<?xml version="1.0" encoding="utf-8"?>
<!-- Generator: Adobe Illustrator 23.1.0, SVG Export Plug-In . SVG Version: 6.00 Build 0)  -->
<svg version="1.1" id="Layer_1" xmlns="http://www.w3.org/2000/svg" xmlns:xlink="http://www.w3.org/1999/xlink" x="0px" y="0px"
	 viewBox="0 0 469.3 469.3" style="enable-background:new 0 0 469.3 469.3;" xml:space="preserve">
<style type="text/css">
	.st0{fill:#FFFFFF;}
</style>
<g>
	<g>
		<g>
			<circle class="st0" cx="234.7" cy="128" r="128"/>
			<path class="st0" d="M416.8,325.4c-20.2-10.3-52.3-24.9-90.7-35.2c-5.3-1.5-11,1.5-12.8,6.7l-43.7,122l-13.2-66.2l20.4-61.3
				c1.1-3.3,0.5-6.8-1.5-9.6c-2-2.8-5.2-4.4-8.6-4.4h-64c-3.4,0-6.6,1.6-8.6,4.4c-2,2.8-2.6,6.4-1.5,9.6l20.4,61.3l-13.2,66.2
				l-43.7-122c-1.9-5.2-7.5-8.2-12.8-6.7c-38.4,10.4-70.5,24.9-90.7,35.2C20.1,342.1,0,374.9,0,411.1v15.6
				c0,23.5,19.1,42.7,42.7,42.7h160h64h160c23.5,0,42.7-19.1,42.7-42.7v-15.6C469.3,374.9,449.2,342.1,416.8,325.4z"/>
		</g>
	</g>
</g>
</svg>
