<svg id="Capa_1" enable-background="new 0 0 512 512" height="512" viewBox="0 0 512 512" width="512" xmlns="http://www.w3.org/2000/svg"><g><g><g><g><g><g><path d="m376.056 0h-145.819l-28.159 37.326v442.09l28.159 32.584h145.819c12.067 0 21.85-9.782 21.85-21.85v-468.3c0-12.068-9.782-21.85-21.85-21.85z" fill="#f4fbff"/><path d="m434.951 0h-65.26c12.067 0 21.85 9.782 21.85 21.85v468.3c0 12.067-9.782 21.85-21.85 21.85h65.26c12.067 0 21.85-9.782 21.85-21.85v-468.3c0-12.068-9.783-21.85-21.85-21.85z" fill="#e4f6ff"/><path d="m230.237 0h-153.188c-12.067 0-21.85 9.782-21.85 21.85v468.3c0 12.067 9.783 21.85 21.85 21.85h153.188z" fill="#8fddc1"/></g></g></g></g><g><g><g><path d="m311.854 150.449c-21.267 0-38.569-17.303-38.569-38.569s17.302-38.568 38.569-38.568c7.728 0 15.187 2.279 21.569 6.591 3.537 2.389 4.468 7.194 2.078 10.731-2.389 3.537-7.194 4.466-10.731 2.078-3.818-2.579-8.284-3.942-12.916-3.942-12.743 0-23.111 10.368-23.111 23.11 0 12.744 10.368 23.111 23.111 23.111 4.716 0 8.681-1.402 11.785-4.166.606-.54 1.186-1.138 1.72-1.776 2.741-3.271 7.617-3.701 10.888-.958 3.271 2.742 3.7 7.617.958 10.889-1.015 1.211-2.12 2.351-3.285 3.388-5.936 5.286-13.566 8.081-22.066 8.081z" fill="#eabc6b"/></g></g><g><g><path d="m388.795 150.448c-3.854 0-7.303-2.431-8.595-6.068l-21.107-60.805c-1.399-4.033.735-8.435 4.767-9.835 4.032-1.402 8.436.734 9.836 4.767l14.966 43.117 14.254-42.907c1.346-4.052 5.719-6.246 9.771-4.898 4.051 1.346 6.244 5.72 4.899 9.771l-20.139 60.623c-1.267 3.725-4.712 6.209-8.591 6.235-.02 0-.041 0-.061 0z" fill="#eabc6b"/></g></g></g><g><g><circle cx="142.816" cy="111.88" fill="#ffe07d" r="53.55"/><path d="m142.816 124.512c-17.067 0-31.47 11.367-36.075 26.941 9.518 8.681 22.177 13.977 36.075 13.977s26.557-5.296 36.075-13.977c-4.605-15.574-19.008-26.941-36.075-26.941z" fill="#407093"/><circle cx="142.816" cy="110.323" fill="#365e7d" r="18.949"/></g></g><g fill="#ffe07d"><path d="m187.599 278.376h-89.565c-4.951 0-8.964-4.013-8.964-8.964v-22.082c0-4.951 4.013-8.964 8.964-8.964h89.565c4.951 0 8.964 4.013 8.964 8.964v22.081c0 4.951-4.013 8.965-8.964 8.965z"/><path d="m187.599 360.288h-89.565c-4.951 0-8.964-4.013-8.964-8.964v-22.081c0-4.951 4.013-8.964 8.964-8.964h89.565c4.951 0 8.964 4.013 8.964 8.964v22.081c0 4.951-4.013 8.964-8.964 8.964z"/><path d="m187.599 442.201h-89.565c-4.951 0-8.964-4.013-8.964-8.964v-22.081c0-4.951 4.013-8.964 8.964-8.964h89.565c4.951 0 8.964 4.013 8.964 8.964v22.081c0 4.951-4.013 8.964-8.964 8.964z"/></g><g><g><g><path d="m415.597 259.028h-144.954c-4.269 0-7.729-3.46-7.729-7.729s3.46-7.729 7.729-7.729h144.953c4.269 0 7.729 3.46 7.729 7.729.001 4.269-3.46 7.729-7.728 7.729z" fill="#407093"/></g><g><path d="m343.12 306.437h-72.477c-4.269 0-7.729-3.46-7.729-7.729s3.46-7.729 7.729-7.729h72.477c4.269 0 7.729 3.46 7.729 7.729s-3.46 7.729-7.729 7.729z" fill="#407093"/></g><g><path d="m415.597 353.847h-144.954c-4.269 0-7.729-3.46-7.729-7.729s3.46-7.729 7.729-7.729h144.953c4.269 0 7.729 3.46 7.729 7.729.001 4.269-3.46 7.729-7.728 7.729z" fill="#407093"/></g><g><path d="m415.597 401.256h-144.954c-4.269 0-7.729-3.46-7.729-7.729s3.46-7.729 7.729-7.729h144.953c4.269 0 7.729 3.46 7.729 7.729s-3.46 7.729-7.728 7.729z" fill="#407093"/></g><g><path d="m343.12 449.93h-72.477c-4.269 0-7.729-3.46-7.729-7.729s3.46-7.729 7.729-7.729h72.477c4.269 0 7.729 3.46 7.729 7.729s-3.46 7.729-7.729 7.729z" fill="#407093"/></g></g><g><g><path d="m415.597 211.619h-144.954c-4.269 0-7.729-3.46-7.729-7.729s3.46-7.729 7.729-7.729h144.953c4.269 0 7.729 3.46 7.729 7.729.001 4.269-3.46 7.729-7.728 7.729z" fill="#407093"/></g></g></g></g></g></svg>