<svg id="Layer_1" data-name="Layer 1" xmlns="http://www.w3.org/2000/svg" viewBox="0 0 718.58 605.64"><defs><style>.cls-1{fill:#98c8ec;}.cls-2{fill:#7cb8e5;}.cls-3{fill:#bad7f1;}.cls-4{fill:#d0e6f7;}.cls-5{fill:#feea99;}.cls-6{fill:#ffe478;}.cls-7{fill:#fff5cc;}.cls-8{fill:#fff;}.cls-9{fill:#fddd56;}</style></defs><title>glasses</title><ellipse class="cls-1" cx="721.82" cy="919.61" rx="70.99" ry="26.95" transform="translate(-434.61 141.57) rotate(-30.76)"/><path class="cls-2" d="M742.22,938.62c-2.15,1.4-4.34,2.77-6.6,4.12-33.7,20-67.18,26-74.79,13.16s13.53-39.42,47.22-59.47q2-1.15,3.91-2.25C715.57,919.7,729.17,932.36,742.22,938.62Z" transform="translate(-65.8 -357.04)"/><path class="cls-3" d="M656.42,733.62s-13.89,19.14,9.83,59L728.86,897.8s9.52,14.33-6,23.55-23.55-6-23.55-6L636.73,810.19c-23.72-39.85-47.17-36.78-47.17-36.78Z" transform="translate(-65.8 -357.04)"/><path class="cls-1" d="M664,788.63a138.9,138.9,0,0,1-29.66,17.65c-22.87-35.73-44.75-32.87-44.75-32.87l66.86-39.79S643.47,751.49,664,788.63Z" transform="translate(-65.8 -357.04)"/><path class="cls-4" d="M428.63,492.84l57.9-34.46a29.45,29.45,0,0,1,36.1,4.7c53.9,55,215,233.36,105.26,298.67S438.17,600.4,415.54,526.82A29.46,29.46,0,0,1,428.63,492.84Z" transform="translate(-65.8 -357.04)"/><path class="cls-3" d="M476.29,489.13a29.47,29.47,0,0,1,6.37-28.45l-54,32.16a29.44,29.44,0,0,0-13.09,34c22.63,73.59,102.62,300.25,212.35,234.94,12.46-7.42,21.42-16.3,27.45-26.28C562.86,743.79,496.56,555.05,476.29,489.13Z" transform="translate(-65.8 -357.04)"/><path class="cls-5" d="M627.89,761.75c-77.36,46-139.93-53-178-141.26l136.9-85C646.79,611.32,706.06,715.22,627.89,761.75Z" transform="translate(-65.8 -357.04)"/><path class="cls-6" d="M510.58,582.79l-60.74,37.7C488,708.73,550.53,807.79,627.89,761.75c12.46-7.42,21.42-16.29,27.45-26.28C593.31,741.05,543.07,658,510.58,582.79Z" transform="translate(-65.8 -357.04)"/><path class="cls-7" d="M517.59,535.19c-37.33,65.32-67.75,85.3-67.75,85.3,47.51,20.9,100.6-6.39,122.39-19.36a45.92,45.92,0,0,0,16-62.94C568.2,504.59,530.17,513.17,517.59,535.19Z" transform="translate(-65.8 -357.04)"/><path class="cls-5" d="M449.84,620.49c26.66,11.73,55.08,8.28,78.74.7-10.21-20-19.24-40.63-27-60C472,605.94,449.84,620.49,449.84,620.49Z" transform="translate(-65.8 -357.04)"/><circle class="cls-8" cx="508.32" cy="286.58" r="10.84"/><circle class="cls-8" cx="486.78" cy="362.06" r="10.84"/><circle class="cls-8" cx="560.96" cy="331.91" r="10.84"/><ellipse class="cls-1" cx="128.36" cy="919.59" rx="26.95" ry="70.99" transform="translate(-793.29 202.48) rotate(-59.24)"/><path class="cls-2" d="M148.74,900.55c-2.14-1.4-4.34-2.78-6.59-4.12-33.7-20.06-67.18-25.95-74.79-13.16s13.53,39.41,47.22,59.47q2,1.15,3.91,2.25C122.09,919.47,135.7,906.81,148.74,900.55Z" transform="translate(-65.8 -357.04)"/><path class="cls-3" d="M193.79,733.62s13.88,19.14-9.84,59L121.34,897.8s-9.52,14.33,6,23.55,23.55-6,23.55-6l62.61-105.19c23.73-39.85,47.17-36.78,47.17-36.78Z" transform="translate(-65.8 -357.04)"/><path class="cls-1" d="M186.23,788.63a138.9,138.9,0,0,0,29.66,17.65c22.87-35.73,44.75-32.87,44.75-32.87l-66.85-39.79S206.73,751.49,186.23,788.63Z" transform="translate(-65.8 -357.04)"/><path class="cls-4" d="M421.57,492.84l-57.89-34.46a29.46,29.46,0,0,0-36.11,4.7c-53.89,55-215,233.36-105.26,298.67S412,600.4,434.66,526.82A29.46,29.46,0,0,0,421.57,492.84Z" transform="translate(-65.8 -357.04)"/><path class="cls-3" d="M384.35,496.87a29.44,29.44,0,0,1,36.1-4.7l-56.77-33.79a29.46,29.46,0,0,0-36.11,4.7c-53.89,55-215,233.36-105.26,298.67,10.89,6.48,21.48,10.08,31.75,11.24C200.27,696.05,335.79,546.39,384.35,496.87Z" transform="translate(-65.8 -357.04)"/><path class="cls-5" d="M222.31,761.75c77.36,46,139.94-53,178.06-141.26l-136.91-85C203.41,611.32,144.14,715.22,222.31,761.75Z" transform="translate(-65.8 -357.04)"/><path class="cls-6" d="M319.46,570.28l-56-34.76c-60,75.8-119.31,179.7-41.14,226.23,10.89,6.48,21.48,10.09,31.76,11.25C217.62,720.88,268,635.41,319.46,570.28Z" transform="translate(-65.8 -357.04)"/><path class="cls-7" d="M332.61,535.19c37.33,65.32,67.75,85.3,67.75,85.3-47.5,20.9-100.6-6.39-122.39-19.36a45.92,45.92,0,0,1-16-62.94C282,504.59,320,513.17,332.61,535.19Z" transform="translate(-65.8 -357.04)"/><path class="cls-5" d="M332.61,535.19c-12.58-22-50.61-30.6-70.61,3a45.92,45.92,0,0,0,16,62.94c3.64,2.16,8.16,4.73,13.37,7.4a726.3,726.3,0,0,1,47.81-62.24C337,542.74,334.82,539.05,332.61,535.19Z" transform="translate(-65.8 -357.04)"/><circle class="cls-8" cx="231.54" cy="351.4" r="10.84"/><circle class="cls-8" cx="231.54" cy="297.43" r="10.84"/><path class="cls-5" d="M442.62,374.56c0,9.68-7.84,51.77-17.52,51.77s-17.52-42.09-17.52-51.77a17.52,17.52,0,1,1,35,0Z" transform="translate(-65.8 -357.04)"/><path class="cls-9" d="M425.1,374.56a17.49,17.49,0,0,1,8.76-15.15,17.49,17.49,0,0,0-26.28,15.16c0,9.67,7.84,51.76,17.52,51.76,3.19,0,6.18-4.59,8.76-11.08C428.63,402.07,425.1,381.05,425.1,374.56Z" transform="translate(-65.8 -357.04)"/><path class="cls-5" d="M375,396.44c7.05,6.63,20.45,30,13.82,37S358.06,428.6,351,422a17.52,17.52,0,1,1,24-25.53Z" transform="translate(-65.8 -357.04)"/><path class="cls-9" d="M363.33,409a17.48,17.48,0,0,1-5.06-16.67A17.49,17.49,0,0,0,351,422c7.05,6.63,31.2,18.56,37.83,11.51,2.22-2.37,2.18-6.58.89-11.37C380.12,420.11,368,413.41,363.33,409Z" transform="translate(-65.8 -357.04)"/><path class="cls-5" d="M475.2,396.44c-7.05,6.63-20.45,30-13.82,37S492.15,428.6,499.2,422a17.52,17.52,0,0,0-24-25.53Z" transform="translate(-65.8 -357.04)"/><path class="cls-9" d="M486.9,409.11a17.51,17.51,0,0,1,17.33-3.92,17.31,17.31,0,0,0-4.27-8,17.51,17.51,0,0,0-24.76-.77c-7.05,6.63-20.45,30-13.82,37,2.13,2.27,6.09,2.57,10.7,1.71C474.53,425.64,482.15,413.57,486.9,409.11Z" transform="translate(-65.8 -357.04)"/></svg>