<svg xmlns="http://www.w3.org/2000/svg" height="512pt" version="1.1" viewBox="0 -5 512.00074 512" width="512pt">
<g id="surface1">
<path d="M 131.988281 228.570312 L 71.953125 193.25 L 256 301.660156 Z M 131.988281 228.570312 " style=" stroke:none;fill-rule:nonzero;fill:rgb(100%,88.627451%,43.137255%);fill-opacity:1;" />
<path d="M 256 301.660156 L 440.046875 193.25 L 380.011719 228.570312 Z M 256 301.660156 " style=" stroke:none;fill-rule:nonzero;fill:rgb(100%,88.627451%,43.137255%);fill-opacity:1;" />
<path d="M 0 150.832031 L 45.179688 177.464844 C 50.851562 170.671875 58.894531 166.289062 67.675781 165.195312 L 256 142.066406 L 67.675781 165.203125 C 58.894531 166.296875 50.851562 170.683594 45.179688 177.476562 L 71.953125 193.25 L 131.988281 228.570312 L 256 301.664062 L 380.011719 228.570312 L 440.046875 193.25 L 512 150.832031 L 256 0 Z M 0 150.832031 " style=" stroke:none;fill-rule:nonzero;fill:rgb(58.823529%,78.823529%,93.72549%);fill-opacity:1;" />
<path d="M 54.425781 483.867188 L 36.898438 387.460938 L 1.839844 501.394531 Z M 54.425781 483.867188 " style=" stroke:none;fill-rule:nonzero;fill:rgb(33.333333%,63.529412%,100%);fill-opacity:1;" />
<path d="M 71.953125 193.25 L 71.953125 299.820312 C 71.953125 328.65625 96.054688 354.507812 134.265625 372.125 C 172.683594 388.679688 214.175781 396.894531 256 396.226562 L 256 301.660156 Z M 71.953125 193.25 " style=" stroke:none;fill-rule:nonzero;fill:rgb(81.568627%,90.196078%,97.254902%);fill-opacity:1;" />
<path d="M 256 301.660156 L 256 396.226562 C 297.824219 396.894531 339.316406 388.679688 377.734375 372.125 C 415.945312 354.507812 440.046875 328.65625 440.046875 299.820312 L 440.046875 193.25 Z M 256 301.660156 " style=" stroke:none;fill-rule:nonzero;fill:rgb(85.882353%,92.54902%,98.039216%);fill-opacity:1;" />
<path d="M 36.898438 352.40625 C 32.058594 352.40625 28.132812 348.480469 28.132812 343.640625 L 28.132812 199.996094 C 28.160156 177.871094 44.65625 159.222656 66.617188 156.5 L 254.929688 133.363281 C 259.738281 132.773438 264.113281 136.191406 264.703125 141 C 265.292969 145.804688 261.875 150.179688 257.070312 150.769531 L 68.753906 173.90625 C 55.570312 175.523438 45.664062 186.71875 45.660156 199.996094 L 45.660156 343.640625 C 45.660156 348.480469 41.738281 352.40625 36.898438 352.40625 Z M 36.898438 352.40625 " style=" stroke:none;fill-rule:nonzero;fill:rgb(34.117647%,64.313725%,100%);fill-opacity:1;" />
<path d="M 71.953125 369.933594 C 71.953125 389.296875 56.257812 404.992188 36.898438 404.992188 C 17.535156 404.992188 1.839844 389.296875 1.839844 369.933594 C 1.839844 350.574219 17.535156 334.878906 36.898438 334.878906 C 56.257812 334.878906 71.953125 350.574219 71.953125 369.933594 Z M 71.953125 369.933594 " style=" stroke:none;fill-rule:nonzero;fill:rgb(22.352941%,55.294118%,95.294118%);fill-opacity:1;" />
</g>
</svg>