<?xml version="1.0" encoding="utf-8"?>
<!-- Generator: Adobe Illustrator 23.1.0, SVG Export Plug-In . SVG Version: 6.00 Build 0)  -->
<svg version="1.1" id="Layer_1" xmlns="http://www.w3.org/2000/svg" xmlns:xlink="http://www.w3.org/1999/xlink" x="0px" y="0px"
	 viewBox="0 0 85 28.3" style="enable-background:new 0 0 85 28.3;" xml:space="preserve">
<style type="text/css">
	.st0{fill:#1B9DD9;}
	.st1{fill-rule:evenodd;clip-rule:evenodd;}
	.st2{fill-rule:evenodd;clip-rule:evenodd;fill:#1B9DD9;}
</style>
<g id="Camada_1">
	<g id="XMLID_67_">
		<g id="XMLID_78_">
			<path id="XMLID_141_" class="st0" d="M5.2,26.7v-2.8h1.7v0.4H5.7V25h1v0.4h-1v0.8H7v0.4H5.2V26.7z"/>
			<path id="XMLID_139_" class="st0" d="M10.4,26.7l-1.5-2v2H8.4v-2.8h0.5l1.5,2v-2h0.5v2.8H10.4z"/>
			<path id="XMLID_137_" class="st0" d="M14.4,26.7c-0.1,0-0.3,0.1-0.6,0.1c-1,0-1.6-0.6-1.6-1.5c0-0.7,0.6-1.5,1.5-1.5
				c0.4,0,0.6,0,1,0.2v0.5c-0.4-0.2-0.6-0.2-0.9-0.2c-0.5,0-1,0.4-1,1c0,0.7,0.5,1,1,1c0.2,0,0.3,0,0.4-0.1v-0.6h-0.5v-0.5h1v1.5
				C14.6,26.7,14.5,26.7,14.4,26.7z"/>
			<path id="XMLID_135_" class="st0" d="M16.3,26.7v-2.8h0.5v2.8H16.3z"/>
			<path id="XMLID_133_" class="st0" d="M20.3,26.7l-1.5-2v2h-0.5v-2.8h0.5l1.5,2v-2h0.5v2.8H20.3z"/>
			<path id="XMLID_131_" class="st0" d="M22.4,26.7v-2.8h1.7v0.4H23V25h1v0.4h-1v0.8h1.3v0.4h-1.9V26.7z"/>
			<path id="XMLID_129_" class="st0" d="M25.6,26.7v-2.8h1.7v0.4h-1.2V25h1v0.4h-1v0.8h1.3v0.4h-1.8V26.7z"/>
			<path id="XMLID_126_" class="st0" d="M30.3,26.7c-0.3-0.4-0.5-0.7-0.7-1.1h-0.2v1.1h-0.5v-2.8c0.3,0,0.6,0,0.8,0
				c0.6,0,1.1,0.2,1.1,0.9c0,0.4-0.3,0.7-0.6,0.8c0.2,0.4,0.5,0.7,0.8,1.2h-0.7V26.7z M29.6,24.3L29.6,24.3h-0.3v0.8h0.3
				c0.4,0,0.6-0.2,0.6-0.4C30.1,24.5,30,24.3,29.6,24.3z"/>
			<path id="XMLID_124_" class="st0" d="M32.1,26.7v-2.8h0.5v2.8H32.1z"/>
			<path id="XMLID_122_" class="st0" d="M36.2,26.7l-1.5-2v2h-0.5v-2.8h0.5l1.5,2v-2h0.5v2.8H36.2z"/>
			<path id="XMLID_118_" class="st0" d="M40.2,26.7c-0.1,0-0.3,0.1-0.6,0.1c-1,0-1.6-0.6-1.6-1.5c0-0.7,0.6-1.5,1.5-1.5
				c0.4,0,0.6,0,1,0.2v0.5c-0.4-0.2-0.6-0.2-0.9-0.2c-0.5,0-1,0.4-1,1c0,0.7,0.5,1,1,1c0.2,0,0.3,0,0.4-0.1v-0.6h-0.5v-0.5h1v1.5
				C40.4,26.7,40.3,26.7,40.2,26.7z"/>
			<path id="XMLID_103_" d="M46.7,27.5c-0.3,0-0.4,0-0.6-0.1c-0.2-0.1-0.4-0.4-0.6-0.6l-0.1-0.1c-0.2,0.2-0.5,0.2-0.8,0.2
				c-0.5,0-0.9-0.3-0.9-0.8c0-0.4,0.3-0.7,0.6-0.9c-0.2-0.3-0.3-0.4-0.3-0.6c0-0.4,0.4-0.7,0.8-0.7c0.5,0,0.7,0.3,0.7,0.6
				c0,0.4-0.3,0.6-0.5,0.8l0.5,0.8c0.2-0.2,0.2-0.4,0.3-0.7h-0.3V25h1.1v0.3h-0.3c-0.1,0.4-0.2,0.7-0.5,1c0.2,0.3,0.6,0.7,0.6,0.7
				s0.1,0,0.3,0V27.5z M44.6,25.4c-0.2,0.2-0.3,0.3-0.3,0.5c0,0.3,0.2,0.4,0.4,0.4s0.3,0,0.5-0.1L44.6,25.4z M44.8,24.2
				c-0.2,0-0.3,0.1-0.3,0.2s0.1,0.2,0.2,0.4c0.1-0.1,0.3-0.2,0.3-0.4C45.1,24.3,45,24.2,44.8,24.2z"/>
			<path id="XMLID_101_" d="M50.7,24.3v2.4h-0.5v-2.4h-0.8v-0.4h2.2v0.4H50.7z"/>
			<path id="XMLID_99_" d="M52.8,26.7v-2.8h1.7v0.4h-1.2V25h1v0.4h-1v0.8h1.3v0.4h-1.8V26.7z"/>
			<path id="XMLID_97_" d="M57.3,26.8c-0.7,0-1.5-0.5-1.5-1.5c0-0.8,0.7-1.5,1.5-1.5c0.4,0,0.6,0,0.9,0.2v0.5
				c-0.4-0.2-0.5-0.2-0.9-0.2c-0.5,0-0.9,0.4-0.9,1s0.4,1,1,1c0.3,0,0.4,0,0.8-0.2v0.5C57.9,26.8,57.6,26.8,57.3,26.8z"/>
			<path id="XMLID_95_" d="M61.6,26.7v-1.2H60v1.2h-0.5v-2.8H60v1.2h1.5v-1.2H62v2.8H61.6z"/>
			<path id="XMLID_93_" d="M66.6,24.3v2.4h-0.5v-2.4h-0.8v-0.4h2.2v0.4H66.6z"/>
			<path id="XMLID_90_" d="M70,26.7L69.8,26h-0.9l-0.2,0.7h-0.5l1.1-2.9h0.3l1,2.9H70z M69.3,24.8L69,25.6h0.6L69.3,24.8z"/>
			<path id="XMLID_88_" d="M71.7,26.7v-2.8h0.5v2.4h1.2v0.4H71.7z"/>
			<path id="XMLID_84_" d="M76.1,26.7c-0.2-0.3-0.6-1-0.9-1.3v1.3h-0.5v-2.8h0.5V25c0.4-0.3,0.6-0.8,0.9-1.1h0.6
				c-0.3,0.4-0.7,1-1.1,1.3c0.4,0.4,0.8,1.1,1.1,1.5H76.1z"/>
			<path id="XMLID_80_" d="M78.7,26.8c-0.3,0-0.6,0-0.8-0.2l0.1-0.5c0.3,0.2,0.5,0.2,0.8,0.2c0.2,0,0.4-0.2,0.4-0.4
				c0-0.2-0.3-0.3-0.5-0.4c-0.5-0.3-0.8-0.5-0.8-0.9c0-0.5,0.4-0.8,0.9-0.8c0.4,0,0.5,0,0.8,0.2v0.5c-0.4-0.2-0.5-0.2-0.8-0.2
				c-0.2,0-0.4,0.2-0.4,0.4c0,0.2,0.3,0.4,0.5,0.5c0.4,0.3,0.7,0.4,0.7,0.8C79.7,26.5,79.1,26.8,78.7,26.8z"/>
		</g>
		<polygon id="XMLID_76_" class="st1" points="5.2,19.3 5.2,13 8.3,13 8.3,16.2 16.1,16.2 16.1,3.9 13.4,3.9 13.4,0.9 21.9,0.9 
			21.9,3.8 19.1,3.8 19.1,19.3 		"/>
		<polygon id="XMLID_74_" class="st2" points="27.7,16.3 27.7,3.9 24.5,3.9 24.5,0.9 41.2,0.9 41.2,7 38.3,7 38.3,3.9 30.8,3.9 
			30.8,8.1 35.6,8.1 35.6,11.1 30.8,11.1 30.8,16.2 38.4,16.2 38.4,12.9 41.4,12.9 41.4,19.2 24.5,19.2 24.5,16.3 		"/>
		<polygon id="XMLID_73_" class="st1" points="47.2,16.3 47.2,3.9 44,3.9 44,0.9 60.7,0.9 60.7,7 57.8,7 57.8,3.9 50.3,3.9 
			50.3,8.1 55.1,8.1 55.1,11.1 50.3,11.1 50.3,16.2 58,16.2 58,12.9 60.9,12.9 60.9,19.2 44,19.2 44,16.3 		"/>
		<g id="JIBzxw_1_">
			<g id="XMLID_69_">
				<path id="XMLID_71_" class="st1" d="M63.5,0.9c5.3,0,10.6,0,15.9,0c0,2.1,0,4.1,0,6.1c-1,0-2,0-3,0c0-1,0-2.1,0-3.1
					c-3.3,0-6.6,0-9.9,0c0,4.1,0,8.2,0,12.3c3.4,0,6.9,0,10.3,0c0-1.1,0-2.2,0-3.3c1,0,2,0,3,0c0,2.1,0,4.2,0,6.3
					c-5.4,0-10.9,0-16.3,0C63.5,13.1,63.5,7,63.5,0.9z"/>
			</g>
		</g>
	</g>
</g>
</svg>
