<svg id="podium" xmlns="http://www.w3.org/2000/svg" width="301" height="301" viewBox="0 0 301 301">
  <path id="Path_25" data-name="Path 25" d="M225.117,104.17H186.834A45.012,45.012,0,0,1,145.3,77.353l-9.369-21.634a15.871,15.871,0,0,1,1.307-15.059A16.611,16.611,0,0,1,151.2,33.2H260.748a16.611,16.611,0,0,1,13.968,7.459,15.873,15.873,0,0,1,1.307,15.059l-9.369,21.634A45.012,45.012,0,0,1,225.117,104.17ZM151.2,41.139a8.7,8.7,0,0,0-7.327,3.875,7.826,7.826,0,0,0-.658,7.544l9.369,21.634a37.1,37.1,0,0,0,34.258,22.029h38.283a37.109,37.109,0,0,0,34.258-22.029l9.369-21.634a7.848,7.848,0,0,0-.658-7.544,8.715,8.715,0,0,0-7.327-3.875Z" transform="translate(-55.475 -13.682)" fill="#fdbc4b"/>
  <path id="Path_26" data-name="Path 26" d="M239.674,102.718a30.488,30.488,0,0,0-.376,24.231H204.457a30.726,30.726,0,0,0-.376-24.231c-17.853-31.464-28.52-53.55-30.881-85.07h97.345C268.194,49.159,257.527,71.245,239.674,102.718Z" transform="translate(-71.377 -7.273)" fill="#ffdb70"/>
  <path id="Path_27" data-name="Path 27" d="M259.519,203.52H210.786a5.359,5.359,0,0,0-5.362,5.362v4.158h59.457v-4.158A5.359,5.359,0,0,0,259.519,203.52Z" transform="translate(-84.657 -83.872)" fill="#fdbc4b"/>
  <path id="Path_28" data-name="Path 28" d="M263.346,219.712H188.962a5.359,5.359,0,0,0-5.362,5.362V248.4h85.1V225.074A5.345,5.345,0,0,0,263.346,219.712Z" transform="translate(-75.663 -90.545)" fill="#464646"/>
  <path id="Path_29" data-name="Path 29" d="M268.408,0H166.933a3.94,3.94,0,0,0-3.941,3.941v2.5a3.94,3.94,0,0,0,3.941,3.941H268.4a3.94,3.94,0,0,0,3.941-3.941v-2.5A3.932,3.932,0,0,0,268.408,0Z" transform="translate(-67.171)" fill="#fdbc4b"/>
  <path id="Path_30" data-name="Path 30" d="M225.853,96.362A6.387,6.387,0,0,0,219.495,90H209.345a5.329,5.329,0,0,1-5.362-5.362v-.5a5.06,5.06,0,0,1,5.051-5.362h21.249a6.675,6.675,0,0,0,6.791-5.982,6.45,6.45,0,0,0-6.415-6.735h-19.2A5.4,5.4,0,0,1,206.1,60.7l.066-.376V60.28a5.6,5.6,0,0,1,5.606-5.672h7.478a6.679,6.679,0,0,0,6.791-6.048,6.45,6.45,0,0,0-6.415-6.735h-9.039a5.438,5.438,0,0,1-5.362-5.672v-.132a5.472,5.472,0,0,1,5.362-5.672h16.141a6.564,6.564,0,0,0,6.669-5.982,6.362,6.362,0,0,0-6.359-6.735H173.216c2.361,31.483,13.028,53.6,30.862,85.08h15.6A6.3,6.3,0,0,0,225.853,96.362Z" transform="translate(-71.384 -7.266)" fill="#ffcc5b"/>
  <path id="Path_31" data-name="Path 31" d="M270.26,20.206c.075-.865.216-1.674.282-2.559H173.216c.066.884.207,1.693.282,2.559Z" transform="translate(-71.384 -7.273)" fill="#010101" opacity="0.1"/>
  <rect id="Rectangle_2" data-name="Rectangle 2" width="100.336" height="98.164" transform="translate(0 202.836)" fill="#f89e62"/>
  <rect id="Rectangle_3" data-name="Rectangle 3" width="100.336" height="143.69" transform="translate(100.336 157.31)" fill="#ed6362"/>
  <rect id="Rectangle_4" data-name="Rectangle 4" width="100.336" height="79.746" transform="translate(200.664 221.254)" fill="#f89e62"/>
  <path id="Path_32" data-name="Path 32" d="M292.287,267.584H236.668a8.547,8.547,0,0,0-8.748,7.779,8.309,8.309,0,0,0,8.259,8.748h5.8a8.326,8.326,0,0,1,8.343,8.748c-.245,4.459-4.289,7.854-8.748,7.854h-8.889a8.19,8.19,0,0,0-8.014,8.259,8.294,8.294,0,0,0,8.259,8.259h16.828a6.925,6.925,0,0,1,6.97,6.97v.649a6.576,6.576,0,0,1-6.566,6.961h-19a8.686,8.686,0,0,0-8.832,7.779,8.377,8.377,0,0,0,8.343,8.748h16.329a7.022,7.022,0,0,1,6.97,6.97l-.085.489v.085a7.273,7.273,0,0,1-7.29,7.375H231.315a8.691,8.691,0,0,0-8.832,7.854,8.377,8.377,0,0,0,8.343,8.748h17.317a7.063,7.063,0,0,1,6.97,7.374v.169a7.114,7.114,0,0,1-6.97,7.375H237.881a8.511,8.511,0,0,0-8.663,7.779,8.242,8.242,0,0,0,8.259,8.72H292.3V267.584Z" transform="translate(-91.623 -110.274)" fill="#e95454"/>
  <path id="Path_33" data-name="Path 33" d="M408.656,376.352c-4.477,0-8.4,3.273-8.635,7.676a8.205,8.205,0,0,0,8.155,8.644h5.738a8.225,8.225,0,0,1,8.24,8.635c-.245,4.4-4.252,7.76-8.644,7.76h-8.776a8.093,8.093,0,0,0-7.92,8.155,8.19,8.19,0,0,0,8.155,8.155h16.621a6.825,6.825,0,0,1,6.876,6.876v.64a6.492,6.492,0,0,1-6.481,6.876H403.228a8.574,8.574,0,0,0-8.72,7.675,8.276,8.276,0,0,0,8.24,8.654h60.83V376.352Z" transform="translate(-162.579 -155.098)" fill="#faab74"/>
  <path id="Path_34" data-name="Path 34" d="M43.448,345.024c-5.512,0-10.337,4.035-10.629,9.453a10.1,10.1,0,0,0,10.036,10.638H49.91a10.114,10.114,0,0,1,10.14,10.629c-.292,5.418-5.22,9.547-10.629,9.547H38.613a9.965,9.965,0,0,0-9.745,10.046,10.086,10.086,0,0,0,10.046,10.046H59.373a8.4,8.4,0,0,1,8.466,8.466v.79a8,8,0,0,1-7.976,8.466H36.76c-5.512,0-10.337,4.035-10.733,9.453a10.183,10.183,0,0,0,10.149,10.629H111.06V345.024Z" transform="translate(-10.724 -142.188)" fill="#f89959"/>
  <g id="Group_1" data-name="Group 1" transform="translate(35.65 207.455)">
    <path id="Path_35" data-name="Path 35" d="M251.734,352.889a15.247,15.247,0,0,1-5.22,6.914,28.259,28.259,0,0,1-4.449,2.841v7.525a28.136,28.136,0,0,0,8.1-5.108v31.21h8.287V352.88h-6.716Z" transform="translate(-135.407 -352.88)" fill="#fff"/>
    <path id="Path_36" data-name="Path 36" d="M89.677,427.319v7.694H60.64a19.976,19.976,0,0,1,2.831-8.268q2.356-3.908,9.312-10.356a58.513,58.513,0,0,0,6.867-7.073,9.125,9.125,0,0,0,1.712-5.07,5.8,5.8,0,0,0-1.486-4.261,6.332,6.332,0,0,0-8.24.075c-1.025,1.044-1.608,2.775-1.768,5.183l-8.249-.828q.734-6.843,4.628-9.811a15.531,15.531,0,0,1,9.726-2.972q6.392,0,10.055,3.452a11.306,11.306,0,0,1,3.659,8.578,14.97,14.97,0,0,1-1.044,5.559,22.594,22.594,0,0,1-3.32,5.531,53.435,53.435,0,0,1-5.427,5.512q-3.922,3.6-4.966,4.778a14.732,14.732,0,0,0-1.693,2.3H89.677v-.019Z" transform="translate(-60.64 -368.85)" fill="#fff"/>
    <path id="Path_37" data-name="Path 37" d="M402.256,438.558l8.014-.969a7.586,7.586,0,0,0,2.06,4.684,5.831,5.831,0,0,0,8.381-.329,7.561,7.561,0,0,0,1.75-5.249,7.026,7.026,0,0,0-1.684-4.948,5.336,5.336,0,0,0-4.1-1.825,14.344,14.344,0,0,0-3.8.621l.912-6.754a7.248,7.248,0,0,0,5.126-1.458,5.2,5.2,0,0,0,1.768-4.111,4.468,4.468,0,0,0-4.75-4.778,4.962,4.962,0,0,0-3.621,1.477,6.888,6.888,0,0,0-1.825,4.3l-7.638-1.3a17.128,17.128,0,0,1,2.4-6.265,10.891,10.891,0,0,1,4.477-3.687,15.073,15.073,0,0,1,6.443-1.345,12.837,12.837,0,0,1,9.783,3.894,10.166,10.166,0,0,1,3.038,7.2q0,5.686-6.218,9.077a10.035,10.035,0,0,1,5.935,3.565,10.372,10.372,0,0,1,2.229,6.688,12.967,12.967,0,0,1-4.158,9.7,15.52,15.52,0,0,1-20.073.63A13.253,13.253,0,0,1,402.256,438.558Z" transform="translate(-201.423 -375.028)" fill="#fff"/>
  </g>
</svg>
