<?xml version="1.0" encoding="utf-8"?>
<!-- Generator: Adobe Illustrator 23.1.0, SVG Export Plug-In . SVG Version: 6.00 Build 0)  -->
<svg version="1.1" id="Layer_1" xmlns="http://www.w3.org/2000/svg" xmlns:xlink="http://www.w3.org/1999/xlink" x="0px" y="0px"
	 viewBox="0 0 2500 2139" style="enable-background:new 0 0 2500 2139;" xml:space="preserve">
<style type="text/css">
	.st0{fill:#C1272D;}
	.st1{fill:#FFFFFF;}
	.st2{fill:#CCCCCC;}
</style>
<path class="st0" d="M2200.5,1068.3c0-89.4-26.7-175.2-79.5-254.9c-47.4-71.6-113.8-134.9-197.3-188.3
	c-161.3-103-373.3-159.8-596.9-159.8c-74.7,0-148.3,6.3-219.7,18.8c-44.3-41.5-96.2-78.8-151.1-108.3
	c-293.2-142.1-536.4-3.3-536.4-3.3S645.6,558.2,608.8,721c-101.1,100.3-156,221.3-156,347.3c0,0.4,0,0.8,0,1.2c0,0.4,0,0.8,0,1.2
	c0,126,54.8,246.9,156,347.3c36.8,162.8-189.3,348.5-189.3,348.5s243.2,138.8,536.4-3.3c54.9-29.5,106.7-66.8,151.1-108.3
	c71.4,12.5,145,18.8,219.7,18.8c223.6,0,435.6-56.7,596.9-159.8c83.5-53.4,149.9-116.7,197.3-188.3c52.8-79.7,79.5-165.5,79.5-254.9
	c0-0.4,0-0.8,0-1.2L2200.5,1068.3L2200.5,1068.3z"/>
<path class="st1" d="M1326.7,591.8c414.1,0,749.8,214.4,749.8,478.9c0,264.5-335.7,478.9-749.8,478.9c-92.2,0-180.5-10.7-262.1-30.1
	c-82.9,99.7-265.3,238.4-442.5,193.6c57.6-61.9,143-166.5,124.7-338.8c-106.2-82.6-169.9-188.4-169.9-303.6
	C576.9,806.2,912.6,591.8,1326.7,591.8"/>
<path class="st0" d="M1326.7,1185.7c55,0,99.6-44.6,99.6-99.6c0-55-44.6-99.6-99.6-99.6c-55,0-99.6,44.6-99.6,99.6
	C1227.1,1141.1,1271.7,1185.7,1326.7,1185.7z M1673,1185.7c55,0,99.6-44.6,99.6-99.6c0-55-44.6-99.6-99.6-99.6s-99.6,44.6-99.6,99.6
	C1573.4,1141.1,1618,1185.7,1673,1185.7z M980.4,1185.7c55,0,99.6-44.6,99.6-99.6c0-55-44.6-99.6-99.6-99.6
	c-55,0-99.6,44.6-99.6,99.6C880.8,1141.1,925.4,1185.7,980.4,1185.7L980.4,1185.7z"/>
<path class="st2" d="M1326.7,1486.6c-92.2,0-180.5-9.3-262.1-26.1c-73.2,76.3-224,178.9-380.3,175.2c-20.6,31.2-43,56.7-62.2,77.4
	c177.2,44.8,359.6-93.8,442.5-193.6c81.6,19.4,169.9,30.1,262.1,30.1c410.8,0,744.3-211,749.7-472.6
	C2071,1303.7,1737.4,1486.6,1326.7,1486.6L1326.7,1486.6z"/>
</svg>
