<?xml version="1.0" standalone="no"?>
<!DOCTYPE svg PUBLIC "-//W3C//DTD SVG 20010904//EN"
 "http://www.w3.org/TR/2001/REC-SVG-20010904/DTD/svg10.dtd">
<svg version="1.0" xmlns="http://www.w3.org/2000/svg"
 width="600.000000pt" height="564.000000pt" viewBox="0 0 600.000000 564.000000"
 preserveAspectRatio="xMidYMid meet">
<metadata>
Created by potrace 1.15, written by Peter Selinger 2001-2017
</metadata>
<g transform="translate(0.000000,564.000000) scale(0.100000,-0.100000)"
fill="#000000" stroke="none">
<path d="M691 5322 c-53 -26 -76 -65 -76 -125 0 -66 29 -109 89 -132 34 -13
51 -14 82 -6 70 19 122 97 107 160 -23 99 -117 147 -202 103z m100 -63 c49
-26 43 -107 -10 -129 -73 -30 -134 59 -79 117 23 25 57 29 89 12z"/>
<path d="M1134 5326 c-71 -31 -100 -116 -65 -190 54 -110 199 -109 252 2 59
120 -63 242 -187 188z m111 -81 c39 -38 30 -86 -22 -114 -45 -24 -103 14 -103
67 0 31 43 72 75 72 14 0 37 -11 50 -25z"/>
<path d="M4993 5228 c-6 -7 -32 -64 -58 -127 -51 -120 -87 -172 -132 -189 -16
-6 -69 -13 -120 -15 -147 -7 -183 -40 -272 -246 -53 -125 -57 -155 -20 -149
16 2 32 29 69 116 85 199 111 222 247 222 103 0 164 28 210 97 40 59 125 258
121 281 -4 21 -32 27 -45 10z"/>
<path d="M5592 5228 c-6 -7 -29 -56 -52 -108 -89 -204 -107 -220 -248 -220
-124 0 -154 17 -206 118 -17 34 -43 42 -52 17 -10 -25 3 -59 42 -109 52 -68
96 -86 214 -86 163 0 205 35 299 249 45 100 52 123 41 136 -15 18 -24 19 -38
3z"/>
<path d="M4653 5183 c-31 -6 -79 -56 -86 -89 -14 -74 43 -144 118 -144 37 0
50 6 80 35 29 29 35 43 35 76 0 43 -21 89 -49 106 -22 14 -70 22 -98 16z"/>
<path d="M5233 5175 c-38 -16 -73 -68 -73 -108 0 -141 208 -159 235 -20 17 90
-78 165 -162 128z"/>
<path d="M2705 5120 c-35 -23 -65 -74 -65 -110 0 -61 68 -130 128 -130 39 0
90 30 112 65 69 111 -67 246 -175 175z"/>
<path d="M3133 5120 c-87 -53 -82 -180 10 -223 43 -21 70 -21 107 -2 69 36 93
102 60 169 -34 71 -112 96 -177 56z"/>
<path d="M681 4968 c-47 -23 -94 -85 -111 -148 -24 -84 -72 -350 -67 -364 8
-19 41 -21 54 -3 5 6 24 86 42 177 18 91 41 184 51 207 30 68 53 77 214 83
l141 5 0 30 0 30 -140 3 c-127 2 -144 0 -184 -20z"/>
<path d="M1114 4971 c-26 -12 -53 -36 -72 -63 -39 -57 -164 -363 -160 -391 2
-16 10 -22 28 -22 21 0 29 10 53 70 97 235 122 289 152 321 37 38 76 44 125
19 45 -23 67 -78 105 -262 20 -93 38 -176 41 -185 7 -22 52 -24 60 -3 7 18
-62 354 -83 407 -8 21 -35 56 -59 77 -62 55 -119 64 -190 32z"/>
<path d="M2705 4823 c-42 -11 -74 -46 -112 -118 -21 -41 -40 -75 -43 -75 -13
0 -114 66 -117 77 -2 6 12 16 31 23 48 15 64 36 44 57 -35 34 -138 -23 -138
-77 0 -99 292 -219 680 -280 315 -50 547 -32 582 45 14 32 -5 78 -43 106 -61
43 -94 -3 -37 -51 l33 -28 -40 -18 c-32 -14 -68 -17 -190 -17 -208 1 -429 37
-646 105 l-97 30 20 47 c12 25 29 58 40 73 37 53 138 61 199 16 28 -21 30 -21
46 -5 21 20 12 39 -31 71 -19 15 -44 21 -94 23 -37 1 -76 -1 -87 -4z"/>
<path d="M3125 4823 c-46 -12 -77 -47 -122 -140 -34 -71 -44 -100 -36 -111 25
-40 41 -26 91 81 36 77 46 90 79 103 45 19 117 12 146 -14 11 -9 38 -54 59
-100 33 -70 43 -83 61 -80 33 5 32 30 -8 115 -41 88 -66 120 -112 139 -31 14
-117 17 -158 7z"/>
<path d="M717 4793 c-4 -3 -7 -164 -7 -358 0 -260 3 -354 12 -363 18 -18 123
-15 139 4 20 24 -1 48 -45 52 l-36 3 0 319 c0 175 -3 325 -6 334 -6 16 -45 22
-57 9z"/>
<path d="M1177 4793 c-4 -3 -7 -154 -7 -335 l0 -328 -32 0 c-44 0 -60 -12 -56
-41 3 -22 8 -24 66 -27 38 -2 69 2 78 9 12 9 14 71 14 354 0 189 -3 350 -6
359 -6 16 -45 22 -57 9z"/>
<path d="M4622 4787 c-17 -20 -67 -220 -60 -239 4 -9 43 -36 87 -60 45 -24 81
-46 81 -50 0 -3 -30 -59 -66 -122 -36 -64 -64 -124 -62 -134 3 -14 14 -17 63
-17 54 0 60 2 63 22 3 17 -3 24 -22 29 -14 3 -26 7 -26 9 0 2 27 51 61 109 33
58 59 113 57 122 -2 10 -39 37 -83 61 -44 24 -84 48 -88 52 -5 5 3 52 18 106
20 75 23 100 14 111 -14 17 -23 18 -37 1z"/>
<path d="M5323 4793 c-19 -7 -16 -37 11 -135 l24 -87 -82 -45 c-46 -25 -89
-52 -96 -61 -10 -12 -2 -34 53 -130 41 -71 60 -115 52 -115 -7 0 -21 -7 -30
-16 -26 -26 -1 -44 62 -44 38 0 55 4 59 15 5 12 -68 156 -123 242 -14 21 -11
23 73 70 47 26 89 53 91 60 4 9 -22 119 -53 225 -5 18 -23 27 -41 21z"/>
<path d="M2371 4556 c-60 -72 273 -205 684 -272 157 -26 422 -26 488 -1 55 22
75 48 52 71 -14 13 -20 13 -59 -4 -187 -83 -902 42 -1105 194 -40 30 -44 31
-60 12z"/>
<path d="M968 3449 c-33 -19 -44 -110 -23 -180 8 -25 51 -39 122 -39 62 0 70
-2 100 -32 27 -26 37 -30 51 -22 14 9 17 30 20 123 3 107 2 112 -22 136 -24
23 -31 25 -128 25 -57 0 -111 -5 -120 -11z m210 -108 c3 -52 2 -53 -20 -47
-13 3 -53 6 -90 6 l-68 0 0 50 0 51 88 -3 87 -3 3 -54z"/>
<path d="M2699 3450 c-117 -35 -169 -184 -101 -288 39 -61 115 -98 180 -87 26
4 74 8 106 9 l59 1 3 110 c2 117 -7 158 -49 204 -46 50 -130 72 -198 51z m134
-69 c15 -8 37 -35 49 -59 19 -40 20 -48 8 -97 -7 -29 -10 -60 -7 -68 9 -24
-149 -35 -191 -13 -41 21 -63 56 -69 109 -8 70 23 118 94 142 41 15 73 11 116
-14z"/>
<path d="M4840 3430 c-11 -7 -16 -34 -18 -113 -4 -116 5 -137 57 -137 27 0 29
-4 71 -142 49 -164 61 -188 94 -188 20 0 32 15 70 84 l46 84 87 7 c98 8 118
17 102 46 -8 17 -22 19 -103 19 -108 0 -128 -10 -173 -88 l-27 -46 -33 105
c-18 57 -33 107 -33 110 0 3 11 11 25 17 24 11 25 14 25 121 0 99 -2 111 -19
121 -24 13 -151 13 -171 0z"/>
<path d="M5215 3433 c-57 -15 -105 -78 -105 -139 0 -40 30 -94 64 -115 18 -11
50 -19 76 -19 81 0 140 60 140 142 0 38 -29 90 -62 112 -27 17 -84 27 -113 19z
m79 -84 c52 -41 23 -122 -44 -122 -67 0 -96 81 -44 122 15 12 34 21 44 21 10
0 29 -9 44 -21z"/>
<path d="M780 3333 c-18 -23 -20 -38 -18 -122 3 -92 4 -96 27 -99 13 -2 28 1
34 7 6 6 41 11 78 11 48 0 72 5 83 16 20 19 20 19 0 38 -11 12 -36 16 -90 16
l-75 0 3 48 c3 43 5 47 30 50 66 8 55 62 -12 62 -30 0 -43 -6 -60 -27z"/>
<path d="M510 3172 c-51 -23 -90 -75 -90 -120 0 -39 30 -90 65 -112 113 -70
245 62 175 175 -31 50 -103 78 -150 57z"/>
<path d="M1393 3164 c-67 -34 -92 -118 -53 -181 53 -87 180 -80 224 11 20 43
20 69 1 109 -32 65 -110 93 -172 61z"/>
<path d="M3073 3155 c-88 -38 -87 -164 2 -201 95 -39 188 62 140 152 -17 31
-67 64 -97 64 -7 -1 -27 -7 -45 -15z"/>
<path d="M5224 2949 c-6 -10 -93 -637 -94 -681 0 -13 -11 -18 -41 -20 -49 -3
-71 -27 -50 -52 17 -20 123 -22 139 -3 12 14 105 696 100 736 -3 28 -40 42
-54 20z"/>
<path d="M3000 2883 c-28 -14 -45 -38 -85 -115 -28 -53 -65 -115 -83 -137 -36
-44 -41 -71 -14 -71 31 0 97 81 137 168 22 46 48 90 59 98 14 9 48 14 107 14
102 0 100 1 158 -120 23 -46 58 -101 78 -122 67 -69 102 -37 41 36 -18 22 -53
80 -78 129 -59 119 -75 130 -193 135 -74 2 -99 0 -127 -15z"/>
<path d="M502 2858 c-17 -17 -17 -329 0 -346 8 -8 46 -12 105 -12 l93 0 0
-141 c0 -77 5 -149 10 -160 9 -15 22 -19 64 -19 35 0 58 5 66 15 20 24 4 45
-35 45 l-35 0 0 148 c0 102 -4 152 -12 160 -8 8 -46 12 -105 12 l-93 0 0 116
c0 89 3 115 13 111 6 -2 58 -19 114 -37 84 -28 104 -32 117 -21 32 27 1 48
-141 95 -76 25 -140 46 -144 46 -3 0 -10 -5 -17 -12z"/>
<path d="M1335 2824 c-137 -46 -167 -66 -140 -93 13 -14 26 -12 117 18 57 19
109 36 116 38 9 4 12 -22 12 -111 l0 -116 -93 0 c-59 0 -97 -4 -105 -12 -8 -8
-12 -58 -12 -160 l0 -148 -35 0 c-39 0 -55 -21 -35 -45 8 -10 31 -15 66 -15
42 0 55 4 64 19 5 11 10 83 10 160 l0 141 93 0 c59 0 97 4 105 12 8 8 12 61
12 173 0 158 -5 186 -34 184 -6 0 -69 -20 -141 -45z"/>
<path d="M386 2754 c-14 -13 -16 -52 -16 -275 0 -260 5 -299 35 -299 25 0 35
36 35 124 l0 86 70 0 70 0 0 -94 c0 -98 10 -123 44 -110 14 6 16 23 14 133
l-3 126 -97 3 -98 3 0 140 c0 166 -13 205 -54 163z"/>
<path d="M1570 2751 c-5 -11 -10 -82 -10 -160 l0 -140 -97 -3 -98 -3 -3 -126
c-2 -110 0 -127 14 -133 34 -13 44 12 44 110 l0 94 70 0 70 0 0 -86 c0 -88 10
-124 35 -124 30 0 35 39 35 299 0 223 -2 262 -16 275 -20 21 -31 20 -44 -3z"/>
<path d="M3015 2728 c-3 -8 -4 -66 -3 -129 l3 -114 99 -3 c73 -2 102 1 108 10
9 15 11 209 2 232 -8 22 -31 20 -44 -3 -5 -11 -10 -58 -10 -105 l0 -86 -55 0
-54 0 -3 102 c-3 89 -5 103 -21 106 -9 2 -19 -3 -22 -10z"/>
<path d="M762 2671 c-8 -5 -12 -17 -10 -27 3 -17 15 -19 111 -22 l107 -3 0
-189 0 -190 -30 0 c-34 0 -49 -22 -30 -45 18 -21 162 -21 180 0 19 23 4 45
-30 45 l-30 0 0 190 0 189 107 3 c96 3 108 5 111 22 2 10 -2 22 -10 27 -7 5
-114 9 -238 9 -124 0 -231 -4 -238 -9z"/>
<path d="M5283 2585 c-3 -9 20 -87 50 -175 l56 -159 -31 -3 c-38 -4 -57 -30
-39 -52 18 -21 123 -22 141 -1 10 11 3 42 -35 157 -81 243 -83 248 -111 248
-14 0 -27 -7 -31 -15z"/>
<path d="M3036 2424 c-3 -9 -6 -56 -6 -105 l0 -89 -34 0 c-36 0 -53 -19 -33
-39 15 -15 100 -14 115 1 13 13 17 202 6 232 -3 9 -14 16 -24 16 -10 0 -21 -7
-24 -16z"/>
<path d="M3155 2428 c-3 -8 -4 -66 -3 -129 l3 -114 60 0 c53 0 60 2 60 20 0
15 -8 21 -35 25 l-35 5 -5 100 c-4 85 -8 100 -23 103 -9 2 -19 -3 -22 -10z"/>
<path d="M2942 1560 c-125 -76 -77 -264 69 -264 54 0 91 21 120 67 28 45 22
127 -12 163 -52 56 -119 69 -177 34z m116 -70 c32 -30 30 -82 -5 -110 -47 -37
-113 -4 -113 56 0 40 32 74 70 74 14 0 36 -9 48 -20z"/>
<path d="M5045 1502 c-66 -15 -126 -31 -132 -35 -15 -10 -18 -243 -4 -265 5
-8 17 -12 27 -10 15 2 20 14 24 53 3 28 10 49 15 48 6 0 59 -11 119 -23 66
-13 112 -18 117 -13 5 5 8 68 7 139 l-3 129 -25 2 c-14 1 -79 -10 -145 -25z
m115 -113 c0 -62 -2 -70 -17 -65 -10 3 -51 12 -92 21 -88 18 -91 20 -91 50 0
21 7 25 58 35 31 6 71 15 87 20 55 15 55 15 55 -61z"/>
<path d="M4623 1460 c-51 -31 -68 -66 -64 -139 1 -13 18 -41 40 -62 33 -33 45
-39 81 -39 74 0 140 62 140 130 0 37 -30 89 -65 110 -41 25 -91 26 -132 0z"/>
<path d="M931 1438 c-91 -48 -135 -142 -114 -241 7 -32 8 -70 3 -97 -12 -67
-7 -74 62 -66 32 3 80 1 107 -5 85 -18 168 18 224 97 65 93 38 228 -61 296
-65 45 -155 51 -221 16z m187 -65 c32 -23 72 -97 72 -132 0 -39 -37 -104 -73
-128 -37 -25 -71 -29 -168 -18 -59 7 -66 10 -61 27 2 11 -1 43 -8 72 -28 117
48 212 163 203 27 -3 60 -13 75 -24z"/>
<path d="M957 1308 c-6 -19 11 -48 29 -48 12 0 10 -7 -10 -31 -29 -35 -31 -40
-14 -57 18 -18 113 -15 132 3 19 19 10 45 -15 45 -25 0 -24 9 6 40 41 43 26
60 -55 60 -46 0 -70 -4 -73 -12z"/>
<path d="M2832 1209 c-47 -24 -105 -86 -141 -153 l-24 -44 44 -113 c40 -103
47 -114 69 -114 37 0 36 36 -4 137 l-34 87 28 43 c15 24 42 57 59 73 30 28 38
30 125 33 88 4 94 3 125 -23 40 -34 50 -54 127 -245 56 -140 64 -155 88 -158
17 -2 28 2 32 13 4 8 -24 90 -61 183 -113 278 -137 302 -303 302 -68 0 -96 -5
-130 -21z"/>
<path d="M4632 1145 c-36 -16 -77 -56 -98 -96 -17 -33 -86 -369 -80 -386 6
-16 42 -17 52 -2 4 6 22 83 40 169 45 219 69 259 150 260 46 0 78 -27 113 -97
22 -43 48 -58 90 -51 23 3 206 145 215 166 8 19 -4 42 -24 42 -9 0 -59 -34
-109 -75 -51 -41 -96 -75 -100 -75 -4 0 -14 15 -23 33 -51 106 -139 150 -226
112z"/>
<path d="M2993 1023 c-9 -22 76 -694 90 -711 7 -9 31 -12 76 -10 64 3 66 4 69
30 3 28 -5 33 -68 40 l-25 3 -40 320 c-23 176 -44 326 -49 333 -11 18 -46 15
-53 -5z"/>
<path d="M4662 982 c-9 -7 -12 -82 -10 -343 l3 -334 65 0 c63 0 65 1 65 25 0
22 -5 25 -37 28 l-38 3 0 303 c0 323 -3 346 -48 318z"/>
<path d="M655 960 c-34 -22 -65 -74 -65 -107 0 -21 -4 -23 -58 -23 -50 0 -62
-4 -83 -26 -23 -24 -24 -33 -27 -175 -3 -136 -5 -149 -21 -149 -24 0 -43 -23
-35 -44 6 -15 63 -16 634 -16 571 0 628 1 634 16 8 21 -11 44 -34 44 -17 0
-19 14 -22 163 -3 176 -10 201 -64 225 -17 8 -124 12 -344 12 l-319 0 -16 30
c-33 65 -121 89 -180 50z m846 -157 c9 -10 15 -50 17 -110 l4 -93 -336 0 -336
0 0 110 0 110 319 0 c284 0 320 -2 332 -17z m-709 -205 l3 -53 360 -5 360 -5
3 -27 3 -28 -520 0 -521 0 0 85 0 85 154 0 155 0 3 -52z"/>
<path d="M2902 678 c-55 -149 -115 -347 -109 -361 9 -24 128 -24 148 -1 18 22
-1 48 -39 52 l-30 3 54 162 c30 89 51 169 48 179 -3 11 -15 18 -29 18 -19 0
-27 -9 -43 -52z"/>
</g>
</svg>
