<?xml version="1.0" standalone="no"?>
<!DOCTYPE svg PUBLIC "-//W3C//DTD SVG 20010904//EN"
 "http://www.w3.org/TR/2001/REC-SVG-20010904/DTD/svg10.dtd">
<svg version="1.0" xmlns="http://www.w3.org/2000/svg"
 width="980.000000pt" height="980.000000pt" viewBox="0 0 980.000000 980.000000"
 preserveAspectRatio="xMidYMid meet">
<metadata>
Created by potrace 1.15, written by Peter Selinger 2001-2017
</metadata>
<g transform="translate(0.000000,980.000000) scale(0.100000,-0.100000)"
fill="#000000" stroke="none">
<path d="M4560 9789 c-1035 -75 -1998 -463 -2800 -1128 -150 -123 -501 -475
-622 -621 -881 -1068 -1270 -2403 -1098 -3765 119 -934 501 -1801 1124 -2545
98 -117 370 -393 496 -504 1328 -1166 3158 -1531 4825 -962 895 305 1700 879
2281 1627 735 946 1100 2126 1024 3314 -70 1094 -491 2109 -1216 2935 -112
128 -386 398 -509 501 -763 642 -1665 1026 -2665 1134 -174 19 -664 27 -840
14z m1560 -2029 l0 -240 508 -2 507 -3 3 -2507 2 -2508 513 -2 512 -3 0 -120
0 -120 -3265 0 -3265 0 0 120 0 120 513 3 512 2 0 1745 0 1745 160 0 160 0 0
245 0 245 735 0 735 0 0 760 0 760 835 0 835 0 0 -240z"/>
<path d="M4700 7640 l0 -120 590 0 590 0 0 120 0 120 -590 0 -590 0 0 -120z"/>
<path d="M4700 4885 l0 -2385 260 0 260 0 0 485 0 485 540 0 540 0 0 -485 0
-485 295 0 295 0 0 2385 0 2385 -1095 0 -1095 0 0 -2385z m1930 1600 l0 -125
-835 0 -835 0 0 125 0 125 835 0 835 0 0 -125z m0 -805 l0 -120 -835 0 -835 0
0 120 0 120 835 0 835 0 0 -120z m0 -810 l0 -120 -835 0 -835 0 0 120 0 120
835 0 835 0 0 -120z"/>
<path d="M3230 6115 l0 -125 590 0 591 0 -3 123 -3 122 -587 3 -588 2 0 -125z"/>
<path d="M2910 4125 l0 -1625 770 0 770 0 0 1625 0 1625 -770 0 -770 0 0
-1625z m1290 1025 l0 -120 -520 0 -520 0 0 120 0 120 520 0 520 0 0 -120z m0
-670 l0 -120 -520 0 -520 0 0 120 0 120 520 0 520 0 0 -120z m0 -695 l0 -125
-520 0 -520 0 0 125 0 125 520 0 520 0 0 -125z m0 -690 l0 -125 -520 0 -520 0
0 125 0 125 520 0 520 0 0 -125z"/>
<path d="M5470 2865 l0 -365 295 0 295 0 -2 363 -3 362 -292 3 -293 2 0 -365z"/>
</g>
</svg>
