<?xml version="1.0" encoding="utf-8"?>
<!-- Generator: Adobe Illustrator 23.1.0, SVG Export Plug-In . SVG Version: 6.00 Build 0)  -->
<svg version="1.1" id="Capa_1" xmlns="http://www.w3.org/2000/svg" xmlns:xlink="http://www.w3.org/1999/xlink" x="0px" y="0px"
	 viewBox="0 0 512 449" style="enable-background:new 0 0 512 449;" xml:space="preserve">
<style type="text/css">
	.st0{fill:#FFFFFF;}
</style>
<g>
	<g>
		<path class="st0" d="M512,320.1c0-19.5-12.6-36-30-42.2V122.5l30-12.4L256,7.4L0,110.1l256,102.7l196-78.3v143.3
			c-17.4,6.2-30,22.7-30,42.2c0,17.9,10.6,33.2,25.7,40.5l-24.9,74.8l28.4,9.5l15.8-47.3l15.8,47.3l28.4-9.5l-24.9-74.8
			C501.4,353.3,512,338,512,320.1z"/>
	</g>
</g>
<g>
	<g>
		<path class="st0" d="M256,245.1l-135-54.2v39.2c0,42.8,58,75,135,75s135-32.2,135-75v-39.2L256,245.1z"/>
	</g>
</g>
</svg>
