<?xml version="1.0" encoding="utf-8"?>
<!-- Generator: Adobe Illustrator 19.0.0, SVG Export Plug-In . SVG Version: 6.00 Build 0)  -->
<svg version="1.1" id="Layer_1" xmlns="http://www.w3.org/2000/svg" xmlns:xlink="http://www.w3.org/1999/xlink" x="0px" y="0px"
	 viewBox="0 0 750 360" style="enable-background:new 0 0 750 360;" xml:space="preserve">
<style type="text/css">
	.st0{fill:#010101;}
	.st1{fill:#1B9DD9;}
	.st2{fill:#101010;}
	.st3{fill:#2098D5;}
	.st4{fill:none;}
</style>
<g id="XMLID_1_">
	<path id="XMLID_558_" class="st0" d="M448.3,175c0.8,0.4,1.6,0.2,2.4,0.2c22.1,0,44.1,0,66.2,0.1c2,0,2.5-0.6,2.5-2.5
		c-0.1-8.7,0-17.4-0.1-26.1c0-1.7,0.5-2.2,2.2-2.2c8,0.1,16,0.1,24,0c1.7,0,2,0.6,2,2.1c0,18.3,0,36.6,0,54.8c0,1.7-0.4,2.6-2.5,2.6
		c-51.4-0.1-102.7-0.1-154.1,0c-2.2,0-2.9-0.8-2.8-2.9c0.1-7.7,0.1-15.4,0-23.1c0-1.8,0.6-2.1,2.2-2.1c8.7,0.1,17.4,0,26.1,0.1
		c1.8,0,2.5-0.3,2.5-2.3c-0.1-37.2,0-74.5,0-111.7c0-3,0-3-3-3c-8.4,0-16.8,0-25.1,0c-1.7,0-2.3-0.4-2.2-2.2
		c0.1-7.9,0.1-15.9,0-23.8c0-1.8,0.6-2.3,2.4-2.3c50.7,0,101.5,0,152.2,0c2,0,2.7,0.5,2.7,2.6c-0.1,17.5-0.1,35,0,52.6
		c0,1.5-0.3,2.1-2,2.1c-8-0.1-16-0.1-24,0c-1.5,0-1.7-0.4-1.7-1.8c0.1-8.2,0-16.3,0.1-24.5c0-2.2-0.6-2.8-2.8-2.7
		c-21.5,0.1-43,0.1-64.6,0.1c-2.9,0-3.2,0.3-3.2,3.2c0,11.3,0,22.7,0,34c0,3.1,0,3.1,3.3,3.1c13.3,0,26.6,0,39.9,0
		c2.1,0,2.6,0.6,2.6,2.6c-0.1,7.6-0.2,15.3,0,22.9c0.1,2.3-0.7,2.6-2.8,2.6c-13.9-0.1-27.8,0-41.7,0c-0.9,0.5-1,1.2-0.9,2.1
		c0,14.2,0,28.3,0,42.5C447.9,173.1,447.6,174.1,448.3,175z"/>
	<path id="XMLID_557_" class="st1" d="M335.1,88c0-8.7-0.1-17.4,0-26c0-2.2-0.7-2.8-2.9-2.8c-21.5,0.1-43,0-64.6,0
		c-3.1,0-3.3,0.2-3.3,3.4c0,11.5,0,23,0,34.4c0,2,0.5,2.6,2.5,2.6c13.4-0.1,26.7,0,40.1,0c3.2,0,3.2,0,3.2,3.1
		c0,7.5-0.1,15,0.1,22.4c0,2.2-0.7,2.6-2.7,2.6c-13.3-0.1-26.6,0-39.9,0c-3.2,0-3.2,0-3.2,3.3c0,14,0,27.9,0,41.9
		c0,1.8,0.5,2.5,2.4,2.5c22.4-0.1,44.8-0.1,67.3,0c1.8,0,2.1-0.6,2.1-2.2c-0.1-8.7,0-17.4-0.1-26c0-1.7,0.4-2.3,2.3-2.3
		c8,0.1,16,0,24,0.1c0.7,0,1.8-0.5,1.8,1c-0.3,0.6-0.2,1.2-0.2,1.8c0,17.8,0,35.7,0,53.5c0,0.6-0.1,1.2,0.2,1.8
		c0.1,0.7,0.1,1.4-1,1.3c-0.6,0-1.2,0-1.8,0c-51,0-102,0-153,0c-3.3,0-3.3,0-3.3-3.3c0-7.5,0.1-15.1,0-22.6c0-1.7,0.5-2.2,2.2-2.2
		c9.3,0.1,18.6,0,27.8,0c1.1-0.9,0.7-2.1,0.7-3.2c0-28.3,0-56.6,0-84.9c0-8.7,0-17.4,0-26c0-1,0.2-2-0.7-2.7c-9.1,0-18.3-0.1-27.4,0
		c-1.9,0-2.6-0.5-2.6-2.5c0.1-7.6,0.1-15.3,0-22.9c0-2.2,0.6-2.8,2.8-2.8c23.5,0.1,47,0,70.5,0c27.2,0,54.4,0,81.6,0c3,0,3,0,3,2.9
		c0,18,0,36.1,0,54.1c-1,0.6-2.1,0.8-3.2,0.8c-7.2,0-14.4,0-21.6,0C336.8,88.7,335.8,88.7,335.1,88z"/>
	<path id="XMLID_556_" class="st0" d="M571.7,117.1c0-27.8,0-55.6,0-83.4c0-2.9,0-2.9,2.9-2.9c48,0,96,0,144.1,0
		c1.9,0,2.5,0.3,2.5,2.4c-0.1,17.7-0.1,35.5,0,53.2c0,2.1-0.4,2.8-2.7,2.7c-7.6-0.2-15.3-0.2-22.9,0c-2.1,0-2.5-0.8-2.5-2.6
		c0-8.3,0-16.6,0.1-24.9c0-1.6-0.5-2-2-2c-29.8,0-59.5,0-89.3,0c-1.6,0-2,0.5-2,2c0,37.1,0,74.2,0,111.2c0,1.7,0.4,2.1,2.1,2.1
		c30.8-0.1,61.6-0.1,92.4,0c1.7,0,2.3-0.4,2.3-2.2c-0.1-8.8,0-17.5-0.1-26.3c0-1.9,0.7-2.3,2.3-2.3c8.1,0,16.2,0,24.2,0
		c1.2,0,1.7,0.4,1.7,1.7c0,18.7,0,37.3,0,56c0,1.4-0.4,2.1-2,2.1c-49.8,0-99.5,0-149.3,0c-1.4,0-1.9-0.5-1.9-1.8c0-0.7,0-1.4,0-2
		C571.7,172.5,571.7,144.8,571.7,117.1z"/>
	<path id="XMLID_555_" class="st0" d="M154.2,204c-0.8,0-1.5,0.1-2.3,0.1c-41.7,0-83.4,0-125,0c-2.1,0-2.9-0.3-2.9-2.7
		c0.1-17.9,0.1-35.8,0-53.7c0-1.9,0.6-2.5,2.4-2.4c8.1,0.1,16.2,0.1,24.2,0c1.9,0,2.4,0.6,2.4,2.5c-0.1,8.5,0,16.9-0.1,25.4
		c0,1.6,0.3,2.2,2.1,2.2c23-0.1,46.1-0.1,69.1,0c1.7,0,2.2-0.5,2.2-2.2c0-37.4,0-74.7,0-112.1c0-1.8-0.5-2.1-2.2-2.1
		c-7.3,0.1-14.6,0-22,0.1c-1.4,0-1.9-0.3-1.9-1.9c0.1-8.1,0.1-16.2,0-24.2c0-1.8,0.7-2.1,2.2-2.1c15.5,0,31,0,46.4,0
		c9.9,0,19.8,0.1,29.7,0c2,0,2.5,0.6,2.5,2.5c-0.1,7.7-0.1,15.4,0,23.1c0,1.9-0.5,2.6-2.5,2.6c-7.8-0.1-15.5,0-23.3,0.1
		c-0.2,0.2-0.4,0.5-0.4,0.8c-0.1,1.1-0.1,2.1-0.1,3.2c0,45.9,0,91.8,0,137.7C154.7,201.8,155,203,154.2,204z"/>
	<path id="XMLID_554_" class="st2" d="M308.7,250.8c-12.2,0-24.5,0.1-36.7,0c-55.3-0.4-110.5,0.1-165.8-0.2c-25.7-0.1-51.3,0-77-0.1
		c-0.6,0-1.2-0.1-1.8-0.1c-0.6-0.6-0.5-1.2-0.1-1.8c0.7-0.6,1.6-0.3,2.4-0.3c23.8,0,47.6-0.1,71.3,0c55.6,0.4,111.1,0,166.7,0.2
		c13.2,0,26.4,0.1,39.6,0.1c0.6,0,1.2,0.1,1.8,0.1C309.9,249.5,309.7,250.3,308.7,250.8z"/>
	<path id="XMLID_553_" class="st0" d="M584.5,251.8c-44.9,0-89.8,0-134.8,0c-0.6,0-1.2,0-1.8,0c-0.5,0-1.2-0.1-1.1-0.8
		c0.1-0.6,0.1-1.4,1.1-1.5c0.5,0,1.1,0,1.6,0c89.8,0,179.7,0,269.5,0c0.5,0,0.9,0,1.4,0c1.1-0.1,1.8,0.5,1.8,1.5
		c-0.1,1.1-1.1,0.7-1.8,0.8c-0.5,0.1-1.1,0-1.6,0C674,251.8,629.3,251.8,584.5,251.8z"/>
	<path id="XMLID_516_" class="st3" d="M364,202.7c-0.7-0.7-0.4-1.6-0.4-2.4c0-17.4,0-34.9,0-52.3c0-0.8-0.3-1.7,0.4-2.4
		c0,15.5,0.1,30.9,0.1,46.4C364.1,195.6,364,199.1,364,202.7z"/>
	<g id="XMLID_2_">
		<rect id="XMLID_63_" x="25.5" y="292.5" class="st4" width="707.4" height="47.3"/>
		<path id="XMLID_16_" class="st1" d="M28.9,321.7v-26.4h15.8v4.2H33.8v6.8h9.4v4.1h-9.4v7.2h11.8v4.1H28.9z"/>
		<path id="XMLID_18_" class="st1" d="M77,321.7l-13.6-18.8v18.8h-4.7v-26.4h4.8l13.7,18.9v-19h4.6v26.4H77z"/>
		<path id="XMLID_20_" class="st1" d="M118.1,320.8c-0.9,0.2-1.5,0.4-2.1,0.5s-1.1,0.3-1.7,0.4c-0.6,0.1-1.4,0.2-2.2,0.3
			c-0.8,0.1-1.8,0.1-3,0.1c-2.3,0-4.3-0.4-6.2-1.1s-3.3-1.7-4.6-2.9c-1.3-1.2-2.2-2.7-2.9-4.4s-1-3.5-1-5.4c0-1.7,0.3-3.4,1-5
			c0.7-1.6,1.6-3.1,2.9-4.3c1.2-1.3,2.7-2.3,4.5-3c1.7-0.8,3.6-1.1,5.7-1.1c1,0,1.9,0,2.7,0.1c0.8,0.1,1.5,0.2,2.2,0.3
			c0.7,0.1,1.3,0.3,2,0.5c0.6,0.2,1.3,0.5,2.1,0.8l-0.4,4.7c-1.7-0.9-3.1-1.5-4.4-1.8c-1.3-0.3-2.7-0.5-4.1-0.5
			c-1.3,0-2.4,0.2-3.5,0.7c-1.1,0.5-2,1.1-2.8,1.9c-0.8,0.8-1.4,1.8-1.9,3c-0.5,1.2-0.7,2.4-0.7,3.9c0,1.5,0.3,2.9,0.8,4.1
			c0.5,1.2,1.2,2.2,2,3c0.9,0.8,1.9,1.4,3,1.9c1.2,0.4,2.4,0.6,3.7,0.6c0.8,0,1.5-0.1,2.1-0.2c0.6-0.1,1.2-0.3,1.9-0.5v-5.9h-4.7
			v-4.2h9.6V320.8z"/>
		<path id="XMLID_23_" class="st1" d="M132,321.7v-26.4h4.8v26.4H132z"/>
		<path id="XMLID_25_" class="st1" d="M169.8,321.7l-13.6-18.8v18.8h-4.7v-26.4h4.8l13.7,18.9v-19h4.6v26.4H169.8z"/>
		<path id="XMLID_27_" class="st1" d="M189.5,321.7v-26.4h15.8v4.2h-10.9v6.8h9.4v4.1h-9.4v7.2h11.8v4.1H189.5z"/>
		<path id="XMLID_29_" class="st1" d="M219.3,321.7v-26.4H235v4.2h-10.9v6.8h9.4v4.1h-9.4v7.2h11.8v4.1H219.3z"/>
		<path id="XMLID_31_" class="st1" d="M262.6,321.7c-0.7-1-1.3-1.9-1.9-2.7s-1.1-1.7-1.6-2.5c-0.5-0.8-1.1-1.7-1.6-2.6
			s-1.1-1.9-1.7-2.9h-2v10.7H249v-26.2c1.3-0.1,2.6-0.2,3.9-0.3c1.3-0.1,2.6-0.1,4-0.1c1.4,0,2.7,0.1,3.9,0.4
			c1.2,0.3,2.2,0.8,3.1,1.4c0.9,0.6,1.6,1.5,2.1,2.5s0.8,2.2,0.8,3.6c0,0.9-0.1,1.7-0.4,2.5c-0.3,0.8-0.7,1.5-1.2,2.1
			c-0.5,0.6-1.1,1.2-1.8,1.7c-0.7,0.5-1.4,0.8-2.2,1.1c0.6,1,1.2,2,1.7,2.8c0.5,0.9,1.1,1.8,1.7,2.7c0.6,0.9,1.2,1.8,1.9,2.8
			s1.4,2,2.3,3.1H262.6z M261.6,302.9c0-1.1-0.4-2-1.2-2.6c-0.8-0.6-2.1-0.9-3.8-0.9h-0.3l-2.4,0v7.6h2.4c1,0,1.9-0.1,2.6-0.3
			c0.7-0.2,1.2-0.5,1.6-0.8c0.4-0.3,0.7-0.8,0.8-1.3C261.5,304.1,261.6,303.6,261.6,302.9z"/>
		<path id="XMLID_34_" class="st1" d="M279.7,321.7v-26.4h4.8v26.4H279.7z"/>
		<path id="XMLID_36_" class="st1" d="M317.5,321.7l-13.6-18.8v18.8h-4.7v-26.4h4.8l13.7,18.9v-19h4.6v26.4H317.5z"/>
		<path id="XMLID_38_" class="st1" d="M358.6,320.8c-0.9,0.2-1.5,0.4-2.1,0.5s-1.1,0.3-1.7,0.4c-0.6,0.1-1.4,0.2-2.2,0.3
			s-1.8,0.1-3,0.1c-2.3,0-4.3-0.4-6.2-1.1s-3.3-1.7-4.6-2.9c-1.3-1.2-2.2-2.7-2.9-4.4s-1-3.5-1-5.4c0-1.7,0.3-3.4,1-5
			c0.7-1.6,1.6-3.1,2.9-4.3c1.2-1.3,2.7-2.3,4.5-3c1.7-0.8,3.6-1.1,5.7-1.1c1,0,1.9,0,2.7,0.1c0.8,0.1,1.5,0.2,2.2,0.3
			c0.7,0.1,1.3,0.3,2,0.5c0.6,0.2,1.3,0.5,2.1,0.8l-0.4,4.7c-1.7-0.9-3.1-1.5-4.4-1.8c-1.3-0.3-2.7-0.5-4.1-0.5
			c-1.3,0-2.4,0.2-3.5,0.7c-1.1,0.5-2,1.1-2.8,1.9c-0.8,0.8-1.4,1.8-1.9,3c-0.5,1.2-0.7,2.4-0.7,3.9c0,1.5,0.3,2.9,0.8,4.1
			c0.5,1.2,1.2,2.2,2,3c0.9,0.8,1.9,1.4,3,1.9c1.2,0.4,2.4,0.6,3.7,0.6c0.8,0,1.5-0.1,2.1-0.2c0.6-0.1,1.2-0.3,1.9-0.5v-5.9H349
			v-4.2h9.6V320.8z"/>
		<path id="XMLID_40_" d="M415.6,328.5c-0.6,0-1.2,0-1.7,0c-0.5,0-0.9-0.1-1.4-0.2c-0.4-0.1-0.8-0.2-1.2-0.3
			c-0.4-0.1-0.8-0.4-1.2-0.6s-0.9-0.6-1.4-1.1c-0.5-0.5-1-1-1.5-1.5s-1-1.1-1.5-1.8l-1.2-1.6l-0.6-0.8c-1.2,0.8-2.4,1.3-3.6,1.5
			c-1.2,0.3-2.5,0.4-3.9,0.4c-1.1,0-2.1-0.2-3.1-0.5c-1-0.3-1.9-0.8-2.7-1.5c-0.8-0.6-1.4-1.4-1.9-2.4c-0.5-0.9-0.7-2-0.7-3.2
			c0-1,0.2-2,0.5-2.9c0.3-0.9,0.7-1.7,1.3-2.4c0.5-0.7,1.1-1.4,1.8-1.9c0.7-0.6,1.3-1.1,2-1.5c-0.5-0.6-0.9-1.1-1.3-1.6
			c-0.4-0.5-0.6-1-0.9-1.4c-0.2-0.4-0.4-0.9-0.5-1.3s-0.2-0.9-0.2-1.4c0-1,0.2-1.9,0.6-2.6c0.4-0.8,0.9-1.4,1.6-1.9
			c0.7-0.5,1.5-0.9,2.4-1.2c0.9-0.3,1.9-0.4,2.8-0.4c1.1,0,2,0.2,2.9,0.5c0.8,0.3,1.5,0.7,2.1,1.3s1,1.1,1.3,1.8
			c0.3,0.7,0.4,1.4,0.4,2.2c0,0.8-0.1,1.6-0.4,2.3c-0.3,0.7-0.7,1.3-1.2,1.9c-0.5,0.6-1,1.1-1.6,1.6c-0.6,0.5-1.2,0.9-1.8,1.3l5,7
			c0.8-0.9,1.4-1.9,1.7-2.8s0.6-2.1,0.7-3.3h-3.1v-3.1h10.6v3.1h-2.8c-0.2,0.9-0.4,1.8-0.6,2.6c-0.2,0.8-0.5,1.6-0.8,2.4
			c-0.3,0.8-0.8,1.5-1.3,2.3c-0.5,0.7-1.1,1.5-1.8,2.2c0.5,0.6,1,1.3,1.6,2.1c0.6,0.8,1.2,1.5,1.8,2.2c0.6,0.7,1.1,1.3,1.6,1.8
			c0.5,0.5,0.8,0.8,1,0.9c0.1,0.1,0.4,0.2,0.8,0.2c0.4,0.1,1,0.1,1.8,0.1L415.6,328.5z M396,309.6c-0.5,0.3-0.9,0.7-1.3,1
			s-0.7,0.7-0.9,1c-0.2,0.4-0.4,0.8-0.5,1.2c-0.1,0.5-0.2,1-0.2,1.7c0,0.6,0.1,1.1,0.4,1.6c0.2,0.5,0.6,0.9,0.9,1.2
			c0.4,0.3,0.8,0.6,1.3,0.8c0.5,0.2,1,0.3,1.5,0.3c1.6,0,3-0.4,4.3-1.1L396,309.6z M400.2,300.3c0-0.7-0.2-1.2-0.5-1.6
			c-0.3-0.4-0.9-0.6-1.7-0.6c-0.9,0-1.5,0.2-1.9,0.7c-0.4,0.4-0.6,1-0.6,1.6c0,0.4,0.2,0.9,0.6,1.6c0.4,0.7,0.9,1.3,1.4,2
			c0.7-0.4,1.3-0.9,1.8-1.5C399.9,301.8,400.2,301.1,400.2,300.3z"/>
		<path id="XMLID_44_" d="M451,299.4v22.3h-4.8v-22.3h-7.8v-4.1h20.4v4.1H451z"/>
		<path id="XMLID_46_" d="M470.4,321.7v-26.4h15.8v4.2h-10.9v6.8h9.4v4.1h-9.4v7.2H487v4.1H470.4z"/>
		<path id="XMLID_48_" d="M520.4,320.7c-1.3,0.6-2.6,0.9-3.9,1.2c-1.3,0.2-2.7,0.3-4.3,0.3c-1.7,0-3.4-0.3-5.1-0.9
			c-1.7-0.6-3.2-1.5-4.5-2.6s-2.4-2.6-3.2-4.2c-0.8-1.7-1.2-3.6-1.2-5.8c0-1.9,0.4-3.7,1.1-5.3c0.7-1.7,1.7-3.1,3-4.4
			c1.3-1.2,2.8-2.2,4.5-2.9c1.7-0.7,3.6-1.1,5.6-1.1c1,0,1.9,0,2.6,0.1s1.4,0.1,2,0.3c0.6,0.1,1.2,0.3,1.7,0.4
			c0.5,0.2,1.2,0.4,1.8,0.7L520,301c-0.8-0.4-1.6-0.8-2.2-1c-0.7-0.3-1.3-0.5-1.9-0.6c-0.6-0.1-1.2-0.2-1.9-0.3s-1.3-0.1-2.1-0.1
			c-1.1,0-2.2,0.2-3.2,0.6s-2,1-2.7,1.8c-0.8,0.8-1.4,1.8-1.9,2.9s-0.7,2.5-0.7,4c0,1.4,0.2,2.7,0.7,3.9c0.5,1.2,1.1,2.2,2,3
			c0.8,0.9,1.8,1.5,2.9,2c1.1,0.5,2.3,0.7,3.5,0.7c0.6,0,1.2,0,1.7-0.1s1.1-0.1,1.7-0.3c0.6-0.1,1.2-0.3,1.9-0.6
			c0.7-0.3,1.4-0.6,2.3-1L520.4,320.7z"/>
		<path id="XMLID_50_" d="M552,321.7v-11.1h-14.1v11.1h-4.8v-26.4h4.8v11H552v-11h4.8v26.4H552z"/>
		<path id="XMLID_52_" d="M597.4,299.4v22.3h-4.8v-22.3h-7.8v-4.1h20.4v4.1H597.4z"/>
		<path id="XMLID_54_" d="M628.5,321.7l-2.1-6.1h-8.3l-2.2,6.1h-4.6l10-27.2h2.6l9.4,27.2H628.5z M622.4,303.3l-2.8,8.2h5.3
			L622.4,303.3z"/>
		<path id="XMLID_57_" d="M644.6,321.7v-26.4h4.8v22.2h11.3v4.1H644.6z"/>
		<path id="XMLID_59_" d="M685.8,321.7c-0.4-0.6-0.9-1.5-1.5-2.5c-0.6-1.1-1.3-2.2-2.1-3.3c-0.8-1.2-1.6-2.3-2.4-3.4
			c-0.9-1.1-1.7-2-2.6-2.7v11.9h-4.8v-26.4h4.8V306c1.7-1.6,3.2-3.3,4.6-5.2c1.4-1.9,2.7-3.7,4-5.4h5.7c-0.6,0.8-1.3,1.8-2.1,2.9
			c-0.8,1.1-1.6,2.2-2.4,3.3s-1.7,2.2-2.6,3.3s-1.8,2-2.7,2.8c1,0.9,1.9,2,2.9,3.2c0.9,1.2,1.9,2.5,2.7,3.8c0.9,1.3,1.7,2.6,2.5,3.8
			c0.8,1.3,1.4,2.3,2.1,3.2H685.8z"/>
		<path id="XMLID_61_" d="M718.2,314.4c0,1.3-0.3,2.5-0.8,3.4c-0.5,1-1.2,1.8-2.1,2.5s-1.8,1.1-2.9,1.5c-1.1,0.3-2.2,0.5-3.2,0.5
			c-0.7,0-1.4,0-2.1-0.1c-0.7-0.1-1.3-0.1-1.9-0.3c-0.6-0.1-1.3-0.3-1.9-0.5c-0.6-0.2-1.3-0.5-2-0.8l0.7-4.8
			c0.8,0.5,1.5,0.8,2.1,1.1c0.6,0.3,1.2,0.5,1.7,0.7c0.5,0.2,1.1,0.3,1.6,0.4c0.5,0.1,1.1,0.1,1.7,0.1c0.6,0,1.1-0.1,1.6-0.2
			c0.5-0.2,0.9-0.4,1.3-0.7s0.7-0.7,0.9-1.1c0.2-0.4,0.3-0.9,0.3-1.3c0-0.5-0.2-1-0.5-1.4c-0.3-0.4-0.7-0.8-1.2-1.1
			c-0.5-0.3-0.9-0.6-1.5-0.9c-0.5-0.3-1-0.5-1.4-0.7c-1.2-0.6-2.2-1.2-3.1-1.8c-0.9-0.6-1.6-1.2-2.2-1.8c-0.6-0.6-1.1-1.3-1.4-2
			c-0.3-0.7-0.5-1.5-0.5-2.4c0-1.1,0.2-2.1,0.6-3c0.4-0.9,1-1.7,1.7-2.4s1.7-1.2,2.7-1.6c1.1-0.4,2.2-0.6,3.6-0.6
			c0.9,0,1.7,0,2.3,0.1c0.7,0.1,1.3,0.1,1.9,0.3c0.6,0.1,1.2,0.3,1.7,0.5c0.6,0.2,1.2,0.4,1.9,0.7l-0.4,4.8
			c-0.8-0.5-1.6-0.9-2.2-1.2c-0.6-0.3-1.2-0.5-1.8-0.7s-1.1-0.3-1.6-0.3c-0.5-0.1-1.1-0.1-1.7-0.1c-1.2,0-2.1,0.3-2.7,1
			c-0.6,0.7-0.9,1.4-0.9,2.3c0,0.6,0.2,1.1,0.5,1.5s0.7,0.8,1.2,1.2c0.5,0.3,1,0.7,1.5,0.9c0.5,0.3,1,0.6,1.5,0.8
			c1,0.6,1.9,1.2,2.8,1.7c0.8,0.5,1.6,1.1,2.2,1.6c0.6,0.6,1.1,1.2,1.4,1.9C718.1,312.7,718.2,313.5,718.2,314.4z"/>
	</g>
	<g id="XMLID_4_">
		<rect id="XMLID_15_" x="327.1" y="235.2" class="st4" width="117.3" height="31"/>
		<path id="XMLID_5_" d="M327.8,264.4v-2.2c1.5-1.7,3-3.2,4.5-4.7c1.5-1.4,2.8-2.9,4-4.3c1.2-1.4,2.1-2.7,2.8-4.1
			c0.7-1.3,1-2.7,1-4.1c0-1.4-0.3-2.3-1-2.9c-0.7-0.5-1.7-0.8-2.9-0.8c-0.8,0-1.8,0.2-2.9,0.5c-1.1,0.3-2.5,0.9-4,1.7l-0.4-4.3
			c1.2-0.5,2.4-1,3.7-1.3c1.2-0.3,2.6-0.5,4.2-0.5c0.8,0,1.7,0.1,2.7,0.3c1,0.2,1.9,0.5,2.8,1c0.9,0.5,1.6,1.2,2.2,2.1
			s0.9,2.1,0.9,3.6c0,1.3-0.2,2.5-0.5,3.6c-0.3,1.1-0.8,2.1-1.4,3.1c-0.6,1-1.2,2-2,2.9c-0.8,0.9-1.6,1.9-2.5,2.8
			c-0.5,0.6-1,1.1-1.6,1.7c-0.5,0.6-1.1,1.2-1.8,1.9h10.8v3.8H327.8z"/>
		<path id="XMLID_7_" d="M374.1,251.2c0,1.8-0.2,3.5-0.5,5.1c-0.4,1.6-0.9,3.1-1.7,4.4c-0.7,1.3-1.7,2.3-2.8,3
			c-1.1,0.8-2.5,1.1-4,1.1c-1.6,0-2.9-0.4-4.1-1.1c-1.1-0.8-2.1-1.8-2.8-3c-0.7-1.3-1.3-2.7-1.6-4.4c-0.3-1.6-0.5-3.3-0.5-5.1
			s0.2-3.5,0.5-5.1c0.3-1.6,0.9-3.1,1.6-4.4s1.7-2.3,2.8-3s2.5-1.1,4.1-1.1c1.5,0,2.9,0.4,4,1.1c1.1,0.8,2.1,1.8,2.8,3
			c0.7,1.3,1.3,2.7,1.7,4.4C373.9,247.8,374.1,249.5,374.1,251.2z M368.8,251.2c0-1.4-0.1-2.7-0.2-3.9c-0.2-1.2-0.4-2.2-0.7-3.1
			c-0.3-0.9-0.7-1.5-1.2-2c-0.5-0.5-1-0.7-1.6-0.7s-1.2,0.2-1.6,0.7s-0.9,1.2-1.2,2c-0.3,0.9-0.6,1.9-0.7,3.1
			c-0.2,1.2-0.2,2.5-0.2,3.9c0,1.4,0.1,2.7,0.2,3.8c0.2,1.2,0.4,2.2,0.7,3.1c0.3,0.9,0.7,1.5,1.2,2s1,0.7,1.6,0.7s1.2-0.2,1.6-0.7
			c0.5-0.5,0.9-1.2,1.2-2c0.3-0.9,0.6-1.9,0.7-3.1C368.7,253.9,368.8,252.6,368.8,251.2z"/>
		<path id="XMLID_10_" d="M386,264.4v-3.8h4.9v-18.7H386V238h10v22.6h4.9v3.8H386z"/>
		<path id="XMLID_12_" d="M430.1,247.9c0,1.7-0.3,3.4-0.8,5.1c-0.6,1.7-1.4,3.4-2.5,5c-1.1,1.6-2.4,3.1-4.1,4.5
			c-1.6,1.4-3.5,2.7-5.6,3.8l-2.8-3.4c1-0.5,2-1,2.9-1.7c0.9-0.7,1.8-1.4,2.7-2.3c0.8-0.8,1.6-1.6,2.2-2.5c0.7-0.8,1.2-1.6,1.6-2.4
			c-0.6,0.2-1.2,0.4-1.9,0.4c-0.6,0.1-1.3,0.1-2.1,0.1c-1.4,0-2.5-0.2-3.5-0.7c-1-0.5-1.8-1.1-2.4-1.9c-0.6-0.8-1.1-1.7-1.4-2.7
			c-0.3-1-0.5-2-0.5-3c0-1.1,0.2-2.2,0.5-3.2c0.3-1,0.9-2,1.6-2.8s1.7-1.5,2.8-2c1.1-0.5,2.5-0.7,4-0.7c1.5,0,2.8,0.2,3.9,0.5
			c1.2,0.4,2.1,0.9,2.9,1.7c0.8,0.8,1.4,1.9,1.8,3.2C429.9,244.3,430.1,245.9,430.1,247.9z M424.8,248c0-1.3-0.1-2.3-0.3-3.1
			c-0.2-0.8-0.4-1.5-0.8-2c-0.3-0.5-0.8-0.8-1.3-1s-1.2-0.3-1.9-0.3c-0.6,0-1.2,0.1-1.6,0.4c-0.5,0.3-0.8,0.6-1.1,1
			c-0.3,0.4-0.5,0.9-0.6,1.4s-0.2,1.1-0.2,1.6c0,1.4,0.3,2.4,0.9,3.2c0.6,0.8,1.6,1.1,2.8,1.1c0.8,0,1.5-0.1,2.1-0.2
			c0.6-0.1,1.2-0.3,1.8-0.5c0.1-0.3,0.1-0.6,0.1-0.9V248z"/>
	</g>
</g>
<g id="XMLID_3_">
</g>
<g id="XMLID_22_">
</g>
<g id="XMLID_64_">
</g>
<g id="XMLID_65_">
</g>
<g id="XMLID_66_">
</g>
<g id="XMLID_67_">
</g>
</svg>
