<svg id="Layer_1" data-name="Layer 1" xmlns="http://www.w3.org/2000/svg" viewBox="0 0 682.32 682.26"><defs><style>.cls-1{fill:#fdc113;}.cls-2{fill:#fafbfc;}</style></defs><title>new</title><path class="cls-1" d="M723.3,504.53c-10.5-7.75-23.73-17.42-25.34-23.74A79.46,79.46,0,0,1,708.17,446c9.25-21.24,18.81-43.25,8.19-61.56s-34.77-21.27-58-23.73a78.94,78.94,0,0,1-34.68-8.28,79,79,0,0,1-8.24-34.79c-2.61-23.23-5.31-47.26-23.74-58s-40.46-1.33-61.7,8a79.63,79.63,0,0,1-34.82,10.21c-6.41-1.72-16.05-14.84-23.74-25.34-13.46-18.15-28.62-38.74-50.51-38.74s-37.06,20.59-50.43,38.74c-7.78,10.53-17.42,23.73-23.74,25.37a81.38,81.38,0,0,1-34.82-10.21c-21.36-9.4-43.37-18.78-61.62-8.22S229,294.26,226.41,317.64a79.31,79.31,0,0,1-8.24,34.67,79.24,79.24,0,0,1-34.56,8.13c-23.26,2.61-47.32,5.31-58,23.73s-1.3,40.44,8.07,61.71a79.3,79.3,0,0,1,10.21,34.91c-1.72,6.41-14.83,16.08-25.33,23.74C100.37,517.88,79.78,533.06,79.78,555s20.59,37.08,38.78,50.43c10.5,7.74,23.73,17.41,25.33,23.73a79.53,79.53,0,0,1-10.2,34.8c-9.26,21.24-18.81,43.25-8.19,61.55s34.77,21.27,58,23.73a78.94,78.94,0,0,1,34.68,8.28,79,79,0,0,1,8.25,34.79c2.61,23.23,5.31,47.26,23.73,58s40.29,1.07,61.56-8.19A81.31,81.31,0,0,1,346.77,832c6.41,1.72,16.05,14.83,23.73,25.33,13.38,18.16,28.54,38.74,50.43,38.74s37.05-20.58,50.43-38.74c7.77-10.53,17.41-23.73,23.73-25.36a80.1,80.1,0,0,1,34.83,10.2c21.24,9.26,43.25,18.75,61.52,8.22s21.3-34.77,23.91-58a79.47,79.47,0,0,1,8.25-34.68,79.38,79.38,0,0,1,34.65-8.22c23.25-2.61,47.31-5.31,58-23.73s1-40.29-8.19-61.56A79.41,79.41,0,0,1,698,629.12c1.72-6.41,14.83-16.08,25.33-23.73C741.49,592,762.11,576.82,762.11,555S741.48,517.88,723.3,504.53Z" transform="translate(-79.78 -213.81)"/><path class="cls-2" d="M331.93,629.12a14.82,14.82,0,0,1-11.86-5.94l-62.3-83.06v74.16a14.83,14.83,0,1,1-29.66,0V495.63a14.82,14.82,0,0,1,26.69-8.9l62.3,83.06V495.63a14.84,14.84,0,1,1,29.67,0V614.28a14.86,14.86,0,0,1-10.15,14.07A14.64,14.64,0,0,1,331.93,629.12Z" transform="translate(-79.78 -213.81)"/><path class="cls-2" d="M450.59,629.12H391.26a14.83,14.83,0,0,1-14.83-14.84V495.63a14.84,14.84,0,0,1,14.83-14.84h59.33a14.84,14.84,0,1,1,0,29.67H406.1v89h44.49a14.84,14.84,0,1,1,0,29.67Z" transform="translate(-79.78 -213.81)"/><path class="cls-2" d="M450.59,569.79H391.26a14.84,14.84,0,0,1,0-29.67h59.33a14.84,14.84,0,1,1,0,29.67Z" transform="translate(-79.78 -213.81)"/><path class="cls-2" d="M598.91,629.12A14.83,14.83,0,0,1,584.82,619l-15.57-46.78L553.68,619A14.19,14.19,0,0,1,539,629.09a14.82,14.82,0,0,1-13.82-11.22L495.53,499.22A14.85,14.85,0,1,1,524.34,492l17.29,69.23,13.56-40.67a15.46,15.46,0,0,1,28.15,0l13.56,40.67L614.19,492A14.85,14.85,0,1,1,643,499.22L613.33,617.87a14.82,14.82,0,0,1-13.82,11.22Z" transform="translate(-79.78 -213.81)"/></svg>