<?xml version="1.0" encoding="iso-8859-1"?>
<!-- Generator: Adobe Illustrator 19.0.0, SVG Export Plug-In . SVG Version: 6.00 Build 0)  -->
<svg version="1.1" id="Capa_1" xmlns="http://www.w3.org/2000/svg" xmlns:xlink="http://www.w3.org/1999/xlink" x="0px" y="0px"
	 viewBox="0 0 512 512" style="enable-background:new 0 0 512 512;" xml:space="preserve">
<linearGradient id="SVGID_1_" gradientUnits="userSpaceOnUse" x1="0" y1="257.9999" x2="511.9998" y2="257.9999" gradientTransform="matrix(1 0 0 -1 0 513.9998)">
	<stop  offset="0" style="stop-color:#00F2FE"/>
	<stop  offset="0.021" style="stop-color:#03EFFE"/>
	<stop  offset="0.293" style="stop-color:#24D2FE"/>
	<stop  offset="0.554" style="stop-color:#3CBDFE"/>
	<stop  offset="0.796" style="stop-color:#4AB0FE"/>
	<stop  offset="1" style="stop-color:#4FACFE"/>
</linearGradient>
<path style="fill:url(#SVGID_1_);" d="M506.071,312.213l-51.915,51.399c-11.648,11.534-27.004,17.308-42.359,17.308
	c-15.214,0-30.428-5.665-42.051-17.011l-51.717-50.487c-7.904-7.716-8.057-20.379-0.341-28.282
	c7.715-7.904,20.378-8.058,28.282-0.341L392,329.734V256c0-97.047-78.953-176-176-176c-28.929,0-57.454,7.126-82.788,20.644
	c-5.241,2.799-10.401,5.902-15.337,9.224c-3.425,2.305-7.308,3.409-11.147,3.409c-6.434,0-12.749-3.097-16.611-8.836
	c-6.167-9.163-3.737-21.592,5.427-27.759c4.474-3.011,9.098-5.875,13.802-8.552c0.076-0.044,0.153-0.088,0.229-0.132
	c1.154-0.654,2.314-1.297,3.479-1.93c0.069-0.038,0.138-0.075,0.207-0.112c0.095-0.052,0.19-0.103,0.285-0.154
	c0.196-0.105,0.392-0.211,0.587-0.316c0.007-0.003,0.013-0.007,0.02-0.01c0.088-0.047,0.176-0.095,0.264-0.142
	c0.042-0.022,0.084-0.044,0.126-0.066C145.618,48.721,180.572,40,216,40c57.695,0,111.938,22.468,152.735,63.265
	S432,198.304,432,256v73.261l45.929-45.473c7.85-7.772,20.512-7.71,28.284,0.141C513.983,291.777,513.921,304.44,506.071,312.213z
	 M20.963,283.987c11.036-0.443,19.625-9.749,19.183-20.786C40.05,260.823,40.001,258.397,40,256c0-3.591,0.109-7.218,0.324-10.779
	c0.665-11.025-7.733-20.503-18.759-21.169c-11.05-0.677-20.504,7.733-21.169,18.759C0.134,247.172,0,251.609,0,256.008
	c0.001,2.932,0.061,5.892,0.177,8.797c0.433,10.764,9.294,19.198,19.971,19.198C20.418,284.003,20.689,283.998,20.963,283.987z
	 M57.383,332.373c-4.798-9.948-16.752-14.126-26.702-9.325c-9.949,4.798-14.124,16.753-9.325,26.702
	c3.175,6.583,6.732,13.085,10.573,19.325c3.778,6.139,10.336,9.52,17.051,9.52c3.576,0,7.196-0.959,10.465-2.971
	c9.407-5.79,12.339-18.109,6.549-27.516C62.864,343.025,59.968,337.731,57.383,332.373z M216,432
	c-5.986,0-12.023-0.304-17.942-0.901c-10.976-1.117-20.799,6.896-21.909,17.887c-1.111,10.99,6.897,20.8,17.888,21.91
	c7.25,0.733,14.64,1.104,21.964,1.104h0.004c11.046,0,19.998-8.954,19.998-20S227.046,432,216,432z M130.087,409.646
	c-5.199-2.914-10.311-6.133-15.191-9.564c-9.037-6.354-21.511-4.18-27.864,4.856c-6.354,9.035-4.179,21.511,4.856,27.864
	c5.988,4.211,12.26,8.159,18.641,11.736c3.094,1.734,6.449,2.558,9.761,2.558c7.001,0,13.798-3.684,17.465-10.225
	C143.154,427.237,139.723,415.048,130.087,409.646z M61.931,133.194c-9.285-5.979-21.663-3.302-27.644,5.985
	c-3.97,6.163-7.661,12.593-10.971,19.11c-5.003,9.849-1.074,21.887,8.773,26.889c2.902,1.475,5.995,2.173,9.042,2.173
	c7.29,0,14.319-4.001,17.847-10.946c2.696-5.308,5.703-10.545,8.938-15.567C73.896,151.551,71.217,139.175,61.931,133.194z"/>
<g>
</g>
<g>
</g>
<g>
</g>
<g>
</g>
<g>
</g>
<g>
</g>
<g>
</g>
<g>
</g>
<g>
</g>
<g>
</g>
<g>
</g>
<g>
</g>
<g>
</g>
<g>
</g>
<g>
</g>
</svg>
