<?xml version="1.0" standalone="no"?>
<!DOCTYPE svg PUBLIC "-//W3C//DTD SVG 20010904//EN"
 "http://www.w3.org/TR/2001/REC-SVG-20010904/DTD/svg10.dtd">
<svg version="1.0" xmlns="http://www.w3.org/2000/svg"
 width="220.000000pt" height="229.000000pt" viewBox="0 0 220.000000 229.000000"
 preserveAspectRatio="xMidYMid meet">
<metadata>
Created by potrace 1.15, written by Peter Selinger 2001-2017
</metadata>
<g transform="translate(0.000000,229.000000) scale(0.100000,-0.100000)"
fill="#000000" stroke="none">
<path d="M971 2168 c-81 -40 -136 -168 -113 -266 5 -26 8 -59 5 -74 -8 -41 5
-96 28 -119 26 -26 89 -146 89 -169 0 -26 -30 -48 -82 -59 -113 -26 -226 -88
-253 -141 l-16 -30 471 0 c283 0 470 4 470 9 0 17 -64 77 -110 104 -25 14 -85
37 -133 51 -105 31 -107 32 -107 57 0 23 51 117 97 176 l32 43 -4 131 c-3 73
-9 146 -15 164 -15 47 -60 85 -104 89 -20 2 -44 10 -54 18 -51 45 -131 51
-201 16z"/>
<path d="M1753 1595 c-37 -16 -63 -60 -63 -106 0 -22 10 -41 35 -66 32 -32 39
-35 87 -31 52 3 53 2 70 -32 9 -19 19 -54 23 -77 l7 -43 -859 0 c-761 0 -861
-2 -881 -16 -20 -14 -22 -23 -22 -112 l0 -96 71 -108 72 -108 83 0 c46 0 84 3
84 6 0 3 -7 46 -16 95 -13 71 -14 92 -4 104 19 23 1301 23 1320 0 12 -14 7
-62 -16 -177 l-6 -28 86 0 86 0 75 112 75 113 -1 70 c-1 96 -9 117 -46 135
-18 8 -33 22 -33 30 0 36 -32 135 -52 163 -13 18 -21 43 -20 59 3 35 -21 89
-46 104 -32 20 -76 24 -109 9z"/>
<path d="M535 937 c-17 -13 -17 -24 24 -303 23 -159 44 -301 47 -316 l6 -28
487 0 486 0 50 316 c47 307 48 317 30 330 -28 20 -1102 21 -1130 1z"/>
</g>
</svg>
