<?xml version="1.0" standalone="no"?>
<!DOCTYPE svg PUBLIC "-//W3C//DTD SVG 20010904//EN"
 "http://www.w3.org/TR/2001/REC-SVG-20010904/DTD/svg10.dtd">
<svg version="1.0" xmlns="http://www.w3.org/2000/svg"
 width="225.000000pt" height="225.000000pt" viewBox="0 0 225.000000 225.000000"
 preserveAspectRatio="xMidYMid meet">
<metadata>
Created by potrace 1.15, written by Peter Selinger 2001-2017
</metadata>
<g transform="translate(0.000000,225.000000) scale(0.100000,-0.100000)"
fill="#000000" stroke="none">
<path d="M800 2235 c-24 -29 -8 -50 45 -55 l50 -5 3 -72 3 -73 204 0 204 0 3
72 c2 59 6 73 20 76 15 3 18 -9 20 -104 3 -112 13 -136 52 -121 14 5 16 26 16
146 0 117 -2 140 -16 145 -9 3 -145 6 -304 6 -239 0 -290 -2 -300 -15z"/>
<path d="M899 1953 c-4 -27 6 -73 21 -103 90 -175 366 -129 387 64 l6 46 -207
0 c-113 0 -206 -3 -207 -7z"/>
<path d="M913 1693 c-23 -3 -43 -17 -68 -45 -19 -23 -34 -43 -32 -44 2 -2 49
14 105 36 118 46 146 49 193 17 29 -20 42 -44 101 -197 77 -198 83 -241 43
-288 -15 -18 -53 -41 -92 -57 -37 -15 -84 -42 -105 -60 -46 -43 -85 -50 -170
-32 l-67 14 -5 -61 c-3 -33 -13 -186 -21 -340 -15 -261 -15 -279 1 -297 9 -11
25 -19 36 -19 16 0 18 -10 18 -125 0 -124 0 -125 29 -157 43 -48 109 -48 152
0 29 32 29 33 29 157 l0 125 39 0 39 0 3 -123 c5 -143 15 -169 78 -188 51 -15
95 1 122 45 16 26 19 51 19 149 0 110 1 117 20 117 11 0 26 10 34 23 12 19 12
67 -5 377 -11 195 -18 373 -17 395 3 38 6 33 62 -94 33 -73 69 -139 80 -147
56 -39 136 2 136 69 0 51 -300 705 -335 732 -24 18 -43 20 -208 21 -100 1
-197 0 -214 -3z"/>
<path d="M925 1564 c-65 -25 -125 -50 -132 -56 -18 -15 -16 -49 6 -101 19 -45
19 -45 98 -61 43 -10 92 -22 110 -27 39 -12 92 -70 100 -110 6 -33 14 -35 63
-11 25 12 36 24 37 42 3 37 -118 340 -142 356 -17 11 -36 7 -140 -32z"/>
<path d="M693 1432 c-6 -9 -34 -50 -62 -91 -39 -56 -51 -83 -51 -111 0 -61 24
-75 207 -115 89 -19 169 -35 178 -35 28 0 75 55 75 89 0 57 -32 79 -164 109
l-119 27 -26 72 c-23 62 -28 70 -38 55z"/>
</g>
</svg>
