<?xml version="1.0" encoding="utf-8"?>
<!-- Generator: Adobe Illustrator 23.1.0, SVG Export Plug-In . SVG Version: 6.00 Build 0)  -->
<svg version="1.1" id="Layer_1" xmlns="http://www.w3.org/2000/svg" xmlns:xlink="http://www.w3.org/1999/xlink" x="0px" y="0px"
	 viewBox="0 0 258.5 99.5" style="enable-background:new 0 0 258.5 99.5;" xml:space="preserve">
<style type="text/css">
	.st0{fill:#50575C;}
	.st1{fill-rule:evenodd;clip-rule:evenodd;fill:#50575C;}
</style>
<g id="Isolation_Mode">
	<g>
		<g>
			<path class="st0" d="M110.7,15.4H103v-4.5h20.5v4.5h-7.7v22.5h-5.2L110.7,15.4L110.7,15.4z"/>
			<path class="st0" d="M127,10.9h16.8v4.5h-11.6v6.5h10.7v4.5h-10.7v7h11.6v4.5H127V10.9z M132.7,6.4c1.9-1.2,3.8-2.4,5.5-3.6
				l1.9,3c-1.9,1.3-3.4,2.2-5.6,3.4L132.7,6.4z"/>
			<path class="st0" d="M147.9,18.3c0-4.9,2.9-7.8,9.8-7.8c2.6,0,5.2,0.3,7.4,0.9l-0.6,4.4c-2.2-0.4-4.8-0.7-6.7-0.7
				c-3.6,0-4.7,1.2-4.7,4.1v10.4c0,2.9,1.2,4.1,4.7,4.1c1.9,0,4.5-0.3,6.7-0.7l0.6,4.4c-2.3,0.6-4.9,0.9-7.4,0.9
				c-6.8,0-9.8-2.9-9.8-7.8V18.3z"/>
			<path class="st0" d="M174.5,17.5V38h-5.1V11h6.9l10.4,20.5V10.9h5.1v27h-6.9L174.5,17.5z"/>
			<path class="st0" d="M202.8,37.9h-5.2v-27h5.2V37.9z"/>
			<path class="st0" d="M207.9,18.3c0-4.9,2.9-7.8,9.8-7.8c2.6,0,5.2,0.3,7.4,0.9l-0.6,4.4c-2.2-0.4-4.8-0.7-6.7-0.7
				c-3.6,0-4.7,1.2-4.7,4.1v10.4c0,2.9,1.2,4.1,4.7,4.1c1.9,0,4.5-0.3,6.7-0.7l0.6,4.4c-2.3,0.6-4.9,0.9-7.4,0.9
				c-6.8,0-9.8-2.9-9.8-7.8V18.3z"/>
			<path class="st0" d="M249,30c0,4.5-2.6,8.3-10.4,8.3c-7.7,0-10.4-3.8-10.4-8.3V18.8c0-4.5,2.6-8.3,10.4-8.3
				c7.7,0,10.4,3.8,10.4,8.3V30z M233.4,29.7c0,2.6,1.3,4.1,5.2,4.1s5.2-1.5,5.2-4.1V19.1c0-2.6-1.3-4.1-5.2-4.1s-5.2,1.5-5.2,4.1
				V29.7z"/>
			<path class="st0" d="M113,69.9h12.3V72h-14.8V45h2.4L113,69.9L113,69.9z"/>
			<path class="st0" d="M133.3,72h-2.4V45h2.4V72z"/>
			<path class="st0" d="M147.8,72.4c-2.4,0-5.4-0.4-7.7-1.3l0.5-1.9c2.5,0.7,5,1.1,7.4,1.1c4.7,0,6-1.4,6-4.8c0-4.2,0-4.6-6.1-6
				c-6.6-1.5-7.4-2.7-7.4-8.1c0-4.4,1.6-6.7,8.5-6.7c2.4,0,5.2,0.4,7.1,0.9l-0.3,2c-2-0.4-4.6-0.8-6.7-0.8c-5.4,0-6.2,1.3-6.2,4.7
				c0,4.4,0.1,4.6,5.9,6c7.2,1.8,7.6,2.8,7.6,7.9C156.2,69.7,154.7,72.4,147.8,72.4z"/>
			<path class="st0" d="M162.8,72V45h10.3c3.7,0,5.9,1.7,5.9,5.3v3.2c0,2.1-0.9,3.6-3.1,4.4c2.1,0.3,4,2,4,5v3.5
				c0,3.7-2.8,5.5-6.3,5.5L162.8,72L162.8,72L162.8,72z M176.5,50c0-1.9-1.1-2.9-3.4-2.9h-7.9v10h7.1c3,0,4.2-1.5,4.2-3.7L176.5,50
				L176.5,50z M177.4,63c0-2.3-1.4-3.8-4.5-3.8h-7.7v10.7h8.4c2.6,0,3.8-1.3,3.8-3.4V63z"/>
			<path class="st0" d="M194.5,72.4c-7,0-9.6-3.4-9.6-8V52.6c0-4.6,2.6-8,9.6-8s9.6,3.4,9.6,8v11.8C204.1,69,201.6,72.4,194.5,72.4z
				 M201.7,64.3V52.7c0-3.9-1.9-6-7.2-6s-7.2,2.1-7.2,6v11.6c0,3.9,1.9,6,7.2,6S201.7,68.2,201.7,64.3z"/>
			<path class="st0" d="M225.7,64.9h-12.8l-2.6,7.1H208l9.5-27h3.6l9.5,27h-2.4L225.7,64.9z M213.7,62.8H225l-5.6-16.5L213.7,62.8z"
				/>
		</g>
		<path class="st1" d="M8.9,2.2c0,0,0,15.3,0,39c0,35.1,38.3,53.9,38.3,53.9s38.4-18.8,38.4-53.9c0-23.7,0-39,0-39L8.9,2.2L8.9,2.2z
			 M30,26.7h6.9v28.8H30V26.7z M50.7,19v44.2c0,5.7-4.6,8.7-10.4,8.7c-5.7,0-10.4-2.5-10.4-7.4l0,0c0-1.9,1.5-3.5,3.5-3.5
			c1.9,0,3.5,1.5,3.5,3.5l0,0c0,3.5,0.3,5.9,3.5,5.9c3.4,0,3.4-2.4,3.4-7.2V19c0-5.7,4.6-8.7,10.4-8.7c5.7,0,10.4,2.5,10.4,7.4l0,0
			c0,1.9-1.5,3.5-3.5,3.5c-1.9,0-3.4-1.5-3.4-3.5l0,0c0-3.5-0.3-5.9-3.5-5.9C50.7,11.8,50.7,14.2,50.7,19z M67.7,31.5h-3.2v24h-6.9
			v-24h-3.2v-4.8h13.3V31.5z"/>
	</g>
</g>
</svg>
