<?xml version="1.0" encoding="iso-8859-1"?>
<!-- Generator: Adobe Illustrator 19.0.0, SVG Export Plug-In . SVG Version: 6.00 Build 0)  -->
<svg version="1.1" id="Capa_1" xmlns="http://www.w3.org/2000/svg" xmlns:xlink="http://www.w3.org/1999/xlink" x="0px" y="0px"
	 viewBox="0 0 512 512" style="enable-background:new 0 0 512 512;" xml:space="preserve">
<polygon style="fill:#3E5959;" points="121.5,256 91.5,361 0.5,361 0.5,151 91.5,151 "/>
<polygon style="fill:#384949;" points="0.5,256 121.5,256 91.5,361 0.5,361 "/>
<g>
	<path style="fill:#73BCFF;" d="M511.5,256c0,68.099-26.4,131.999-74.7,180.3L415.5,415c42.599-42.299,66-99,66-159
		s-23.401-116.7-66-159l21.3-21.3C485.1,123.999,511.5,187.899,511.5,256z"/>
	<path style="fill:#73BCFF;" d="M451.5,256c0,52.2-20.4,101.1-57.001,137.999L373.2,372.7c31.199-31.201,48.3-72.601,48.3-116.7
		c0-44.101-17.1-85.501-48.3-116.7l21.299-21.301C431.1,154.9,451.5,203.8,451.5,256z"/>
	<path style="fill:#73BCFF;" d="M391.5,256c0,36-14.099,69.899-39.6,95.4l-21-21.301C350.7,310.3,361.5,284.2,361.5,256
		s-10.8-54.3-30.901-74.401L351.9,160.6C377.401,186.099,391.5,220,391.5,256z"/>
</g>
<polygon style="fill:#4A696F;" points="271.5,0 271.5,512 91.5,361 91.5,151 "/>
<g>
	<path style="fill:#3AAAFF;" d="M391.5,256c0,36-14.099,69.899-39.6,95.4l-21-21.301C350.7,310.3,361.5,284.2,361.5,256H391.5z"/>
	<path style="fill:#3AAAFF;" d="M451.5,256c0,52.2-20.4,101.1-57.001,137.999L373.2,372.7c31.199-31.201,48.3-72.601,48.3-116.7
		H451.5z"/>
	<path style="fill:#3AAAFF;" d="M511.5,256c0,68.099-26.4,131.999-74.7,180.3L415.5,415c42.599-42.299,66-99,66-159H511.5z"/>
</g>
<polygon style="fill:#3E5959;" points="271.5,256 271.5,512 91.5,361 91.5,256 "/>
<g>
</g>
<g>
</g>
<g>
</g>
<g>
</g>
<g>
</g>
<g>
</g>
<g>
</g>
<g>
</g>
<g>
</g>
<g>
</g>
<g>
</g>
<g>
</g>
<g>
</g>
<g>
</g>
<g>
</g>
</svg>
