<svg id="Layer_1" data-name="Layer 1" xmlns="http://www.w3.org/2000/svg" xmlns:xlink="http://www.w3.org/1999/xlink" viewBox="0 0 732.28 696.5"><defs><style>.cls-1{fill:none;}.cls-2{clip-path:url(#clip-path);}.cls-3{clip-path:url(#clip-path-2);}.cls-4{clip-path:url(#clip-path-4);}.cls-5{fill:#1e9cd8;}</style><clipPath id="clip-path" transform="translate(-64.15 -224.65)"><rect class="cls-1" x="64.15" y="224.64" width="732.28" height="696.5"/></clipPath><clipPath id="clip-path-2" transform="translate(-64.15 -224.65)"><rect class="cls-1" x="-338.99" y="-2854.73" width="3349.83" height="4573.64"/></clipPath><clipPath id="clip-path-4" transform="translate(-64.15 -224.65)"><rect class="cls-1" x="64.15" y="704.31" width="732.28" height="216.84"/></clipPath></defs><title>neec</title><g class="cls-2"><g class="cls-3"><g class="cls-3"><g class="cls-4"><g class="cls-3"><g class="cls-3"><path class="cls-5" d="M64.15,713.29a17.15,17.15,0,0,1,.29-2.84,7.86,7.86,0,0,1,1.21-3,10.57,10.57,0,0,1,1.94-2.25,3.35,3.35,0,0,1,2.24-.9H84.52a14.22,14.22,0,0,1,5.08,1,10.08,10.08,0,0,1,4.2,2.85L221.69,887.3V713a8.64,8.64,0,0,1,.45-2.85,11.85,11.85,0,0,1,1.19-2.55,9.09,9.09,0,0,1,1.8-2.1,3.45,3.45,0,0,1,2.24-.9h13.78a4.45,4.45,0,0,1,2.7.9,9.25,9.25,0,0,1,2.1,2.25,14.67,14.67,0,0,1,1.5,3,9.49,9.49,0,0,1,.59,3.16v195a29,29,0,0,1-.3,3.75,16.44,16.44,0,0,1-1,4,13.79,13.79,0,0,1-1.8,3.14,3.45,3.45,0,0,1-2.85,1.35H224.68a15.11,15.11,0,0,1-7.19-1.95,19.6,19.6,0,0,1-6-4.94L87.8,747.73v39.84a22.14,22.14,0,0,0,.75,5.54,25.16,25.16,0,0,0,2.11,5.39c.9,1.7,1.89,3.4,3,5.09s2.24,3.39,3.44,5.09,2.35,3.4,3.45,5.1a56.42,56.42,0,0,1,3,5.23,30.28,30.28,0,0,1,2.1,5.39,21.61,21.61,0,0,1,.75,5.7v84.46a4.31,4.31,0,0,1-.75,2.54,11.37,11.37,0,0,1-1.8,2,9.36,9.36,0,0,1-2.55,1.49,7.28,7.28,0,0,1-2.69.6H71.33a6.29,6.29,0,0,1-2.54-.6,10.27,10.27,0,0,1-2.39-1.49A6.72,6.72,0,0,1,64.75,917a5.25,5.25,0,0,1-.6-2.39Z" transform="translate(-64.15 -224.65)"/><path class="cls-5" d="M278.59,715.69a9.35,9.35,0,0,1,1.05-4.2,14.65,14.65,0,0,1,2.69-3.74,11.85,11.85,0,0,1,3.75-2.54,10.37,10.37,0,0,1,4.19-.9h119.5a11.07,11.07,0,0,1,2.24.29,20.07,20.07,0,0,1,2.55.75,4.59,4.59,0,0,1,1.95,1.36,3.15,3.15,0,0,1,.75,2.09V722a5.29,5.29,0,0,1-.6,2.39,6.8,6.8,0,0,1-1.64,2.1,9.42,9.42,0,0,1-2.4,1.49,6.16,6.16,0,0,1-2.55.61H308.54a4.52,4.52,0,0,0-1.64.29,3.37,3.37,0,0,0-1.36,1.06,13,13,0,0,0-1,1.49,3.15,3.15,0,0,0-.45,1.65v63.5a4.06,4.06,0,0,0,.45,1.8,6.18,6.18,0,0,0,1.19,1.64,6.68,6.68,0,0,0,1.65,1.2,4,4,0,0,0,1.8.45H410.07a6.58,6.58,0,0,1,2.4.45,10.18,10.18,0,0,1,2.09,1,8,8,0,0,1,1.65,1.5,3.18,3.18,0,0,1,.75,2.1v11.38a6.25,6.25,0,0,1-.6,2.54,7.74,7.74,0,0,1-1.65,2.4,13,13,0,0,1-2.24,1.8,4.5,4.5,0,0,1-2.4.75H324.41a5.09,5.09,0,0,0-1.94.44,5.7,5.7,0,0,0-1.8,1.21,5.34,5.34,0,0,0-1.19,1.79,4.83,4.83,0,0,0-.46,2v59.89a3.82,3.82,0,0,0,.46,1.8,3.77,3.77,0,0,0,1.34,1.5,7.39,7.39,0,0,0,1.8.9,5.6,5.6,0,0,0,1.79.3h87.16a8.12,8.12,0,0,1,2.55.45,19.3,19.3,0,0,1,2.54,1,8,8,0,0,1,2.1,1.5,2.84,2.84,0,0,1,.9,2.09v15.57a3.82,3.82,0,0,1-.46,1.8,8.69,8.69,0,0,1-1,1.65,5,5,0,0,1-1.35,1.19,3,3,0,0,1-1.65.46H290.27a11.55,11.55,0,0,1-3.89-.75,17.49,17.49,0,0,1-3.89-1.95,9.53,9.53,0,0,1-2.85-2.84,6.83,6.83,0,0,1-1.05-3.74Z" transform="translate(-64.15 -224.65)"/><path class="cls-5" d="M445.11,715.69a9.35,9.35,0,0,1,1.05-4.2,14.41,14.41,0,0,1,2.69-3.74,11.85,11.85,0,0,1,3.75-2.54,10.41,10.41,0,0,1,4.19-.9H576.3a11.33,11.33,0,0,1,2.24.29,19.92,19.92,0,0,1,2.54.75,4.53,4.53,0,0,1,1.95,1.36,3.1,3.1,0,0,1,.75,2.09V722a5.29,5.29,0,0,1-.6,2.39,6.51,6.51,0,0,1-1.64,2.1,9.42,9.42,0,0,1-2.4,1.49,6.12,6.12,0,0,1-2.55.61H475.06a4.59,4.59,0,0,0-1.64.29,3.28,3.28,0,0,0-1.35,1.06,14.58,14.58,0,0,0-1.05,1.49,3.15,3.15,0,0,0-.45,1.65v63.5a4.06,4.06,0,0,0,.45,1.8,6.45,6.45,0,0,0,1.2,1.64,6.12,6.12,0,0,0,1.64,1.2,4,4,0,0,0,1.8.45H576.59a6.54,6.54,0,0,1,2.4.45,10.18,10.18,0,0,1,2.09,1,7.53,7.53,0,0,1,1.65,1.5,3.18,3.18,0,0,1,.75,2.1v11.38a6.25,6.25,0,0,1-.6,2.54,7.91,7.91,0,0,1-1.65,2.4,12.28,12.28,0,0,1-2.24,1.8,4.47,4.47,0,0,1-2.4.75H490.94a5.1,5.1,0,0,0-1.95.44,5.54,5.54,0,0,0-3,3,4.81,4.81,0,0,0-.45,2v59.89a4,4,0,0,0,1.79,3.3,7.57,7.57,0,0,0,1.8.9,5.62,5.62,0,0,0,1.8.3h87.15a8.07,8.07,0,0,1,2.55.45,19.3,19.3,0,0,1,2.54,1,8,8,0,0,1,2.1,1.5,2.84,2.84,0,0,1,.9,2.09v15.57a3.93,3.93,0,0,1-.45,1.8,9.26,9.26,0,0,1-1.05,1.65,5,5,0,0,1-1.34,1.19,3.12,3.12,0,0,1-1.65.46H456.79a11.64,11.64,0,0,1-3.89-.75,18.23,18.23,0,0,1-3.9-1.95,9.72,9.72,0,0,1-2.84-2.84,6.83,6.83,0,0,1-1.05-3.74Z" transform="translate(-64.15 -224.65)"/><path class="cls-5" d="M783.55,704.6a11.86,11.86,0,0,1,4.34.89,18,18,0,0,1,4.19,2.4,14,14,0,0,1,3.15,3.3,7,7,0,0,1,1.2,3.89v38.64a5.49,5.49,0,0,1-.6,2.4,11.68,11.68,0,0,1-1.65,2.39,7.28,7.28,0,0,1-2.25,1.79,5.13,5.13,0,0,1-2.39.6H758.69a6.06,6.06,0,0,1-2.54-.6,9.71,9.71,0,0,1-2.4-1.49,8.11,8.11,0,0,1-1.8-2.25,5.36,5.36,0,0,1-.75-2.55V734a7,7,0,0,0-.44-2.4,7.79,7.79,0,0,0-1.35-2.24,6.8,6.8,0,0,0-2.1-1.65,5.29,5.29,0,0,0-2.4-.6h-100a3.82,3.82,0,0,0-2.25.75,7.88,7.88,0,0,0-1.8,1.8,8.62,8.62,0,0,0-1.19,2.39,7.4,7.4,0,0,0-.45,2.25v60.2a4.87,4.87,0,0,0,.74,1.94c.51.9,1.15,2,2,3.3s1.69,2.7,2.69,4.2,2,3.08,3.14,4.79a56.38,56.38,0,0,1,3.15,5.54,66,66,0,0,1,2.7,6.14,45.62,45.62,0,0,1,1.94,6.58,31.72,31.72,0,0,1,.75,6.75v56a7.48,7.48,0,0,0,.6,3.3,5.92,5.92,0,0,0,1.5,1.94,3.84,3.84,0,0,0,1.94.9,16,16,0,0,0,2.26.15H764.38a4.5,4.5,0,0,0,2.4-.75,6.89,6.89,0,0,0,2-1.8,9.12,9.12,0,0,0,1.19-2.4,8,8,0,0,0,.45-2.53V846.56a7.28,7.28,0,0,1,.6-2.69,7.49,7.49,0,0,1,1.65-2.55,13,13,0,0,1,2.24-1.8,4.59,4.59,0,0,1,2.4-.75h11.38a5.35,5.35,0,0,1,2.54.75,7.06,7.06,0,0,1,2.25,2,11.51,11.51,0,0,1,1.5,2.69,7.41,7.41,0,0,1,.6,2.7V908a10.11,10.11,0,0,1-1.2,4.49,16.66,16.66,0,0,1-3.15,4.35,17.42,17.42,0,0,1-4.19,3.13,9.62,9.62,0,0,1-4.64,1.21H625.11a12.29,12.29,0,0,1-4.64-1,15.1,15.1,0,0,1-4.49-2.84,15.43,15.43,0,0,1-3.15-4,9.32,9.32,0,0,1-1.19-4.34V716.58a9.23,9.23,0,0,1,1-4.19,14.79,14.79,0,0,1,2.85-3.89,13.93,13.93,0,0,1,4-2.85,10.08,10.08,0,0,1,4.35-1Z" transform="translate(-64.15 -224.65)"/></g></g></g><path class="cls-5" d="M356.76,401.21l-.12,97.59-20.07-.41.2-97.1Zm103.75-2.91v15.64l-11.36.16.4,86.51-22.4-.44-.2-85.39-10.88.13-.2-15Zm-43.84-57.08a52.62,52.62,0,0,1,5.93.36c2.38.27,4.4.67,5.92,1a29.38,29.38,0,0,1,6.32,2.62,29,29,0,0,1,6.77,5,24.4,24.4,0,0,1,5.28,7.86,22.84,22.84,0,0,1,1.49,5,26.49,26.49,0,0,1,.4,5.88,9.45,9.45,0,0,1-1,4.15,9.05,9.05,0,0,1-2.5,3,11.62,11.62,0,0,1-3.5,1.85,14.13,14.13,0,0,1-4,.72,14,14,0,0,1-4-.4,12.1,12.1,0,0,1-3.7-1.53,9.05,9.05,0,0,1-2.66-2.78,8.39,8.39,0,0,1-1.24-3.83L425,358.17c-.11-1.14-.13-2.64-.33-4a6.36,6.36,0,0,0-1.24-3.31,13,13,0,0,0-3.27-2.41,14.26,14.26,0,0,0-4.64-1.54,11.56,11.56,0,0,0-5.27.45,13.07,13.07,0,0,0-5.36,3.5,7.11,7.11,0,0,0-1.45,3.47,25.67,25.67,0,0,0-.44,4.51c-.43,34.11-.2,67.23.07,96.29s-1.1,56.37-1.41,77a22.75,22.75,0,0,1-1.49,7.77,27.41,27.41,0,0,1-3.94,7,24.75,24.75,0,0,1-5.57,5.4,18.41,18.41,0,0,1-6.68,3,54.76,54.76,0,0,1-14.35.64,41.41,41.41,0,0,1-19.5-5.81,30.55,30.55,0,0,1-6.72-5.15,20.67,20.67,0,0,1-4.76-7.74,20.12,20.12,0,0,1-1-5,24.91,24.91,0,0,1,.28-5.76,13.07,13.07,0,0,1,1.29-4.11,9.34,9.34,0,0,1,2.26-2.86,8.39,8.39,0,0,1,2.94-1.57,9,9,0,0,1,3.3-.37,10.31,10.31,0,0,1,6.12,2.74,11,11,0,0,1,2.31,3,13.62,13.62,0,0,1,1.25,4.12c.68,4.45,1.09,10.8,1.41,15.06a7.18,7.18,0,0,0,1.05,3.19,9.91,9.91,0,0,0,2.29,2.69,13.87,13.87,0,0,0,6.77,2.94,11.05,11.05,0,0,0,3.63,0,7.56,7.56,0,0,0,3.06-1.28,6.59,6.59,0,0,0,2.21-2.58,10,10,0,0,0,.85-4.19L382,362.69a31.28,31.28,0,0,1,2.18-5.32,27.42,27.42,0,0,1,3.3-4.79,27.93,27.93,0,0,1,4.4-4.19,33.05,33.05,0,0,1,5.8-3.51,49.12,49.12,0,0,1,14.1-3.38c.9-.08,1.79-.21,2.66-.25S416,341.21,416.67,341.22ZM596.9,224.65c-.61,0-1.24,0-1.89.08a35,35,0,0,0-6.53,1.08,38,38,0,0,0-4.72,1.9,51.37,51.37,0,0,0-4.51,2.7,33.06,33.06,0,0,0-4.75,4.15,49.26,49.26,0,0,0-3.91,5,39.67,39.67,0,0,0-3.06,6.09,17.32,17.32,0,0,1-1.37,2.94,1.76,1.76,0,0,1-1.21.85c-.64.12-15.79,1.67-33.68,3.46l-32.52,3.26-1.13,1.17c-1.42,1.46-5.67,6.12-22,24.22-7.21,8-13.56,14.76-14.09,14.95s-31.76,2.87-69.39,6l-68.42,5.6-15.27-15.51-15.27-15.48-24,2.47c-13.2,1.36-24.55,2.44-25.26,2.38a1.65,1.65,0,0,1-1.25-.57,9,9,0,0,1-1-2.26,27,27,0,0,0-2.51-4.95,24.35,24.35,0,0,0-3.14-3.71,20.48,20.48,0,0,0-4-2.62,14.28,14.28,0,0,0-5.4-1.41,13.54,13.54,0,0,0-5.48.56,24.57,24.57,0,0,0-4.55,2.14,25.35,25.35,0,0,0-4.31,3.71,30.33,30.33,0,0,0-3.79,5.43,38.82,38.82,0,0,0-2.58,6.9,23.26,23.26,0,0,0-.77,3.95,34,34,0,0,0,0,4.55,31.16,31.16,0,0,0,1.21,7.65,29.25,29.25,0,0,0,2,4.72,25.18,25.18,0,0,0,3.09,3.91,21.4,21.4,0,0,0,4.44,3.38,12.44,12.44,0,0,0,2.66,1.17,15.13,15.13,0,0,0,4,.36,16.3,16.3,0,0,0,4-.36,14.75,14.75,0,0,0,2.87-1.13,23.78,23.78,0,0,0,5.12-3.59,29.92,29.92,0,0,0,3.94-4.63,32.59,32.59,0,0,0,2.3-4.39c.54-1.35,1.21-2.21,1.77-2.34s9.89-1,20.87-2,20.82-1.92,21.88-2.06l1.94-.28,3.26,3.31c1.78,1.8,5,5.1,7.14,7.33a39,39,0,0,1,2.81,3.18c.59.77.81,1.26.68,1.45-.23.39-2.71.77-7.45,1.21a43.72,43.72,0,0,0-16.6,4,40.54,40.54,0,0,0-6.92,4.35,51.91,51.91,0,0,0-5.13,5,60.08,60.08,0,0,0-4.35,6.17,49.37,49.37,0,0,0-3.46,7.29c-.74,2.06-1.72,5.23-2.14,7.05a35.41,35.41,0,0,0-.64,6.05c-.14,3-.23,7.4-.33,14.23-.12,9.31-.24,16.94-.28,16.95s-5.74.33-12.65.65l-12.53.57-2-2.06c-1.08-1.14-4.1-4.52-6.73-7.5-8.33-9.41-23.09-25.92-24.62-27.55a5.59,5.59,0,0,1-1.45-2.26,20.52,20.52,0,0,1,1.25-3.83A54.69,54.69,0,0,0,197,334a37.56,37.56,0,0,0,.6-6.93,32.51,32.51,0,0,0-.25-4.27,20.93,20.93,0,0,0-.8-3.59,43.11,43.11,0,0,0-1.81-4.95,24.32,24.32,0,0,0-2.86-3.87,19,19,0,0,0-4.19-3.38,19.46,19.46,0,0,0-4.8-1.66,11.7,11.7,0,0,0-4.51-.08,28.67,28.67,0,0,0-4.07,1.37,19.3,19.3,0,0,0-5.2,4,23.54,23.54,0,0,0-4.39,6,39.24,39.24,0,0,0-2.1,5.56,42.5,42.5,0,0,0-1,6.25,24.52,24.52,0,0,0,.48,7.18,35.34,35.34,0,0,0,2,6.4,25.06,25.06,0,0,0,3.71,5.32,19.47,19.47,0,0,0,4,3.3,24.41,24.41,0,0,0,3.7,1.33,12.25,12.25,0,0,0,4.08.33l1.93-.25,2,2.1c1.11,1.15,5.66,6.26,10.07,11.32s8.12,9.31,8.26,9.43c.35.31,18.89,21.39,20,22.76l.92,1.17,15.23-.48c8.37-.26,15.33-.39,15.51-.28s.37,12,.37,26.39c0,11.72,0,18.26-.12,21.92s-.29,4.39-.61,4.51-14,.29-30.18.28-29.68-.18-30-.36a7.06,7.06,0,0,1-1.29-2.58,38,38,0,0,0-2.26-5,22.91,22.91,0,0,0-3.91-4.88,21.38,21.38,0,0,0-4.35-3,18.38,18.38,0,0,0-5-1.12,12.9,12.9,0,0,0-5.4.6,17.75,17.75,0,0,0-4.56,2.5,25.18,25.18,0,0,0-3.5,3.35,28.79,28.79,0,0,0-2.66,4.38,31.74,31.74,0,0,0-2.06,6.13,28,28,0,0,0-.48,7.86,37.08,37.08,0,0,0,1.12,7.25,31.85,31.85,0,0,0,2.26,5.15,26.19,26.19,0,0,0,3.75,4.72,20.89,20.89,0,0,0,5,3.51,13.12,13.12,0,0,0,2.69,1,15.21,15.21,0,0,0,2.94.28,12.82,12.82,0,0,0,2.95-.25,13.62,13.62,0,0,0,2.85-1,14.88,14.88,0,0,0,2.79-1.61,20.34,20.34,0,0,0,2.61-2.42,25.45,25.45,0,0,0,3.83-5.32,17.1,17.1,0,0,0,1.22-3c0-.21.33-.48.76-.6s14.45-.08,31.1.08l30.26.29.13,24.65c.06,13.57,0,24.79-.2,24.94s-7.13,0-15.4-.32l-15-.6-2.45,2.58c-1.36,1.43-7.42,8.24-13.46,15.11s-12.29,14-13.86,15.79a20,20,0,0,1-3.27,3.35,13,13,0,0,1-2.78-1.78,24.18,24.18,0,0,0-4.11-2.54,15.26,15.26,0,0,0-8.54-.88,18.81,18.81,0,0,0-4.35,1.73,19.75,19.75,0,0,0-6.85,7.5,30.47,30.47,0,0,0-2.26,18.93c1.29,4.87,3.45,9.84,6.81,13.26a20.68,20.68,0,0,0,5.36,3.78,14.06,14.06,0,0,0,14.43-1.29,22.4,22.4,0,0,0,4-4c3.32-4.56,4.56-10.7,4.63-15.71v-4.15L205.83,557c5.12-5.73,10.45-11.68,11.8-13.22s4.27-4.84,6.49-7.33l4-4.56,3.38.05c1.86,0,7.59.28,12.77.56l9.43.53.28,9.86a109,109,0,0,0,1.05,13.87,59.14,59.14,0,0,0,2.06,7.57,52.11,52.11,0,0,0,2.9,6.45,57.79,57.79,0,0,0,4.23,6.13,44.92,44.92,0,0,0,4.75,5c1.19,1,3,2.39,4,3.1a41.45,41.45,0,0,0,5.11,2.82,40.07,40.07,0,0,0,7.37,2.38c2.28.46,7.49,1,11.57,1.33s7.82.62,8.34.72.92.44.92.76-4.26,5-9.46,10.4l-9.47,9.8-22.64-2.1c-12.46-1.16-22.86-2.32-23.13-2.53a6.77,6.77,0,0,1-1.09-2.35,31.75,31.75,0,0,0-1.69-4.14,36.59,36.59,0,0,0-2.91-4.6,25.35,25.35,0,0,0-4.43-4.34,16.19,16.19,0,0,0-20.83,1.28c-4.66,4.65-6.4,11.59-6.48,17.41A31.84,31.84,0,0,0,207,625.4a29.12,29.12,0,0,0,4.11,6.07,17.37,17.37,0,0,0,21.23,4.36,24,24,0,0,0,3.66-3.22,23.5,23.5,0,0,0,3.31-4.76A15.31,15.31,0,0,1,241,625c.19-.11,12,1,26.31,2.5l26,2.7L311,612.18l17.72-18,25.79,2.11c14.19,1.14,42.46,3.41,62.82,5s37.44,3,37.95,3.1,3.55,3.08,6.73,6.57,6.11,6.7,6.49,7.09c.65.67,9.3,10.32,13.91,15.52,1.08,1.23,3.21,3.54,4.71,5.15s4.6,5,6.92,7.62a49.19,49.19,0,0,0,3.71,3.82,4.65,4.65,0,0,0,2.09,1.25c.89.19,16.55,1.85,34.82,3.7s33.43,3.45,33.73,3.55a9.67,9.67,0,0,1,1.89,2.91,47.3,47.3,0,0,0,2.66,4.63,34.84,34.84,0,0,0,3.43,4.07,46.52,46.52,0,0,0,4.42,3.9,33.88,33.88,0,0,0,5.4,3.15,39.18,39.18,0,0,0,5.6,2,35.4,35.4,0,0,0,6.57.64,30.85,30.85,0,0,0,7-.77,29.29,29.29,0,0,0,5.84-2.38,31.16,31.16,0,0,0,5.25-3.86,33.21,33.21,0,0,0,3.91-4.71,17.3,17.3,0,0,0,1.84-3.75,6.14,6.14,0,0,1,.73-1.77,10.58,10.58,0,0,0,.84-2.71,44.07,44.07,0,0,0,.73-5.43,27.21,27.21,0,0,0-.52-7.14,42.87,42.87,0,0,0-1.41-5.52c-.37-.89-1-2.31-1.37-3.18a39.37,39.37,0,0,0-3.38-5.15,34.15,34.15,0,0,0-10.57-9.35,32.46,32.46,0,0,0-5.28-2.34,19.57,19.57,0,0,0-3.83-1,33,33,0,0,0-4.66-.24,25.13,25.13,0,0,0-19,7.69,20.06,20.06,0,0,0-5,7.46c-.48,1-1,2.23-1.14,2.66s-.69.77-1.57.77-11.2-.91-23.25-2-25.29-2.36-29.49-2.74l-7.65-.69-2-2.09c-1.12-1.16-3.35-3.52-4.92-5.24l-4.71-5.16c-1-1.11-4-4.37-6.52-7.21s-4.94-5.29-5.25-5.48a.87.87,0,0,1-.27-1c.16-.44.86-.69,2.09-.69,1,0,5.31.31,9.51.69s10.12.69,13.21.72a48.36,48.36,0,0,0,9.15-.69,56,56,0,0,0,6.29-1.65,50.91,50.91,0,0,0,5-2.13,58.71,58.71,0,0,0,5.88-3.71,42.15,42.15,0,0,0,6-5.28,62.6,62.6,0,0,0,4-5.08c.89-1.31,2.17-3.39,2.82-4.63a51.7,51.7,0,0,0,2.34-5.68,54.42,54.42,0,0,0,1.69-6.29c.28-1.56.58-7.93.68-14.14.14-8.25.33-11.3.72-11.44s8.24.16,17.62.61l17,.8,24.83,25c8.76,8.82,14.93,15.1,18.9,19.27s5.73,6.15,5.63,6.4a17.69,17.69,0,0,0-.56,2.66,21.05,21.05,0,0,0,.33,5.19c.3,1.77.86,4.33,1.24,5.69a37.92,37.92,0,0,0,2,5.15,44.65,44.65,0,0,0,2.57,4.51,40.1,40.1,0,0,0,3.8,4.36,33.46,33.46,0,0,0,3.9,3.35,51.41,51.41,0,0,0,5,3.17,35.15,35.15,0,0,0,5.36,2.09,38.63,38.63,0,0,0,7.13,1.46,24.65,24.65,0,0,0,7.13-.49,42.75,42.75,0,0,0,6.57-1.93,32.11,32.11,0,0,0,5.92-3.5,31.59,31.59,0,0,0,4.75-4.51,28.9,28.9,0,0,0,2.66-4.24,19.83,19.83,0,0,1,1.21-2.25,15.05,15.05,0,0,0,1-2.66c.42-1.36.88-3.21,1.05-4.07a35.43,35.43,0,0,0,.32-4.92,36.36,36.36,0,0,0-.44-5.6c-.25-1.23-.76-3.16-1.13-4.27s-1-2.65-1.29-3.38-1.49-2.75-2.58-4.47a37.27,37.27,0,0,0-4.51-5.65,45.25,45.25,0,0,0-4.71-4,37.75,37.75,0,0,0-4.92-2.73,47.22,47.22,0,0,0-6.57-2.19,35.26,35.26,0,0,0-6.88-.92,39.86,39.86,0,0,0-6.37.64,37.31,37.31,0,0,0-7.3,2.79L646.54,581l-11.76-11.68c-14.77-14.7-24.67-24.51-31-30.66s-9-8.63-9.47-8.71-10.2-.52-21.56-.92-20.76-.87-20.94-1-.31-13.32-.25-29.17L551.7,470l22.2.08c12.21,0,32.8.21,45.73.36l23.49.28a62.93,62.93,0,0,0,4.15,7,36.66,36.66,0,0,0,4,4.35,34.2,34.2,0,0,0,5.35,3.78,45.54,45.54,0,0,0,5.68,2.58,41.33,41.33,0,0,0,6.86,1.45,25.87,25.87,0,0,0,4.11.28,21.63,21.63,0,0,0,3.86-.52,45.54,45.54,0,0,0,6.41-1.81,42.46,42.46,0,0,0,5-2.54,35.3,35.3,0,0,0,4.87-3.75,36.1,36.1,0,0,0,3.95-4.51,30.91,30.91,0,0,0,5.44-14.47,34,34,0,0,0-1-12.12,17.74,17.74,0,0,0-.93-2.82A33.28,33.28,0,0,0,694,437.47a30.59,30.59,0,0,0-3.74-3.34,26.23,26.23,0,0,0-4.16-2.42,38.41,38.41,0,0,0-7.61-2.82,30.81,30.81,0,0,0-8.3-.48,26.6,26.6,0,0,0-7.49,1.17,54.33,54.33,0,0,0-5.85,2.61,22.6,22.6,0,0,0-3.34,2.18,37.52,37.52,0,0,0-3.5,3.1,32.69,32.69,0,0,0-3.19,3.59,22,22,0,0,0-2.14,3.58c-.94,1.95-1.86,3.89-2.77,5.85H551.7l-.13-30.87c0-12.23,0-19.93,0-24.61s.17-6.37.4-6.45,10.17-.51,21.88-.89,21.33-.75,21.39-.8c.27-.26,35.53-35.17,49.56-49.08l15.51-15.39h3.1a30.14,30.14,0,0,0,6.49-.93c1.84-.5,4.17-1.24,5.16-1.65a43,43,0,0,0,4.79-2.66,39.13,39.13,0,0,0,5.89-4.79,37.1,37.1,0,0,0,4.7-6,24.47,24.47,0,0,0,2.71-5.32,44.1,44.1,0,0,0,1.57-6,52.83,52.83,0,0,0,.73-6.13,24.72,24.72,0,0,0-.36-5.95,19.87,19.87,0,0,0-1.14-3.63,31.46,31.46,0,0,0-2.49-5.08,31,31,0,0,0-4-5.12,29,29,0,0,0-4.72-3.91,30.33,30.33,0,0,0-4.55-2.41,37,37,0,0,0-6.08-1.7,24.47,24.47,0,0,0-6.73-.44,50.93,50.93,0,0,0-6.44,1.13,32.52,32.52,0,0,0-5.82,2.05,30.07,30.07,0,0,0-4.78,2.86,39.2,39.2,0,0,0-5,4.31,35.66,35.66,0,0,0-3.87,4.64,30.83,30.83,0,0,0-2.78,5,33.53,33.53,0,0,0-2.13,6.29,31.65,31.65,0,0,0-.77,7.13,31.32,31.32,0,0,0,.81,6.93,35.44,35.44,0,0,0,2.13,5.84,43.35,43.35,0,0,0,2.74,4.6,5.75,5.75,0,0,1,1.17,2.14c-.11.1-12.3,12.29-27.07,27.11s-26.89,27-26.92,27l-14.42.64c-7.91.36-15.79.68-17.57.68h-3.27l-.16-19.17c-.11-12.39-.34-20.14-.68-21.88a60.66,60.66,0,0,0-1.69-6.09,54.53,54.53,0,0,0-2.31-5.6,45.67,45.67,0,0,0-2.49-4.26c-.75-1.12-2.49-3.29-3.87-4.88a45,45,0,0,0-5.88-5.4,53.53,53.53,0,0,0-6.73-4.15,40.29,40.29,0,0,0-19.94-4.48c-2.72,0-7,.24-9.43.49s-5.67.48-7.09.48-2.59-.21-2.59-.48,3.92-4.75,8.71-10l8.71-9.5,30.42-2.78c16.71-1.54,30.54-2.7,30.74-2.58a16.93,16.93,0,0,1,1.77,2.78,30.93,30.93,0,0,0,4.43,5.56,25.91,25.91,0,0,0,3.1,2.66,20.76,20.76,0,0,0,3.27,1.89,33.22,33.22,0,0,0,6,2.14,35,35,0,0,0,6.25.48,29.85,29.85,0,0,0,6-.76,50.69,50.69,0,0,0,4.79-1.66A40.63,40.63,0,0,0,608.1,279a35.89,35.89,0,0,0,5.4-4.56,47.37,47.37,0,0,0,4-5,39.46,39.46,0,0,0,3-6,40.55,40.55,0,0,0,2-7.62,28.89,28.89,0,0,0,.32-4,29.29,29.29,0,0,0-.32-4.06,27.27,27.27,0,0,0-1.25-5.48,7.62,7.62,0,0,1-.64-1.94,14.09,14.09,0,0,0-1.46-2.78,35.43,35.43,0,0,0-2.58-3.66c-.62-.73-1.95-2.09-2.94-3a24.83,24.83,0,0,0-5-3.31,31.54,31.54,0,0,0-6.49-2.29,23.71,23.71,0,0,0-5.28-.53Z" transform="translate(-64.15 -224.65)"/></g></g></g></svg>